<?xml version="1.0" standalone="no"?>
<!DOCTYPE svg PUBLIC "-//W3C//DTD SVG 1.1//EN" "http://www.w3.org/Graphics/SVG/1.1/DTD/svg11.dtd" >
<svg xmlns="http://www.w3.org/2000/svg">
<metadata></metadata>
<defs>
<font id="agoptimacyroblique" horiz-adv-x="1138" >
<font-face units-per-em="2048" ascent="1638" descent="-410" />
<missing-glyph horiz-adv-x="1024" />
<glyph horiz-adv-x="2048" />
<glyph horiz-adv-x="2048" />
<glyph unicode="&#xd;" horiz-adv-x="0" />
<glyph unicode=" "  horiz-adv-x="1024" />
<glyph unicode="&#x09;" horiz-adv-x="1024" />
<glyph unicode="&#xa0;" horiz-adv-x="1024" />
<glyph unicode="!" horiz-adv-x="682" d="M135 100q10 50 53.5 86.5t93.5 36.5q44 0 71.5 -32.5t27.5 -90.5q-10 -50 -53.5 -86t-91.5 -36q-46 0 -73.5 32t-27.5 90zM289 354l90 866q8 82 34 144t101 62q78 0 78 -88q0 -26 -20 -118l-242 -866h-41z" />
<glyph unicode="&#x22;" horiz-adv-x="682" d="M166 844q0 22 14 72l68 346q10 86 32 125t68 39q56 0 56 -62q0 -26 -19 -102l-67 -346q-10 -124 -92 -124q-60 0 -60 52zM500 844q0 20 14 72l68 346q10 86 32 125t68 39q56 0 56 -62q0 -22 -19 -102l-67 -346q-11 -124 -93 -124q-59 0 -59 52z" />
<glyph unicode="#" d="M51 442l23 115h238l96 273h-226l23 114h241l144 416h118l-143 -416h273l141 416h119l-142 -416h199l-23 -114h-214l-94 -273h204l-22 -115h-224l-149 -442h-119l150 442h-275l-153 -442h-120l154 442h-219zM430 557h274l94 273h-272z" />
<glyph unicode="$" d="M68 84q14 29 29.5 62.5t26 60.5t16.5 53h22q45 -100 108 -150q62 -50 176 -50l111 573q-90 38 -142 66.5t-96.5 86.5t-44.5 146q0 30 6 68q30 160 145 255t275 119l31 158q5 0 13 -2t16 -3t12 -1q5 0 12.5 1t15.5 3t13 2l-29 -152q200 0 291 -94q-46 -70 -84 -162h-23 q-46 166 -200 174l-100 -514q54 -23 103 -43.5t94 -50.5t75 -80q31 -48 31 -118q-1 -18 -9 -70q-22 -118 -87 -209t-159.5 -148t-201.5 -75l-45 -228q-6 1 -18.5 3.5t-20.5 2.5q-7 0 -20.5 -2t-22.5 -4l43 216q-128 0 -216 20t-146 86zM446 1012q0 -45 16.5 -79t40 -55 t50.5 -35.5t41 -21.5l92 471q-90 -20 -153 -80.5t-81 -148.5q-6 -27 -6 -51zM530 72q97 22 167.5 94t90.5 178q6 28 6 54q0 56 -25 93t-64 61t-72 44z" />
<glyph unicode="%" horiz-adv-x="1820" d="M182 956q0 24 8 78q20 96 80 173.5t147 122t181 44.5q120 0 189 -70t69 -184q0 -40 -8 -76q-17 -90 -76.5 -170t-145 -129t-176.5 -49q-126 0 -197 72t-71 188zM324 914q0 -166 135 -166q100 0 161 94q60 94 82 208q12 74 13 114q0 160 -127 159q-110 0 -169.5 -94.5 t-84.5 -220.5q-10 -50 -10 -94zM344 -68l1050 1494q30 -4 46 -4t49 4l-1051 -1494q-33 4 -49 4t-45 -4zM1010 234q0 42 8 78q18 94 78 173.5t148 124.5q88 46 182 46q120 0 188 -72t68 -188q0 -36 -6 -74q-20 -96 -81 -175.5t-151 -128.5q-33 -16 -82.5 -28t-83.5 -12 q-124 0 -196 70t-72 186zM1151 198q0 -170 135 -170q70 0 121 49t79.5 117t41.5 138q12 68 12 114q0 158 -127 158q-109 0 -169 -94.5t-85 -220.5q-8 -39 -8 -91z" />
<glyph unicode="&#x26;" horiz-adv-x="1478" d="M98 242q0 24 8 72q50 252 443 432l12 6q-14 31 -27 59.5t-26 63.5t-20 69q-6 34 -6 66q0 30 6 61q26 138 129 220.5t243 82.5q105 0 169.5 -46t64.5 -128q0 -12 -4 -41q-24 -116 -114 -200q-90 -85 -236 -171q15 -26 58.5 -103t71.5 -124t60 -92l84 -123q160 182 322 404 q14 -42 60 -84q-176 -210 -348 -375l199 -295q-81 8 -125 8q-20 0 -58 -2q-38 -3 -58 -4q-60 118 -96 172q-70 -64 -149 -108t-164 -67t-169 -23q-100 0 -174 32t-115 93t-41 145zM274 301q0 -106 70 -172.5t180 -66.5q103 0 201.5 53t150.5 98q-176 277 -288 489 q-16 -8 -18 -10q-250 -140 -290 -332q-6 -30 -6 -59zM637 1073q-1 -97 75 -241q111 70 181.5 143.5t89.5 171.5q4 25 4 37q0 60 -36 97.5t-99 37.5q-84 0 -139 -54.5t-72 -138.5q-4 -18 -4 -53z" />
<glyph unicode="'" horiz-adv-x="569" d="M276 844q0 24 15 72l67 346q10 85 32.5 124.5t68.5 39.5q55 0 55 -62q0 -26 -18 -102l-68 -346q-10 -124 -92 -124q-60 0 -60 52z" />
<glyph unicode="(" horiz-adv-x="569" d="M125 375q1 135 31 297q24 122 66.5 238t104.5 225t143 210t177 187l35 -39q-113 -124 -191.5 -259.5t-128.5 -280.5t-82 -312q-32 -160 -32 -338q0 -62 2 -92q6 -95 30 -175.5t78 -203.5l-49 -41q-95 142 -139.5 282.5t-44.5 301.5z" />
<glyph unicode=")" horiz-adv-x="569" d="M-60 -168q64 78 109 136.5t81 117t66 125.5q90 197 138 430q41 216 41 375q0 270 -111 477l48 39q184 -254 184 -600q0 -128 -25 -260q-26 -134 -66.5 -251t-99.5 -222t-141 -205t-190 -203z" />
<glyph unicode="*" horiz-adv-x="909" d="M190 910l314 132l-270 132q56 52 80 104l222 -184l34 315q76 0 116 2l-94 -321l292 190q16 -54 44 -104l-316 -132l262 -126q-34 -38 -78 -103l-222 183l-27 -318q-10 0 -32 1q-21 1 -33 1q-35 0 -54 -2l88 311l-284 -182q-10 22 -19 45.5t-15 34.5z" />
<glyph unicode="+" horiz-adv-x="1241" d="M90 454l26 132h452l86 448h130l-86 -448h451l-27 -132h-450l-88 -454h-132l88 454h-450z" />
<glyph unicode="," horiz-adv-x="569" d="M-72 -330l232 455q27 52 52.5 84.5t63.5 32.5q70 0 70 -76q-8 -40 -68 -108l-319 -402z" />
<glyph unicode="-" horiz-adv-x="682" d="M58 389l24 127h512l-24 -127h-512z" />
<glyph unicode="." horiz-adv-x="569" d="M80 100q9 50 53.5 86.5t94.5 36.5q44 0 71 -32.5t27 -90.5q-10 -50 -53 -86t-93 -36q-45 0 -72.5 32t-27.5 90z" />
<glyph unicode="/" horiz-adv-x="569" d="M-211 -209l921 1741q37 -4 54 -4q18 0 51 4l-921 -1741q-30 4 -46 4q-14 0 -59 -4z" />
<glyph unicode="0" d="M84 387q0 116 28 254q36 190 110 352.5t205.5 269.5t322.5 107q182 0 271 -103t89 -307q0 -120 -30 -272q-42 -218 -133 -379.5t-215 -246t-265 -84.5q-202 0 -292.5 107.5t-90.5 301.5zM250 358q0 -318 234 -317q82 0 148.5 44.5t119 129.5t92 203t68.5 270 q30 162 30 278q0 340 -209 340q-128 -5 -213 -76.5t-138.5 -205t-92.5 -340.5q-39 -212 -39 -326z" />
<glyph unicode="1" d="M322 1190q290 110 472 211l34 -11l-273 -1396q-16 1 -41.5 3.5t-38.5 2.5q-14 0 -41 -2.5t-43 -3.5l242 1237l-15 6l-250 -123q-14 51 -46 76z" />
<glyph unicode="2" d="M-12 0l6 30q45 37 76.5 63.5t61.5 51.5t62 53l148 128q164 142 250.5 225t158 197t99.5 260q10 58 10 96q0 194 -194 194q-95 0 -175 -62q-80 -60 -116 -154l-17 -7l-51 101q159 194 391 194q104 0 183 -29t122 -89t43 -152q0 -46 -8 -88q-16 -82 -58 -157t-101 -141 t-135 -132l-294 -260l-151 -132l-43 -38l6 -23q113 0 322 9q208 10 313 18q-6 -24 -12.5 -43t-10.5 -35q-4 -24 -8 -78h-878z" />
<glyph unicode="3" d="M28 43q17 28 50 125l14 8q93 -135 250 -135q102 0 186.5 47t139.5 129q54 83 74 185q8 53 8 71q0 100 -62 152.5t-176 52.5q-20 0 -50 -4t-48 -4q2 8 7 23t7 19q1 8 1 21t1 21q49 -4 76 -4q82 0 146 41t104 109t55 148q8 49 8 70q0 88 -45.5 138t-130.5 50 q-74 0 -148 -46t-116 -117l-11 -7l-30 111q47 42 133.5 82.5t192.5 40.5q85 0 162.5 -26t126.5 -80t49 -134q0 -26 -6 -53q-24 -119 -116 -214t-231 -142q127 -10 207 -73.5t80 -174.5q0 -21 -8 -67q-18 -98 -74 -179t-138 -136t-183 -84t-207 -29q-172 0 -298 65z" />
<glyph unicode="4" d="M14 381l6 27q126 144 205 232t219 244t222 246q80 89 208 230q8 0 28 -3t36 -3q13 0 32 2q20 3 34 4l-168 -862l190 8q-20 -60 -26 -134l-187 9l-75 -387q-16 1 -42 3.5t-38 2.5q-15 0 -43.5 -2.5t-40.5 -3.5l75 387h-635zM209 508l6 -10h461l129 657l-11 9 q-50 -53 -135.5 -147.5t-145 -161.5t-157.5 -179z" />
<glyph unicode="5" d="M28 58l58 134l14 2q31 -72 105 -110q73 -39 163 -39q144 0 246 110.5t134 268.5q10 64 10 102q0 218 -240 218q-120 0 -217 -68l-15 14l130 674l14 6h658l4 -16q-36 -86 -42 -150q-140 33 -270 33h-303l-88 -457q107 50 229 50q148 0 240 -85t92 -223q0 -42 -8 -82 q-24 -119 -107 -225.5t-211.5 -171.5t-281.5 -65q-198 0 -314 80z" />
<glyph unicode="6" d="M106 372q0 92 19 187q36 183 108.5 333t175 257t225 164t253.5 57q61 0 90 -6l10 -72q-40 14 -94 14q-154 0 -272.5 -107t-192.5 -262t-104 -306q152 182 366 182q161 0 246.5 -76.5t85.5 -210.5q0 -41 -10 -94q-26 -130 -102 -234t-189 -162t-244 -58q-193 0 -282 107 t-89 287zM266 297q0 -110 58 -183q60 -73 168 -73q86 0 156 53t115 139.5t65 184.5q8 40 8 88q0 107 -54 167.5t-149 61.5q-293 -16 -359 -360q-8 -38 -8 -78z" />
<glyph unicode="7" d="M58 -6l8 22q94 118 227 285t282 353.5t244 308.5q95 121 187 245l-8 8q-178 -3 -352 -11.5t-355 -20.5q19 62 25 94q3 16 6.5 46.5t5.5 45.5h874l-10 -60q-604 -758 -996 -1316q-14 1 -35 3.5t-32 2.5q-12 0 -36.5 -2.5t-34.5 -3.5z" />
<glyph unicode="8" d="M76 286q0 38 10 97q17 84 71.5 162t134.5 133q78 56 164 76l3 14q-54 12 -116.5 65.5t-62.5 155.5q0 25 6 57q16 77 61 138.5t109.5 103t138.5 62.5q75 20 147 20q86 0 147 -16t111 -60q76 -70 75 -162q0 -20 -8 -65q-13 -66 -55 -126.5t-102 -103.5q-62 -43 -128 -61 l-4 -14q73 -14 154.5 -74t81.5 -190q0 -36 -8 -74q-26 -134 -104.5 -235t-193.5 -156t-249 -55q-114 0 -200.5 34t-134.5 104t-48 170zM258 282q0 -108 55 -174.5t171 -66.5q92 0 162 52.5t113 132.5t62 172q11 52 11 96q0 104 -53 166.5t-165 62.5q-88 0 -161 -48.5 t-121 -127t-64 -162.5q-10 -43 -10 -103zM448 979q0 -76 40 -131q40 -60 140 -60q109 0 191 94q54 58 78 179q6 29 6 59q0 82 -45 134t-131 52q-107 0 -189 -92q-38 -42 -55 -84t-31 -106q-4 -29 -4 -45z" />
<glyph unicode="9" d="M114 108l26 8q72 -76 184 -75q96 0 199 78.5t183 218.5q102 180 142 387q-66 -88 -165 -137.5t-201 -49.5q-142 0 -231 82t-89 220q0 40 10 94q25 133 101.5 231.5t191.5 151.5t250 53q94 0 161.5 -31t109 -86t60.5 -127t19 -160q-1 -90 -19 -180q-45 -231 -160.5 -415.5 t-273 -288.5t-317.5 -104q-58 0 -102.5 9t-55.5 17q-1 60 -23 104zM344 850q0 -100 49 -163t154 -63q84 0 156.5 48t120.5 124q48 74 65 156q14 72 14 117q0 108 -53.5 172.5t-153.5 64.5q-140 0 -226 -106q-88 -107 -116 -254q-10 -52 -10 -96z" />
<glyph unicode=":" horiz-adv-x="569" d="M80 100q9 50 53.5 86.5t94.5 36.5q44 0 71 -32.5t27 -90.5q-10 -50 -53 -86t-93 -36q-45 0 -72.5 32t-27.5 90zM223 840q10 51 53.5 86.5t93.5 35.5q44 0 71.5 -32t27.5 -90q-10 -51 -53.5 -87t-91.5 -36q-46 0 -73.5 32.5t-27.5 90.5z" />
<glyph unicode=";" horiz-adv-x="569" d="M-72 -330l232 455q27 52 52.5 84.5t63.5 32.5q70 0 70 -76q-8 -40 -68 -108l-319 -402zM260 840q10 51 54 86.5t94 35.5q44 0 71 -32t27 -90q-10 -51 -54 -87t-92 -36q-46 0 -73 32.5t-27 90.5z" />
<glyph unicode="&#x3c;" horiz-adv-x="1241" d="M88 465l22 111l1135 478l-25 -126l-956 -408l799 -408l-25 -126z" />
<glyph unicode="=" horiz-adv-x="1241" d="M51 256l27 131h1032l-26 -131h-1033zM129 654l25 130h1032l-25 -130h-1032z" />
<glyph unicode="&#x3e;" horiz-adv-x="1241" d="M-6 -14l24 126l955 408l-797 408l24 126l951 -478l-23 -111z" />
<glyph unicode="?" horiz-adv-x="796" d="M170 100q10 50 54 86.5t94 36.5q44 0 71 -32.5t27 -90.5q-10 -50 -54 -86t-92 -36q-46 0 -73 32t-27 90zM192 551q0 34 4 53q14 71 55 126t111 116l150 131q132 115 150 205q4 24 4 32q0 63 -46 100.5t-116 37.5q-48 0 -101 -27t-87 -65l6 102q128 64 212 64 q82 0 141 -25t90 -72t31 -111q0 -28 -6 -59q-16 -86 -58 -148q-42 -63 -120 -133l-156 -140q-62 -58 -97 -100t-43 -93q0 -119 92 -119q28 0 61 12l10 -8l-37 -58q-14 -8 -55 -8q-84 0 -139.5 50t-55.5 137z" />
<glyph unicode="@" horiz-adv-x="1638" d="M119 545q0 71 14 137q40 204 171.5 375t323 270t402.5 99q175 0 306.5 -66t201.5 -177t70 -243q0 -42 -10 -96q-22 -112 -85 -216t-146 -181t-171 -121q-90 -44 -160 -44q-146 0 -145 148q-94 -74 -149.5 -105.5t-133.5 -31.5q-112 0 -176 86q-49 61 -49 139q0 22 8 72 q22 108 104.5 215.5t198.5 174.5q116 68 230 68q138 0 170 -114l44 94h181l-252 -536q-19 -38 -21 -50q0 -68 46 -67q59 0 142.5 55.5t155.5 161.5q71 106 99 248q6 30 6 68q0 70 -24.5 141.5t-79.5 134t-146 101t-219 38.5q-184 0 -350 -79.5t-280 -223.5t-148 -324 q-12 -62 -12 -126q0 -148 70.5 -261.5t197.5 -174.5q126 -62 290 -62q108 0 211 35t195.5 100t167.5 151h125q-64 -88 -146.5 -159t-178.5 -122t-200 -79t-204 -28q-185 0 -332 71.5t-230 203t-83 300.5zM557 482q1 -106 101 -107q65 0 145.5 84.5t144.5 197.5t78 185 q4 24 4 34q0 90 -88 90q-83 0 -165.5 -75t-141.5 -181t-74 -182q-4 -32 -4 -46z" />
<glyph unicode="A" horiz-adv-x="1366" d="M-72 -6l918 1432h47l336 -1432q-20 1 -54 4q-35 2 -51 2q-20 0 -57 -2.5t-53 -3.5q-14 90 -29 179t-35 187t-42 187h-521q-134 -227 -190.5 -326t-120.5 -227q-14 1 -38 3.5t-36 2.5q-14 0 -38 -2.5t-36 -3.5zM442 633h451l-125 524z" />
<glyph unicode="B" horiz-adv-x="1251" d="M92 0l270 1394h402q136 0 227 -21t137 -69t46 -126q0 -28 -6 -66q-28 -138 -137 -232t-259 -130q82 -6 153.5 -32t119 -82t47.5 -142q0 -32 -6 -66q-20 -107 -85 -195.5t-167 -150.5q-91 -54 -195.5 -68t-253.5 -14h-293zM286 76h196q99 0 185.5 40t144.5 113t75 164 q8 38 8 78q0 126 -96.5 178.5t-274.5 52.5h-114zM424 778h84q163 0 266 43q82 36 136 101t69 147q6 35 6 65q0 102 -77 143.5t-228 41.5h-152z" />
<glyph unicode="C" horiz-adv-x="1366" d="M94 514q0 88 18 188q32 168 116.5 303.5t208 229t274.5 142.5t313 49q224 0 422 -95q-37 -61 -74 -157l-14 -2q-16 28 -62 69t-123 74t-171 33q-136 0 -253 -51.5t-205 -141.5t-147 -208.5t-85 -252.5q-18 -91 -19 -172q0 -145 53.5 -251.5t153.5 -164t235 -57.5 q142 0 268 56.5t197 109.5l-34 -129q-197 -116 -476 -116q-142 0 -254 37t-188 108t-115 172.5t-39 226.5z" />
<glyph unicode="D" horiz-adv-x="1593" d="M102 0l270 1394h466h141q146 0 249 -23t179 -99q135 -132 135 -356q0 -70 -16 -156q-74 -378 -375 -604q-95 -70 -201 -104.5t-207.5 -43t-240.5 -8.5h-400zM301 92q62 -4 95.5 -6t81.5 -4t79 -2q217 0 353 62q117 52 200 141.5t132.5 201t76.5 244.5q23 122 23 205 q0 139 -57 224.5t-177 124t-312 38.5q-42 0 -127 -3.5t-131 -4.5z" />
<glyph unicode="E" horiz-adv-x="1024" d="M80 0l270 1394h727q-4 -13 -7.5 -23.5t-5.5 -20.5t-3 -17q-2 -10 -3.5 -30.5t-3.5 -30.5q-70 14 -180 22l-204 4h-158l-100 -514h317q36 0 102.5 5t82.5 5q-3 -12 -8.5 -27t-8.5 -25q-1 -8 -2 -28t-2 -30q-32 1 -88 6q-57 4 -93 4h-316l-118 -598q128 0 374 8 q95 3 192 19q-6 -19 -11 -34t-7 -27q-4 -16 -5 -31t-2 -31h-739z" />
<glyph unicode="F" horiz-adv-x="1024" d="M78 -6l272 1400h727q-4 -13 -7.5 -23.5t-5.5 -20.5t-3 -17q-2 -10 -3.5 -30.5t-3.5 -30.5q-70 14 -180 22l-204 4h-158l-100 -514h317q36 0 102.5 5t82.5 5q-3 -12 -8.5 -27t-8.5 -25q-1 -8 -2 -28t-2 -30q-32 1 -88 6q-57 4 -93 4h-316l-138 -700q-15 1 -44.5 3.5 t-43.5 2.5q-15 0 -46.5 -2.5t-45.5 -3.5z" />
<glyph unicode="G" horiz-adv-x="1593" d="M146 510q0 90 18 184q44 232 179 398t333 250t428 84q196 0 321 -40t179 -80q-27 -48 -78 -157h-23q-66 96 -177.5 147.5t-243.5 51.5q-174 0 -323 -75t-251 -221t-142 -348q-20 -116 -20 -188q0 -224 128 -346.5t376 -122.5h5q183 0 329 69l102 527q22 -2 45 -4t43 -2 q10 0 28 1.5t36 2.5t28 2l-112 -579q-290 -94 -576 -94q-212 0 -354 67t-210 188.5t-68 284.5z" />
<glyph unicode="H" horiz-adv-x="1593" d="M80 -6l272 1400q8 0 26.5 -2t36 -3t27.5 -1t27 1.5l34 3t29 1.5l-112 -587q380 -11 430 -11q90 0 222 4.5t210 6.5l112 587q10 0 28 -2t35 -3t28 -1q10 0 27 1.5l34 3t29 1.5l-273 -1400q-15 1 -44.5 3.5t-43.5 2.5q-16 0 -47 -2.5t-45 -3.5l138 704q-358 10 -428 10 q-60 0 -434 -10l-138 -704q-15 1 -44.5 3.5t-43.5 2.5q-15 0 -46.5 -2.5t-45.5 -3.5z" />
<glyph unicode="I" horiz-adv-x="569" d="M90 -6l272 1400q8 0 26.5 -2t36 -3t27.5 -1q9 0 27 1.5t35.5 3t27.5 1.5l-272 -1400q-17 1 -45.5 3.5t-42.5 2.5q-16 0 -45.5 -2.5t-46.5 -3.5z" />
<glyph unicode="J" horiz-adv-x="569" d="M-176 -228q154 6 224 108t104 272l241 1242q10 0 27.5 -2t35.5 -3t28 -1t27 1.5l34 3t29 1.5l-236 -1216q-22 -128 -91 -232t-177 -164t-240 -64z" />
<glyph unicode="K" horiz-adv-x="1251" d="M82 -6l272 1400q8 0 26.5 -2t36 -3t27.5 -1t27 1.5t35 3t28 1.5l-122 -632q0 -4 8 -4q22 0 45 16q32 22 129 100l604 520q20 -2 42 -4t40 -2q8 0 23.5 1.5l31 3t25.5 1.5l-551 -446l-209 -176q64 -94 105 -152.5t88.5 -126t106 -152t89.5 -132.5l125 -205l-2 -10 q-21 1 -57 4q-35 2 -53 2q-20 0 -59 -2.5t-59 -3.5q-44 93 -104 186l-344 522q-14 10 -26 10q-8 0 -8 -4l-140 -714q-16 1 -45 3.5t-43 2.5q-15 0 -46.5 -2.5t-45.5 -3.5z" />
<glyph unicode="L" horiz-adv-x="1024" d="M80 0l270 1394q10 0 27.5 -2t35 -3t27.5 -1t27 1.5l34 3t29 1.5l-252 -1298q128 0 374 8q68 2 198 19q-4 -14 -10 -31.5t-8.5 -30.5t-3.5 -29q0 -16 -2 -32h-746z" />
<glyph unicode="M" horiz-adv-x="1820" d="M-14 -6q27 74 118.5 340t151 444t118 356t80.5 260h54q40 -130 83 -263.5t89.5 -271t94 -265.5t105.5 -272q130 174 311.5 419t290 392t196.5 261h42q-21 -238 -37.5 -448t-27.5 -354t-20 -277.5t-21 -320.5q-18 1 -48 4q-30 2 -46 2t-50 -2.5t-48 -3.5q86 786 102 1056 q-520 -686 -738 -1034h-22l-68 232q-34 114 -64 211t-68 211t-71 214t-55 166q-40 -129 -100 -322t-94 -303.5t-64.5 -225t-48.5 -205.5q-14 1 -36.5 3.5t-32.5 2.5q-13 0 -37.5 -2.5t-38.5 -3.5z" />
<glyph unicode="N" horiz-adv-x="1593" d="M100 -6l272 1400h80l768 -1054h21l205 1054q14 -2 29 -4t28 -2q6 0 17.5 1.5t22.5 3t17 1.5l-272 -1400h-61q-34 60 -82 125l-695 979h-20l-215 -1104q-10 1 -28.5 3.5t-26.5 2.5q-10 0 -30 -2q-20 -3 -30 -4z" />
<glyph unicode="O" horiz-adv-x="1706" d="M102 528q0 90 17 166q42 218 173.5 385t322.5 257t403 90q178 0 328 -59t240 -183t90 -306q0 -62 -17 -153q-33 -168 -117.5 -308.5t-209 -240.5t-278.5 -153t-323 -53q-146 0 -262.5 38t-198.5 111.5t-125 177.5q-43 103 -43 231zM297 500q0 -149 58 -253.5t161 -156.5 q104 -53 234 -53q199 0 353.5 113.5t244.5 271.5t106 286q22 112 22 202q0 142 -63 249q-57 96 -159.5 147.5t-227.5 51.5q-178 0 -325 -85t-246 -241t-139 -362q-18 -90 -19 -170z" />
<glyph unicode="P" d="M58 -6l272 1400h366q172 0 275.5 -23.5t151 -76t47.5 -139.5q0 -40 -11 -96q-22 -120 -87 -203.5t-170.5 -134.5t-260.5 -80q-46 -10 -123 -10q-36 0 -90 3t-66 3l-124 -643q-15 1 -44.5 3.5t-43.5 2.5q-15 0 -46.5 -2.5t-45.5 -3.5zM379 717q55 -5 92 -5q33 0 111 5 q156 16 258.5 104.5t130.5 226.5q6 36 6 68q0 84 -46.5 136t-140.5 61q-43 4 -157 4q-105 0 -137 -2z" />
<glyph unicode="Q" horiz-adv-x="1706" d="M102 528q0 90 17 168q42 209 174 375.5t324 260.5t401 94q191 0 340.5 -63t233.5 -187t84 -296q0 -64 -17 -151q-38 -196 -138.5 -341.5t-239.5 -237.5t-300 -144q15 -13 115.5 -103.5t163 -145.5t112.5 -97q-124 -50 -176 -84q-13 26 -152.5 174t-232.5 226q-6 0 -16 -2 t-20 -3t-15 -1q-200 1 -348 65.5t-229 190.5q-81 124 -81 302zM297 496q0 -153 60 -256.5t162.5 -153t230.5 -49.5q168 0 296.5 74.5t213 184.5t132.5 222t62 190q22 112 22 202q0 144 -63 247q-57 97 -159 149t-228 52q-192 0 -341 -94.5t-241 -251t-128 -342.5 q-18 -94 -19 -174z" />
<glyph unicode="R" horiz-adv-x="1251" d="M80 -6l272 1400h434q206 0 304 -59t98 -180q0 -35 -6 -71q-22 -112 -97.5 -193t-180 -129t-218.5 -68l318 -534l76 -115l28 -51q-22 1 -60 3.5t-57 2.5t-59 -2.5t-60 -3.5q-74 141 -94 178l-180 314l-127 192h-78l-133 -684q-15 1 -44.5 3.5t-43.5 2.5q-15 0 -46.5 -2.5 t-45.5 -3.5zM410 756q3 0 35.5 -1t60.5 -1q102 0 170 12q122 24 208 100q88 77 110 193q8 49 8 69q0 158 -183 189q-32 6 -127 6q-28 -1 -88 -2t-86 -2z" />
<glyph unicode="S" horiz-adv-x="1024" d="M6 88q38 68 76 182h20q42 -105 109 -158.5t180 -53.5q81 0 154 40t123 108t67 150q7 30 7 56q0 96 -64 144t-195 104t-198.5 117t-67.5 175q1 42 9 80q36 190 185 292t345 102q80 0 154.5 -25t119.5 -74q-36 -56 -88 -168h-20q-15 84 -72.5 131.5t-147.5 47.5 q-109 0 -196 -66q-86 -66 -108 -174q-6 -30 -7 -56q0 -96 63 -144t197.5 -105t202.5 -116t68 -169q0 -36 -8 -72q-27 -142 -115 -248t-214.5 -162t-266.5 -56q-82 0 -177 32t-135 86z" />
<glyph unicode="T" d="M186 1272q3 10 10.5 34t8.5 27q1 11 2 31t2 30h1057q-4 -13 -7.5 -23.5t-6 -20.5t-2.5 -17q-2 -10 -3.5 -21.5t-2 -20.5t-1.5 -19q-204 24 -424 24l-254 -1306q-18 1 -45.5 3.5t-42.5 2.5t-47 -2.5t-45 -3.5l254 1306q-211 0 -453 -24z" />
<glyph unicode="U" horiz-adv-x="1593" d="M178 362q0 74 25 214l157 818q8 0 26.5 -2t36 -3t27.5 -1t27 1.5t35 3t28 1.5l-151 -784q-23 -112 -23 -219q0 -110 37 -182.5t117.5 -108.5t214.5 -36q158 0 269.5 70.5t180.5 197t103 299.5l148 763q14 -2 29 -4t28 -2q6 0 17.5 1.5t22.5 3t17 1.5l-158 -814 q-38 -198 -138 -335.5t-248 -206t-330 -68.5q-101 0 -178 15t-135.5 47t-102.5 80q-82 90 -82 250z" />
<glyph unicode="V" horiz-adv-x="1366" d="M217 1394q10 0 29.5 -2t38.5 -3t31 -1q11 0 29.5 1.5t38.5 3t32 1.5q16 -74 38 -198l66 -358l134 -621h18l63 94.5t54 82t45 71.5l323 555l189 342l20 32q18 -2 38 -4t38 -2q7 0 21.5 1.5t28.5 3t24 1.5q-30 -43 -150 -230t-278.5 -443t-274 -447.5t-161.5 -279.5 q-38 6 -40 6q-7 0 -21.5 -2.5t-22.5 -3.5q-50 174 -97 361t-115 476t-93.5 396t-45.5 167z" />
<glyph unicode="W" horiz-adv-x="2048" d="M192 1394q10 0 29 -1.5l38 -3t30 -1.5q9 0 27 1.5t37 3t30 1.5q7 -46 21 -216l38 -416l68 -541h18q526 965 625 1173q6 0 17.5 -2t23.5 -3t18 -1t17.5 1.5t22.5 3t18 1.5q4 -44 23 -185t30 -216t52 -363.5t57 -408.5h18q74 129 127 233l389 773l82 167q6 0 20.5 -1.5 t28.5 -2.5q15 -2 23 -2t21 1.5t27 3t24 1.5q-75 -118 -154 -262l-612 -1138q-12 1 -33.5 3.5t-32.5 2.5t-33.5 -2.5t-36.5 -3.5q-2 22 -18 145t-30 233t-52 409t-47 362h-17l-620 -1149q-12 1 -34 3.5t-32 2.5q-13 0 -36.5 -2.5t-35.5 -3.5q-8 84 -14 150t-14 120z" />
<glyph unicode="X" horiz-adv-x="1251" d="M-30 -6q34 38 100 113.5t114 129t105 119.5l293 342q-26 64 -59 145t-49 119t-52 124l-144 308q10 0 33 -2t44.5 -3t33.5 -1q11 0 33 1.5t42 3t36 1.5q18 -42 39 -94t33 -82l143 -372q46 56 99 118.5t125.5 147t128.5 153.5t98 129q18 -2 38 -4t37 -2q8 0 23 1.5t29.5 3 t23.5 1.5q-17 -14 -43 -40l-398 -436l-128 -152l323 -772q-21 1 -57 4q-36 2 -54 2q-20 0 -58 -2.5t-56 -3.5q-96 304 -232 622q-73 -84 -161.5 -192t-172 -217t-159.5 -213q-12 1 -37 3.5t-37 2.5q-14 0 -39.5 -2.5t-37.5 -3.5z" />
<glyph unicode="Y" horiz-adv-x="1251" d="M209 1394q10 0 33.5 -2t45.5 -3t36 -1q12 0 33.5 1.5l43 3t35.5 1.5q38 -121 130.5 -366.5t125.5 -319.5q28 28 101 120t150.5 196t156 211t116.5 159q9 0 24.5 -2t31.5 -3t24 -1t24 1.5t31 3t25 1.5q-80 -83 -184 -204l-295 -362q-79 -94 -155 -206l-124 -628 q-15 1 -44.5 3.5t-43.5 2.5q-16 0 -47 -2.5t-45 -3.5l115 590z" />
<glyph unicode="Z" horiz-adv-x="1251" d="M-68 0l8 45l758 831q260 290 375 426v4l-233 -2q-86 0 -184 -5t-216 -14t-176 -13q16 54 18 61q1 11 2.5 31t1.5 30h1078l-6 -38q-132 -136 -265.5 -278t-282.5 -307t-299 -336.5t-292 -340.5v-4h311q203 4 580 33q-4 -14 -10 -31.5t-8.5 -30.5t-3.5 -29q0 -16 -2 -32 h-1154z" />
<glyph unicode="[" horiz-adv-x="682" d="M127 -238l344 1770h321l-10 -60h-198l-322 -1650h199l-13 -60h-321z" />
<glyph unicode="\" horiz-adv-x="1024" d="M262 1532q46 -4 64 -4q22 0 63 4l465 -1532q-20 4 -64 4q-43 0 -63 -4z" />
<glyph unicode="]" horiz-adv-x="682" d="M-66 -238l13 60h199l321 1650h-199l10 60h322l-344 -1770h-322z" />
<glyph unicode="^" horiz-adv-x="1241" d="M110 563l611 831h135l284 -831h-142l-240 668l-504 -668h-144z" />
<glyph unicode="_" horiz-adv-x="1024" d="M-166 -328l14 78h1024l-14 -78h-1024z" />
<glyph unicode="`" horiz-adv-x="682" d="M205 1336q0 38 8 54q27 44 92 44q17 -6 25 -14q16 -13 34.5 -37.5t28.5 -36.5l207 -256h-72l-282 200q-10 9 -17 15.5t-14 13.5t-10 17z" />
<glyph unicode="a" horiz-adv-x="1024" d="M30 178q0 20 7 50q21 108 83 167t144 83.5t209 43.5q95 16 139.5 28t69 36t35.5 74q6 34 6 63q0 85 -51.5 130.5t-149.5 45.5q-99 0 -172.5 -47.5t-97.5 -93.5h-22l22 114q184 112 350 113h2q274 0 274 -241q0 -56 -10 -103l-92 -475l-10 -66q0 -36 45 -36q25 0 61 8 l-8 -46q-48 -17 -66 -20q-36 -6 -67 -6q-59 2 -90 30t-31 95l-22 -19q-154 -128 -328 -128q-64 0 -116.5 24t-83 70t-30.5 106zM203 203q0 -139 169 -139q39 0 90.5 23t88.5 55q65 50 67 63l60 299l-76 -14q-112 -20 -150.5 -28.5t-93 -31.5t-95.5 -65.5t-54 -108.5 q-6 -28 -6 -53z" />
<glyph unicode="b" d="M30 0l298 1532q20 -2 41 -4t41 -2q9 0 24.5 1t31.5 3t26 2l-148 -758q188 211 396 211q88 0 151.5 -28.5t103 -77.5t59.5 -113q19 -66 19 -138q0 -60 -12 -118q-26 -139 -105.5 -261.5t-199.5 -196.5q-118 -74 -260 -74q-112 0 -174 44t-88 101q-36 -23 -90 -66t-74 -57 h-40zM260 305q0 -121 59 -191.5t167 -70.5q82 0 150 42.5t117 111t81 147.5t46 158q14 65 15 135q0 121 -54.5 191t-168.5 71q-110 0 -191.5 -66.5t-133 -176t-75.5 -238.5q-12 -60 -12 -113z" />
<glyph unicode="c" horiz-adv-x="1024" d="M64 368q0 56 12 118q30 156 119.5 268t222 171.5t284.5 59.5q186 0 310 -84l-74 -135h-16q-28 52 -44 68q-27 39 -78.5 60.5t-107.5 21.5q-113 0 -204.5 -58t-150.5 -156q-59 -96 -79 -206q-12 -64 -12 -121q0 -150 79 -239t217 -89q82 0 153 33.5t157 99.5l12 -6 l-28 -94q-162 -102 -334 -102q-143 0 -241.5 49.5t-147.5 137.5q-49 87 -49 203z" />
<glyph unicode="d" d="M45 324q1 66 17 149q28 142 104.5 259.5t189.5 185t244 67.5q206 -1 284 -199l144 746q20 -2 42 -4t40 -2q9 0 24.5 1t30.5 3t27 2l-299 -1538q-14 1 -40.5 3.5t-39.5 2.5q-14 0 -41 -2.5t-43 -3.5l39 196q-167 -212 -393 -212q-99 0 -173 38.5t-116 116.5 q-41 79 -41 191zM223 318q0 -118 51 -192q50 -75 166 -75q161 0 258.5 141.5t131.5 317.5q12 62 12 125q0 116 -49.5 191t-161.5 75q-307 -1 -395 -457q-12 -64 -13 -126z" />
<glyph unicode="e" horiz-adv-x="1024" d="M49 354q1 60 13 128q28 144 104 258t194 179.5t266 65.5q74 0 135 -20.5t108 -62.5t73 -106t26 -149q0 -71 -22 -163q-208 6 -416 6h-288q-18 -72 -19 -138q0 -130 74.5 -209t216.5 -79q156 0 330 141l-23 -107q-189 -120 -375 -120q-184 0 -290.5 99t-106.5 277z M258 565h545q12 65 12 127q-1 230 -201 230q-134 0 -226 -105t-130 -252z" />
<glyph unicode="f" horiz-adv-x="569" d="M76 -6l176 901h-142q14 34 15 78h141l8 16q42 128 112 251.5t177.5 207.5t247.5 84q-30 -78 -41 -164l-12 -8l-37 20q-25 10 -69 10q-228 0 -228 -364q0 -10 1 -27t1 -26h209q-15 -38 -15 -78h-204l-176 -901q-16 1 -42 4q-24 2 -38 2t-42.5 -2.5t-41.5 -3.5z" />
<glyph unicode="g" horiz-adv-x="1024" d="M-82 -297q0 25 6 57q40 210 262 248l2 16q-98 17 -98 113q0 23 6 53q12 68 56 108t120 68q-149 75 -149 218q0 40 8 76q18 100 72.5 172t154 112.5t248.5 40.5l285 -10q18 -2 57 -2q44 0 90 6l-14 -78l-223 19q96 -86 96 -212q0 -28 -6 -59q-32 -158 -170.5 -237.5 t-329.5 -79.5q-72 0 -113.5 -19t-51.5 -79q0 -60 42 -79.5t136 -19.5h130q308 -1 308 -209q0 -30 -6 -63q-16 -88 -69 -163.5t-132 -129t-181 -82t-216 -28.5q-128 0 -224 61t-96 182zM45 -286q0 -94 69.5 -143.5t184.5 -49.5q80 0 158.5 26.5t137.5 85.5t77 150q8 33 8 69 q0 70 -35.5 104t-90 44t-138.5 10q-316 0 -365 -242q-6 -30 -6 -54zM276 578q0 -86 46 -140.5t132 -54.5q107 0 183.5 78.5t97.5 190.5q11 52 11 94q0 184 -176 184q-108 0 -184 -74t-100 -194q-10 -48 -10 -84z" />
<glyph unicode="h" d="M53 -6l299 1538q20 -2 41.5 -4t40.5 -2q8 0 24 1t31.5 3t26.5 2l-144 -746q150 198 368 199q268 0 268 -256q0 -67 -14 -143l-118 -592q-16 1 -41 3.5t-39 2.5t-41 -2.5t-43 -3.5l107 544q19 88 19 156q0 94 -43 139t-137 45q-268 0 -332 -327l-109 -557q-16 1 -41.5 3.5 t-38.5 2.5q-14 0 -41 -2.5t-43 -3.5z" />
<glyph unicode="i" horiz-adv-x="569" d="M98 -6l191 979q12 -1 37.5 -4t43.5 -3t42 3t40 4l-190 -979q-16 1 -41 3.5t-39 2.5q-15 0 -42.5 -2.5t-41.5 -3.5zM336 1323q8 43 44 74t79 31q38 0 62 -27.5t24 -77.5q-9 -43 -47 -74t-78 -31q-38 0 -61 27.5t-23 77.5z" />
<glyph unicode="j" horiz-adv-x="569" d="M-194 -475l18 -4q94 0 174 129q44 73 68 154.5t44 187.5l191 981q12 -1 37.5 -4t44.5 -3q17 0 40.5 3t41.5 4l-193 -989q-28 -146 -73 -250t-139 -182q-122 -92 -252 -92zM348 1323q8 44 44 74.5t79 30.5q38 0 62 -27.5t24 -77.5q-9 -43 -46.5 -74t-78.5 -31 q-38 0 -61 28t-23 77z" />
<glyph unicode="k" horiz-adv-x="1024" d="M58 -6l298 1538q20 -2 42 -4q20 -2 40 -2q9 0 24.5 1t31 3t26.5 2l-178 -918q0 -8 -4.5 -26t-5.5 -25q0 -10 8 -16q60 1 200 121l154 128l193 177q12 -1 37.5 -4t43.5 -3q16 0 40 3q22 3 40 4l-2 -15q-30 -23 -144.5 -106.5t-212 -156.5t-171.5 -132q29 -42 87 -129 t100.5 -152t90.5 -136.5t95 -141.5l-2 -10q-20 1 -51 4q-32 2 -48 2q-19 0 -52.5 -2.5t-51.5 -3.5q-62 112 -301 460q-24 34 -41 34q-26 0 -41 -76l-82 -418q-16 1 -41.5 3.5t-37.5 2.5q-15 0 -43.5 -2.5t-40.5 -3.5z" />
<glyph unicode="l" horiz-adv-x="569" d="M98 -6l300 1538q20 -2 41 -4t40 -2q8 0 24.5 1t31.5 3t26 2l-299 -1538q-16 1 -41 3.5t-39 2.5q-15 0 -42.5 -2.5t-41.5 -3.5z" />
<glyph unicode="m" horiz-adv-x="1706" d="M41 -6l191 979q12 -1 37 -4t45 -3q17 0 40.5 3t41.5 4l-34 -177q144 188 338 189q103 0 176 -53q72 -54 84 -150q162 202 361 203q142 0 206.5 -62.5t64.5 -187.5q0 -57 -17 -149l-117 -592q-16 1 -41 3.5t-39 2.5q-15 0 -42.5 -2.5t-41.5 -3.5l107 544q19 102 19 156 q0 184 -181 184q-138 0 -204.5 -94t-94.5 -237l-108 -553q-14 1 -41 3.5t-39 2.5q-14 0 -41 -2.5t-43 -3.5l116 600q12 62 12 110q0 174 -174 174q-144 0 -209 -77t-91 -211l-117 -596q-16 1 -41.5 3.5t-38.5 2.5q-14 0 -42.5 -2.5t-41.5 -3.5z" />
<glyph unicode="n" d="M53 -6l191 979q14 -1 38 -4t44 -3q18 0 42 3t40 4l-36 -187q150 198 368 199q140 0 205 -61.5t65 -188.5q0 -59 -16 -149l-118 -592q-16 1 -41 3.5t-39 2.5t-41 -2.5t-43 -3.5l107 544q19 98 19 152q0 188 -180 188q-152 0 -230 -102.5t-116 -306.5l-95 -475 q-16 1 -41.5 3.5t-38.5 2.5q-14 0 -41 -2.5t-43 -3.5z" />
<glyph unicode="o" d="M47 352q1 66 19 140q28 145 117 257t220 174t277 62q118 0 207 -45.5t136.5 -130.5t47.5 -201q0 -58 -12 -122q-26 -133 -107.5 -250t-211.5 -187.5t-292 -70.5q-116 0 -207 45t-143 131q-51 84 -51 198zM226 332q0 -128 61 -209.5t190 -81.5q110 0 196.5 75.5 t138.5 181.5q50 106 68 198q14 74 15 135q0 126 -54 209q-53 82 -175 82t-211 -67t-141 -171.5t-74 -222.5q-14 -75 -14 -129z" />
<glyph unicode="p" d="M-70 -530l291 1503q14 -1 38.5 -4t43.5 -3q17 0 41 3t41 4l-39 -207h4q32 48 56 77t68 63t111 56.5t153 22.5q108 0 182.5 -47t111.5 -128.5t37 -181.5q0 -64 -10 -112q-24 -124 -75.5 -224t-124.5 -171t-161 -107t-186 -36q-212 0 -276 196h-4l-138 -704q-18 1 -44 4 q-26 2 -38 2q-15 0 -42.5 -3t-39.5 -3zM272 334q0 -124 58.5 -197t179.5 -73q98 0 173 59t122 159t71 226q16 80 17 150q0 116 -51.5 187t-167.5 71q-160 0 -258 -140q-98 -142 -132 -320q-12 -64 -12 -122z" />
<glyph unicode="q" d="M51 352q1 50 15 132q28 143 97 256.5t174 179t235 65.5q145 0 217.5 -73t84.5 -150h4l42 211q12 -1 38 -4t44 -3q17 0 40.5 3t41.5 4l-292 -1503q-16 1 -42 3.5t-40 2.5t-41 -3t-41 -3l136 700h-4q-132 -192 -352 -192q-174 0 -265.5 105t-91.5 269zM234 338 q0 -274 235 -274q86 0 158.5 55t121.5 145t72 195q15 87 15 147q0 89 -24 159.5t-75 110.5t-125 40q-150 0 -237.5 -110t-122.5 -294q-18 -85 -18 -174z" />
<glyph unicode="r" horiz-adv-x="682" d="M58 -6l190 979q12 -1 37 -4t45 -3q18 0 42 3t40 4l-40 -205l15 24q159 192 295 193q40 0 64 -10l-64 -172q-6 2 -37.5 17.5t-52.5 15.5q-84 0 -142 -52q-60 -56 -83 -110t-41 -150l-105 -530q-16 1 -41.5 3.5t-37.5 2.5q-15 0 -43.5 -2.5t-40.5 -3.5z" />
<glyph unicode="s" horiz-adv-x="796" d="M-8 43q52 97 72 149h16q28 -64 83 -107.5t123 -43.5q50 0 101 24t89 67.5t48 95.5q4 28 4 36q0 68 -48 97t-150 60t-154 71q-53 40 -53 128q0 28 6 62q18 96 75.5 164t139.5 103.5t176 35.5q74 0 134 -17q62 -16 88 -36q-48 -78 -76 -146h-19q-11 53 -53 94.5t-96 41.5 q-79 0 -141 -45q-63 -45 -79 -125q-4 -24 -4 -35q0 -68 48 -98.5t151 -65.5t156 -76t53 -123q0 -26 -6 -53q-21 -104 -89.5 -177.5t-162.5 -109.5t-188 -36q-147 0 -244 65z" />
<glyph unicode="t" horiz-adv-x="569" d="M84 156q0 58 18 143l117 596h-127q14 36 14 78h128l40 203l176 63l-52 -266h216q-14 -40 -14 -78h-217l-101 -514q-6 -35 -13 -70.5t-11 -65t-4 -59.5q0 -137 114 -137h2q14 1 95 15l-11 -50q-106 -36 -178 -36q-96 0 -144 40t-48 138z" />
<glyph unicode="u" d="M96 232q0 68 14 138l118 603q12 -1 37 -4t44 -3q18 0 41.5 3t40.5 4l-107 -553q-14 -72 -14 -140q2 -100 48 -151t147 -51q141 0 215 96q74 98 102 234l109 565q12 -1 37.5 -4t44.5 -3q17 0 41 3q22 3 40 4l-190 -979q-16 1 -41 3.5t-39 2.5q-15 0 -42.5 -2.5t-41.5 -3.5 l35 176q-68 -94 -161.5 -143t-201.5 -49q-276 0 -276 254z" />
<glyph unicode="v" horiz-adv-x="1024" d="M127 973q11 0 41 -3.5t51 -3.5q19 0 45 3t45 4q32 -299 152 -789q9 10 26.5 28t24.5 30l178 288l250 443q9 -1 29.5 -4t36.5 -3q13 0 31.5 3t33.5 4q-397 -592 -608 -979q-12 1 -31.5 3.5t-27.5 2.5q-12 0 -34 -2.5t-32 -3.5q-10 58 -35.5 188.5t-55 269t-61.5 277.5 t-59 244z" />
<glyph unicode="w" horiz-adv-x="1593" d="M121 973q13 -1 41 -4t49 -3q18 0 44.5 3t45.5 4q43 -438 113 -760q53 80 135 219.5t163.5 286.5t135.5 254q8 -1 24 -4t29 -3q10 0 25.5 3t27.5 4q10 -159 44 -385t71 -377q37 60 148 242.5t192 323.5t109 196q7 0 27.5 -3.5t37.5 -3.5q13 0 31 3t32 4q-42 -60 -116 -173 t-153 -239.5t-170.5 -280.5t-162.5 -286q-12 1 -29 3.5t-24 2.5q-8 0 -27.5 -2.5t-29.5 -3.5q-10 142 -43 370q-33 230 -63 374q-164 -233 -424 -744q-10 1 -27.5 3.5t-26.5 2.5q-8 0 -27 -2.5t-30 -3.5q-70 558 -172 979z" />
<glyph unicode="x" horiz-adv-x="1024" d="M-41 -6l4 20q109 108 229 229t230 234l-276 496q14 -1 47 -4t57 -3q22 0 53 3t51 4q30 -80 89.5 -197.5t101.5 -183.5l143 148l217 233q10 -1 32 -4t38 -3t36.5 3t34.5 4q-123 -110 -238.5 -219.5t-225.5 -221.5l280 -518l-4 -20q-18 1 -49 3.5t-45 2.5q-16 0 -48 -2.5 t-50 -3.5q-84 208 -207 422q-253 -268 -377 -422q-12 1 -31 3.5t-29 2.5q-12 0 -32.5 -2.5t-30.5 -3.5z" />
<glyph unicode="y" horiz-adv-x="1024" d="M-12 -530q166 236 376 532l-224 971q12 -1 43 -4t55 -3q20 0 47.5 3t48.5 4q25 -182 64.5 -372.5t93.5 -387.5q186 270 454 760q10 -1 31 -4t37 -3q12 0 31 3t35 4q-156 -241 -274.5 -423t-236 -366t-225.5 -358t-217 -356q-16 1 -37.5 3.5t-31.5 2.5q-12 0 -36 -3 t-34 -3z" />
<glyph unicode="z" horiz-adv-x="1024" d="M-58 0l5 18q85 84 206 210t230.5 242t211 225t173.5 187v7q-122 0 -244 -8t-311 -23q15 36 17 52q2 8 2 25t2 27h784l-2 -18l-805 -862l-2 -6q82 0 193.5 4t203.5 10t232 16q-5 -16 -9.5 -30t-7.5 -23q-2 -11 -3 -31.5t-1 -21.5h-875z" />
<glyph unicode="{" horiz-adv-x="682" d="M142 645q98 26 140 78.5t62 156.5l70 365q24 120 71.5 182.5t119 83.5t181.5 21q-102 -24 -149 -83t-69 -175l-72 -362q-23 -120 -67.5 -180.5t-150.5 -86.5q70 -18 99 -56q29 -37 29 -101q0 -52 -17 -130l-65 -340q-10 -58 -10 -94q2 -66 32 -106q28 -40 96 -56 q-99 0 -156.5 15t-85.5 54t-28 111q0 60 14 128l64 334q14 72 14 104q0 54 -28 86t-94 51z" />
<glyph unicode="|" horiz-adv-x="682" d="M172 0l297 1532h131l-297 -1532h-131z" />
<glyph unicode="}" horiz-adv-x="682" d="M-60 -238q98 20 148.5 82t73.5 172l66 342q16 84 37 138t65 91t118 56q-70 20 -98 57.5t-28 100.5q0 49 12 111l72 362q10 58 10 94q0 66 -30 106q-32 39 -102 58q94 0 152 -14t90 -54q31 -40 31 -116q0 -56 -10 -105l-72 -365q-10 -54 -10 -88q0 -58 28 -92 q29 -35 93 -55q-101 -26 -140.5 -76.5t-62.5 -162.5l-63 -334q-25 -124 -67.5 -189t-115.5 -92t-197 -27z" />
<glyph unicode="~" horiz-adv-x="1241" d="M84 426q83 108 161.5 173t176.5 65q48 0 102 -20t131.5 -57t117 -53t75.5 -16q65 0 134 54q70 54 116 122l55 -82q-68 -95 -154.5 -159t-177.5 -64q-32 0 -78 14.5t-97.5 37.5t-84.5 38q-64 30 -94.5 41.5t-70.5 11.5q-74 0 -128 -47.5t-126 -140.5z" />
<glyph unicode="&#xa3;" horiz-adv-x="569" d="M-176 -228q154 6 224 108t104 272l241 1242q10 0 27.5 -2t35.5 -3t28 -1t27 1.5l34 3t29 1.5l-236 -1216q-22 -128 -91 -232t-177 -164t-240 -64z" />
<glyph unicode="&#xa4;" d="M18 289l134 111q-64 106 -64 220q0 50 8 90q39 189 170 312l-88 112l106 90l91 -112q155 110 335 110q172 0 284 -108l128 108l72 -88l-131 -108q61 -94 61 -217q0 -54 -8 -94q-34 -175 -178 -313l88 -111l-106 -88l-86 109q-150 -106 -324 -107q-178 1 -287 107 l-131 -109zM215 637q0 -88 40.5 -158.5t113.5 -109.5t165 -39q104 0 202 52t166.5 141.5t88.5 191.5q7 35 7 69q0 87 -39.5 159t-111 113.5t-161.5 41.5q-106 0 -205 -51t-168.5 -140t-91.5 -197q-6 -36 -6 -73z" />
<glyph unicode="&#xa6;" horiz-adv-x="682" d="M172 0l110 574h132l-111 -574h-131zM358 958l111 574h131l-110 -574h-132z" />
<glyph unicode="&#xa7;" horiz-adv-x="1024" d="M6 -160q46 106 58 174h18q66 -184 274 -184q68 0 135.5 37t113.5 91q47 54 55 100q4 16 4 42q0 63 -37 98.5t-111 69.5l-98 48q-91 42 -144.5 74t-90.5 84t-37 126q0 30 6 64q28 138 184 246q-24 80 -24 124q0 36 4 52q20 100 82 178t152 120t192 42q166 0 252 -116 q-40 -40 -84 -118h-19q-15 74 -63 120t-116 46q-96 0 -163 -45q-44 -28 -74.5 -69.5t-38.5 -86.5q-4 -28 -4 -41q0 -104 113 -156l233 -112q138 -67 138 -207q0 -26 -6 -53q-28 -136 -168 -262q48 -68 48 -132q0 -12 -4 -32q-16 -89 -64 -165t-118 -129.5t-153 -82.5 t-173 -29q-140 0 -272 84zM256 731q0 -79 14 -100q29 -48 75.5 -78.5t131.5 -70.5l139 -64l101 -62q76 94 86 148q1 134 -131 200l-195 97q-54 26 -75.5 38.5t-39.5 38.5q-90 -70 -106 -147z" />
<glyph unicode="&#xa8;" horiz-adv-x="1024" d="M80 0l270 1394h727q-4 -13 -7.5 -23.5t-5.5 -20.5t-3 -17q-2 -10 -3.5 -30.5t-3.5 -30.5q-70 14 -180 22l-204 4h-158l-100 -514h317q36 0 102.5 5t82.5 5q-3 -12 -8.5 -27t-8.5 -25q-1 -8 -2 -28t-2 -30q-32 1 -88 6q-57 4 -93 4h-316l-118 -598q128 0 374 8 q95 3 192 19q-6 -19 -11 -34t-7 -27q-4 -16 -5 -31t-2 -31h-739zM494 1644q8 38 41 66.5t71 28.5q36 0 56 -24.5t20 -70.5q-8 -38 -42 -66t-70 -28q-34 0 -55 26t-21 68zM895 1644q8 37 41.5 66t71.5 29q34 0 55 -25q21 -26 21 -70q-8 -36 -42.5 -65t-70.5 -29 q-33 0 -54.5 25.5t-21.5 68.5z" />
<glyph unicode="&#xa9;" horiz-adv-x="1536" d="M60 557q0 73 14 139q38 196 168 364.5t316 267t382 98.5q174 0 312 -77t215 -213q77 -134 77 -300q0 -56 -14 -140q-38 -196 -169 -363.5t-319 -265t-384 -97.5q-174 0 -311 76t-212 210.5t-75 300.5zM174 580q0 -140 64 -257t179 -184t261 -67q124 0 246 49t225 136 t173.5 201.5t94.5 237.5q13 60 13 119q0 142 -65 257.5t-181 183t-262 67.5q-124 0 -246 -49.5t-224 -137t-172 -200.5q-70 -114 -94 -240q-12 -60 -12 -116zM362 604q0 42 10 96q25 125 103.5 216.5t192.5 139.5t244 48q136 0 252 -54q-26 -38 -44 -94h-8q-8 15 -37 35.5 t-75 35.5t-105 15q-97 0 -177 -45t-133 -123q-53 -80 -73 -178q-8 -42 -8 -88q0 -122 68 -189q70 -67 180 -67q82 0 142.5 22t137.5 60l-26 -78q-114 -66 -281 -65q-114 0 -195.5 37.5t-124.5 108.5t-43 167z" />
<glyph unicode="&#xab;" horiz-adv-x="1024" d="M186 459l330 379q26 -40 66 -54l-291 -323l153 -338q-54 -15 -88 -53zM479 459l330 379q25 -40 65 -54l-290 -323l154 -338q-54 -15 -89 -53z" />
<glyph unicode="&#xac;" horiz-adv-x="1241" d="M129 654l25 130h1032l-106 -552h-132l82 422h-901z" />
<glyph unicode="&#xad;" horiz-adv-x="682" d="M194 1174l21 102h545l-20 -102h-546z" />
<glyph unicode="&#xae;" horiz-adv-x="1536" d="M58 559q0 57 14 139q28 148 110.5 281t202.5 233t265.5 157t293.5 57q172 0 309 -76.5t213 -211.5q76 -134 76 -300q0 -74 -14 -140q-38 -198 -167.5 -365t-316 -265t-382.5 -98q-174 0 -312.5 76.5t-215 212t-76.5 300.5zM172 582q0 -142 65 -259t181.5 -184t263.5 -67 q166 0 323.5 85.5t267.5 230t142 310.5q13 60 13 119q0 141 -64 257t-179 182.5t-259 66.5q-165 0 -324.5 -85.5t-272.5 -229.5t-145 -310q-12 -58 -12 -116zM456 307l152 783h258q242 0 242 -136q0 -10 -4 -38q-18 -92 -101 -146t-192 -72l195 -298l44 -64l17 -29 q-14 1 -33.5 4t-33.5 3q-15 0 -37.5 -3t-34.5 -4q-4 7 -26 47q-22 42 -30 54l-112 174l-76 106h-47l-74 -381q-9 1 -24.5 4t-26.5 3q-12 0 -30 -3q-20 -3 -26 -4zM649 750h133q83 0 141.5 42t72.5 109q0 67 -27 95.5t-87 31.5h-178z" />
<glyph unicode="&#xaf;" horiz-adv-x="569" d="M90 -6l272 1400q8 0 26.5 -2t36 -3t27.5 -1q9 0 27 1.5t35.5 3t27.5 1.5l-272 -1400q-17 1 -45.5 3.5t-42.5 2.5q-16 0 -45.5 -2.5t-46.5 -3.5zM207 1644q8 37 41.5 66t71.5 29q34 0 55 -24.5t21 -70.5q-8 -38 -42 -66t-72 -28q-34 0 -54.5 25.5t-20.5 68.5zM608 1644 q8 36 41.5 65.5t71.5 29.5q35 0 55 -25q20 -26 20 -70q-8 -36 -42 -65t-70 -29q-34 0 -55 25.5t-21 68.5z" />
<glyph unicode="&#xb0;" horiz-adv-x="819" d="M200 1004q0 26 7 59q15 83 70 153.5t134 112t163 41.5q72 0 130 -33t91 -90t33 -127q0 -28 -7 -57q-16 -84 -71.5 -154.5t-134 -111.5t-161.5 -41q-111 0 -182.5 70t-71.5 178zM284 1018q0 -78 51 -129t134 -51q93 0 173 66t98 159q4 28 4 43q0 78 -53.5 130t-135.5 52 q-62 0 -118.5 -30.5t-96.5 -82t-51 -112.5q-5 -26 -5 -45z" />
<glyph unicode="&#xb1;" horiz-adv-x="1241" d="M2 0l24 131h1033l-25 -131h-1032zM114 578l26 130h450l64 326h130l-63 -326h451l-25 -130h-451l-65 -332h-131l65 332h-451z" />
<glyph unicode="&#xb2;" horiz-adv-x="569" d="M90 -6l272 1400q8 0 26.5 -2t36 -3t27.5 -1q9 0 27 1.5t35.5 3t27.5 1.5l-272 -1400q-17 1 -45.5 3.5t-42.5 2.5q-16 0 -45.5 -2.5t-46.5 -3.5z" />
<glyph unicode="&#xb3;" horiz-adv-x="569" d="M98 -6l191 979q12 -1 37.5 -4t43.5 -3t42 3t40 4l-190 -979q-16 1 -41 3.5t-39 2.5q-15 0 -42.5 -2.5t-41.5 -3.5zM336 1323q8 43 44 74t79 31q38 0 62 -27.5t24 -77.5q-9 -43 -47 -74t-78 -31q-38 0 -61 27.5t-23 77.5z" />
<glyph unicode="&#xb5;" d="M-64 -530l292 1503q12 -1 37 -4t44 -3q18 0 41.5 3t40.5 4l-107 -553q-14 -72 -14 -140q2 -100 48 -151t147 -51q141 0 215 96q74 98 102 234l109 565q12 -1 37.5 -4t44.5 -3q17 0 41 3q22 3 40 4l-190 -979q-16 1 -41 3.5t-39 2.5q-15 0 -42.5 -2.5t-41.5 -3.5l35 176 h-4q-64 -94 -157.5 -143t-201.5 -49q-99 0 -163 55l-109 -563q-18 1 -44 4q-26 2 -38 2q-14 0 -42 -3t-40 -3z" />
<glyph unicode="&#xb6;" horiz-adv-x="1638" d="M326 938q0 38 10 94q12 65 41.5 126.5t76 110.5t107.5 79q101 46 299 46h66h389l-311 -1603q-12 1 -32 3.5t-30 2.5q-12 0 -35 -2.5t-33 -3.5l300 1538h-180l-300 -1538q-12 1 -31.5 3.5t-29.5 2.5q-11 0 -33 -2.5t-35 -3.5l170 873l-75 -6q-156 0 -245 71.5t-89 208.5z M588 860q0 -143 129 -143l29 2l118 610q-80 0 -128 -29.5t-73 -80.5t-41 -129l-24 -134q-10 -55 -10 -96z" />
<glyph unicode="&#xb7;" horiz-adv-x="569" d="M160 520q11 51 55 87t94 36q44 0 70.5 -31.5t26.5 -91.5q-9 -51 -52 -86.5t-92 -35.5q-44 0 -73 33t-29 89z" />
<glyph unicode="&#xb8;" horiz-adv-x="1024" d="M49 354q1 60 13 128q28 144 104 258t194 179.5t266 65.5q74 0 135 -20.5t108 -62.5t73 -106t26 -149q0 -71 -22 -163q-208 6 -416 6h-288q-18 -72 -19 -138q0 -130 74.5 -209t216.5 -79q156 0 330 141l-23 -107q-189 -120 -375 -120q-184 0 -290.5 99t-106.5 277z M258 565h545q12 65 12 127q-1 230 -201 230q-134 0 -226 -105t-130 -252zM352 1222q8 37 41 66t72 29q35 0 55 -24.5t20 -70.5q-8 -38 -42 -66t-70 -28q-33 0 -54.5 25t-21.5 69zM754 1222q8 38 41 66.5t71 28.5q35 0 56 -25q20 -26 20 -70q-8 -36 -42 -65t-70 -29 q-33 0 -54.5 25.5t-21.5 68.5z" />
<glyph unicode="&#xb9;" horiz-adv-x="696" d="M74 641l12 61h594l-12 -61h-594zM133 1048q1 44 9 82q17 86 74 153.5t141.5 105t178.5 37.5q146 0 216 -90q42 -57 42 -140q0 -32 -6 -70q-20 -90 -80 -166q-118 -140 -310 -139q-68 0 -134 27q-50 22 -88 70q-43 54 -43 130zM248 1038q0 -79 40 -130q42 -50 126 -50 q72 0 127 46t87 109q34 63 44 119q8 32 8 80q0 77 -35 126.5t-115 49.5q-116 0 -184 -81t-90 -195q-8 -50 -8 -74z" />
<glyph unicode="&#xbb;" horiz-adv-x="1024" d="M121 123l291 323l-154 338q53 16 88 54l172 -390l-332 -378q-26 40 -65 53zM414 123l290 323l-153 338q54 16 88 54l172 -390l-332 -378q-23 40 -65 53z" />
<glyph unicode="&#xbc;" horiz-adv-x="569" d="M-194 -475l18 -4q94 0 174 129q44 73 68 154.5t44 187.5l191 981q12 -1 37.5 -4t44.5 -3q17 0 40.5 3t41.5 4l-193 -989q-28 -146 -73 -250t-139 -182q-122 -92 -252 -92zM348 1323q8 44 44 74.5t79 30.5q38 0 62 -27.5t24 -77.5q-9 -43 -46.5 -74t-78.5 -31 q-38 0 -61 28t-23 77z" />
<glyph unicode="&#xbd;" horiz-adv-x="1024" d="M6 88q38 68 76 182h20q42 -105 109 -158.5t180 -53.5q81 0 154 40t123 108t67 150q7 30 7 56q0 96 -64 144t-195 104t-198.5 117t-67.5 175q1 42 9 80q36 190 185 292t345 102q80 0 154.5 -25t119.5 -74q-36 -56 -88 -168h-20q-15 84 -72.5 131.5t-147.5 47.5 q-109 0 -196 -66q-86 -66 -108 -174q-6 -30 -7 -56q0 -96 63 -144t197.5 -105t202.5 -116t68 -169q0 -36 -8 -72q-27 -142 -115 -248t-214.5 -162t-266.5 -56q-82 0 -177 32t-135 86z" />
<glyph unicode="&#xbe;" horiz-adv-x="796" d="M-8 43q52 97 72 149h16q28 -64 83 -107.5t123 -43.5q50 0 101 24t89 67.5t48 95.5q4 28 4 36q0 68 -48 97t-150 60t-154 71q-53 40 -53 128q0 28 6 62q18 96 75.5 164t139.5 103.5t176 35.5q74 0 134 -17q62 -16 88 -36q-48 -78 -76 -146h-19q-11 53 -53 94.5t-96 41.5 q-79 0 -141 -45q-63 -45 -79 -125q-4 -24 -4 -35q0 -68 48 -98.5t151 -65.5t156 -76t53 -123q0 -26 -6 -53q-21 -104 -89.5 -177.5t-162.5 -109.5t-188 -36q-147 0 -244 65z" />
<glyph unicode="&#xbf;" horiz-adv-x="569" d="M98 -6l191 979q12 -1 37.5 -4t43.5 -3t42 3t40 4l-190 -979q-16 1 -41 3.5t-39 2.5q-15 0 -42.5 -2.5t-41.5 -3.5zM125 1222q8 38 41.5 66.5t71.5 28.5q34 0 55 -24.5t21 -70.5q-8 -38 -42 -66t-72 -28q-33 0 -54 25t-21 69zM526 1222q8 38 41.5 66.5t71.5 28.5 q34 0 55 -25q21 -26 21 -70q-8 -36 -42.5 -65t-70.5 -29q-33 0 -54.5 25t-21.5 69z" />
<glyph unicode="&#xc0;" horiz-adv-x="1327" d="M-92 -6l918 1432h46l336 -1432q-20 1 -54 3.5t-50 2.5q-20 0 -58 -2q-36 -3 -52 -4q-14 90 -29.5 179t-36 187t-41.5 187h-521q-134 -227 -190 -326t-120 -227q-14 1 -38 3.5t-36 2.5q-14 0 -38.5 -2.5t-35.5 -3.5zM422 633h450l-124 524z" />
<glyph unicode="&#xc1;" horiz-adv-x="1214" d="M84 0l270 1394h830q-12 -29 -16 -61q-6 -32 -7 -61q-110 22 -180 22l-246 4h-219l-100 -516h188q172 0 280 -28t159 -87t51 -151q0 -35 -10 -90q-23 -122 -98 -215t-189.5 -147t-254.5 -62q-92 -2 -458 -2zM280 84h206q99 0 185.5 44.5t144.5 120t75 167.5q6 34 6 63 q0 89 -52 151q-53 62 -149 70q-34 4 -122 4q-38 0 -98 -1t-74 -1z" />
<glyph unicode="&#xc2;" horiz-adv-x="1214" d="M82 0l270 1394h412q136 0 227 -21t137 -69t46 -126q0 -28 -6 -66q-28 -138 -137 -232t-259 -130q82 -6 153.5 -32t119 -82t47.5 -142q0 -32 -6 -66q-20 -107 -85 -195.5t-167 -150.5q-91 -54 -195.5 -68t-253.5 -14h-303zM276 76h206q99 0 185.5 40t144.5 113t75 164 q8 38 8 78q0 126 -97.5 177.5t-275.5 51.5h-124zM414 780h74q184 0 286 41q83 34 136.5 99.5t68.5 148.5q6 35 6 65q0 102 -77 143.5t-228 41.5h-162z" />
<glyph unicode="&#xc3;" horiz-adv-x="985" d="M82 -4l270 1398h728q-16 -55 -17 -61q-2 -13 -2.5 -21.5t-1.5 -19t-2 -20.5q-71 14 -181 22l-204 4h-158l-252 -1302q-65 4 -90 4q-33 0 -90 -4z" />
<glyph unicode="&#xc4;" horiz-adv-x="1366" d="M-125 -86q5 8 27 102q2 25 4 41.5t4 40.5h88q54 82 203 316.5t264 418t209.5 336.5t134.5 225h99q14 -64 32 -144.5t99.5 -448t106 -476.5t52.5 -227h88q-16 -48 -20 -82q-14 -72 -14 -102h-19q-20 40 -67.5 59t-116.5 23t-209 4h-500q-140 0 -213 -4t-133 -23t-104 -59 h-15zM129 98h877q-16 81 -58 282.5t-85 405.5t-57 270t-24 116h-8q-127 -198 -194.5 -306t-134 -217t-151.5 -255q-84 -148 -165 -296z" />
<glyph unicode="&#xc5;" horiz-adv-x="1024" d="M80 0l270 1394h727q-4 -13 -7.5 -23.5t-5.5 -20.5t-3 -17q-2 -10 -3.5 -30.5t-3.5 -30.5q-70 14 -180 22l-204 4h-158l-100 -514h317q36 0 102.5 5t82.5 5q-3 -12 -8.5 -27t-8.5 -25q-1 -8 -2 -28t-2 -30q-32 1 -88 6q-57 4 -93 4h-316l-118 -598q128 0 374 8 q95 3 192 19q-6 -19 -11 -34t-7 -27q-4 -16 -5 -31t-2 -31h-739z" />
<glyph unicode="&#xc6;" horiz-adv-x="1820" d="M-68 -6l2 10q62 64 199 205t305 312t254 251l-462 622q14 0 40.5 -3t38.5 -3q15 0 42 3t40 3q44 -65 140.5 -205.5t188.5 -271.5t104 -143q4 -2 17 -10q13 -6 17 -8q8 0 8 6l123 632q18 0 47.5 -3t43.5 -3t48 3t42 3l-124 -632q2 -4 8 -4q16 0 40 16q17 11 178.5 160 t293.5 272.5t202 187.5q13 0 39.5 -3t42.5 -3q12 0 38 3t41 3l-705 -622q57 -85 153.5 -246.5t182.5 -309.5q88 -148 124 -212l-2 -10q-56 6 -111 6q-62 0 -117 -6q-9 19 -74.5 141.5t-167.5 309.5t-141 257q-1 10 -25 10q-10 0 -10 -4l-139 -714q-50 6 -92 6q-20 0 -88 -6 l139 714q-35 0 -35 -6q-66 -71 -185.5 -198.5t-242.5 -258.5t-233 -251q-98 6 -113 6q-16 0 -52.5 -2.5t-62.5 -3.5z" />
<glyph unicode="&#xc7;" horiz-adv-x="1251" d="M4 80q14 20 23 41t16 42t17 48l18 8q38 -72 133 -121t193 -49q130 0 227 39.5t157 115.5t80 183q6 33 6 65q0 114 -78 179t-222 65q-45 0 -185 -6q9 11 17 45v43q88 -4 157 -4q154 0 248.5 82t118.5 211q6 29 6 59q0 98 -68 160t-198 62q-122 0 -216.5 -43.5 t-144.5 -118.5l-14 -6l-43 116q56 44 169 87t273 43q124 0 227 -32.5t163 -97.5q59 -66 59 -158q-1 -24 -7 -56q-16 -82 -67 -150t-133 -116t-190 -72q154 -10 247 -85t93 -200q0 -34 -6 -68q-27 -138 -123.5 -233t-244.5 -141.5t-329 -46.5q-96 0 -200.5 30.5t-178.5 79.5z " />
<glyph unicode="&#xc8;" horiz-adv-x="1593" d="M80 -6l272 1400q20 -6 90 -6q10 0 90 6l-206 -1068h20l1139 1068h90l-273 -1400q-50 6 -88 6q-24 0 -92 -6l220 1118h-21l-1049 -993q-76 -71 -130 -125h-62z" />
<glyph unicode="&#xc9;" horiz-adv-x="1593" d="M80 -6l272 1400q30 -6 90 -6q62 0 90 6l-206 -1068h20l1139 1068h90l-273 -1400q-50 6 -88 6q-24 0 -92 -6l220 1118h-21q-127 -120 -405 -383t-514 -487t-260 -248h-62zM582 1562l70 84q138 -100 350 -100q214 0 392 100l34 -82q-221 -116 -447 -116q-221 0 -399 114z " />
<glyph unicode="&#xca;" horiz-adv-x="1251" d="M80 -6l272 1400q8 0 26.5 -2t36 -3t27.5 -1t27 1.5l34 3t29 1.5l-122 -632q0 -4 8 -4q22 0 45 16q32 22 129 100l604 520q20 -2 42 -4t40 -2q8 0 23.5 1.5l31 3t25.5 1.5l-551 -446l-209 -176q64 -94 105 -152.5t88.5 -126t106 -152t89.5 -132.5l125 -205l-2 -10 q-21 1 -57.5 3.5t-52.5 2.5q-20 0 -59 -2.5t-59 -3.5q-44 94 -104 186l-344 522q-14 10 -26 10q-8 0 -8 -4l-140 -714q-15 1 -44.5 3.5t-43.5 2.5q-15 0 -46.5 -2.5t-45.5 -3.5z" />
<glyph unicode="&#xcb;" horiz-adv-x="1327" d="M-92 -6q34 48 151 227.5t273 425t285 455.5t171 292h96q16 -76 73 -332.5t98.5 -439.5t87 -376.5t63.5 -251.5q-12 1 -45 3.5t-51 2.5q-16 0 -48 -2.5t-54 -3.5q-5 31 -59.5 301.5t-102.5 512.5q-49 242 -74 364h-18q-113 -179 -207.5 -333.5t-188.5 -313.5t-168 -290 t-132 -241q-9 1 -35 4q-25 2 -39 2q-10 0 -35 -2.5t-41 -3.5z" />
<glyph unicode="&#xcc;" horiz-adv-x="1820" d="M-8 -6q36 98 104 295t147 432t139 422t79 251h53q40 -130 83 -263.5t90 -273t94 -265.5t106 -270q103 138 164 220t211 285.5t234 316.5q84 112 188 250h42q-21 -238 -37.5 -448t-27.5 -354t-20 -277.5t-21 -320.5q-20 1 -50 3.5t-44 2.5q-16 0 -50 -2.5t-48 -3.5 q26 232 45 420t35.5 370t21.5 266q-524 -690 -738 -1034h-22l-68 232q-34 114 -64 211t-68 211t-71 214t-55 166q-40 -129 -100 -322t-91 -295.5t-65 -228.5t-51 -210q-14 1 -36.5 3.5t-32.5 2.5q-14 0 -39 -2.5t-37 -3.5z" />
<glyph unicode="&#xcd;" horiz-adv-x="1593" d="M80 -6l272 1400q8 0 26.5 -2t36 -3t27.5 -1t27 1.5l34 3t29 1.5l-112 -587q380 -11 430 -11q90 0 222 4.5t210 6.5l112 587q10 0 28 -2t35 -3t28 -1q10 0 27 1.5l34 3t29 1.5l-273 -1400q-15 1 -44.5 3.5t-43.5 2.5q-16 0 -47 -2.5t-45 -3.5l138 704q-358 10 -428 10 q-60 0 -434 -10l-138 -704q-15 1 -44.5 3.5t-43.5 2.5q-15 0 -46.5 -2.5t-45.5 -3.5z" />
<glyph unicode="&#xce;" horiz-adv-x="1706" d="M102 528q0 90 17 166q42 218 173.5 385t322.5 257t403 90q178 0 328 -59t240 -183t90 -306q0 -62 -17 -153q-33 -168 -117.5 -308.5t-209 -240.5t-278.5 -153t-323 -53q-146 0 -262.5 38t-198.5 111.5t-125 177.5q-43 103 -43 231zM297 500q0 -149 58 -253.5t161 -156.5 q104 -53 234 -53q199 0 353.5 113.5t244.5 271.5t106 286q22 112 22 202q0 142 -63 249q-57 96 -159.5 147.5t-227.5 51.5q-178 0 -325 -85t-246 -241t-139 -362q-18 -90 -19 -170z" />
<glyph unicode="&#xcf;" horiz-adv-x="1593" d="M80 -6l272 1400h1223l-273 -1400q-15 1 -44.5 3.5t-43.5 2.5q-16 0 -47 -2.5t-45 -3.5l254 1298q-218 6 -430 6q-210 0 -432 -6l-254 -1298q-15 1 -44.5 3.5t-43.5 2.5q-15 0 -46.5 -2.5t-45.5 -3.5z" />
<glyph unicode="&#xd0;" horiz-adv-x="1175" d="M80 -6l272 1400h367q172 0 275.5 -23.5t150.5 -76t47 -139.5q0 -40 -10 -96q-22 -120 -87 -203.5t-171 -134.5t-260 -80q-46 -10 -124 -10q-36 0 -90 3t-65 3l-125 -643q-15 1 -44.5 3.5t-43.5 2.5q-15 0 -46.5 -2.5t-45.5 -3.5zM402 717q56 -5 92 -5q33 0 110 5 q156 16 259 104.5t131 226.5q6 36 6 68q0 84 -46.5 136t-140.5 61q-43 4 -157 4q-106 0 -138 -2z" />
<glyph unicode="&#xd1;" horiz-adv-x="1366" d="M94 514q0 88 18 188q32 168 116.5 303.5t208 229t274.5 142.5t313 49q224 0 422 -95q-37 -61 -74 -157l-14 -2q-16 28 -62 69t-123 74t-171 33q-136 0 -253 -51.5t-205 -141.5t-147 -208.5t-85 -252.5q-18 -91 -19 -172q0 -145 53.5 -251.5t153.5 -164t235 -57.5 q142 0 268 56.5t197 109.5l-34 -129q-197 -116 -476 -116q-142 0 -254 37t-188 108t-115 172.5t-39 226.5z" />
<glyph unicode="&#xd2;" d="M186 1272q3 10 10.5 34t8.5 27q1 11 2 31t2 30h1057q-4 -13 -7.5 -23.5t-6 -20.5t-2.5 -17q-2 -10 -3.5 -21.5t-2 -20.5t-1.5 -19q-204 24 -424 24l-254 -1302q-46 6 -88 6q-46 0 -92 -6l254 1302q-211 0 -453 -24z" />
<glyph unicode="&#xd3;" horiz-adv-x="1327" d="M180 1394q93 -6 127 -6q10 0 32.5 1.5t45.5 3t33 1.5q52 -126 110.5 -255t127 -266t138.5 -259h23q19 28 86 125t153 220.5t165 241t125 193.5q34 -6 69 -6q7 0 21.5 1.5l29 3t23.5 1.5q-36 -44 -152.5 -206t-309 -435t-333 -476t-192.5 -283q-38 6 -62 6q-45 0 -94 -6 q86 102 184 232t142 190q-46 96 -141.5 288.5t-207.5 415.5q-112 222 -143 274z" />
<glyph unicode="&#xd4;" horiz-adv-x="1820" d="M110 596q0 62 11 108q32 168 144.5 302t292.5 208t408 74l21 106q27 -6 90 -6q61 0 91 6l-21 -106q202 0 344.5 -59t215.5 -165t73 -247q0 -55 -12 -113q-32 -166 -145.5 -300.5t-295 -212t-407.5 -77.5l-25 -120q-26 6 -88 6t-92 -6l25 120q-201 0 -343.5 63t-214.5 172 t-72 247zM312 594q0 -88 30 -162t87 -128t139.5 -84t185.5 -30l200 1030q-166 0 -299.5 -68t-219 -186t-113.5 -262q-10 -46 -10 -110zM934 190q119 0 225.5 39.5t190.5 110t140 163.5t76 201q10 46 11 109q0 86 -28 159.5t-84 129.5t-139.5 87t-191.5 31z" />
<glyph unicode="&#xd5;" horiz-adv-x="1251" d="M-30 -6q34 38 100 113.5t114 129t105 119.5l293 342q-26 64 -59 145t-49 119t-52 124l-144 308q10 0 33 -2t44.5 -3t33.5 -1q11 0 33 1.5t42 3t36 1.5q18 -42 39 -94t33 -82l143 -372q46 56 99 118.5t125.5 147t128.5 153.5t98 129q18 -2 38 -4t37 -2q8 0 23 1.5t29.5 3 t23.5 1.5q-17 -14 -43 -40l-398 -436l-128 -152l323 -772q-21 1 -57 4q-36 2 -54 2q-20 0 -58 -2.5t-56 -3.5q-96 304 -232 622q-73 -84 -161.5 -192t-172 -217t-159.5 -213q-12 1 -37 3.5t-37 2.5q-14 0 -39.5 -2.5t-37.5 -3.5z" />
<glyph unicode="&#xd6;" horiz-adv-x="1593" d="M80 -6l274 1407q38 -7 88 -7t92 7l-252 -1301h852l252 1301q32 -7 88 -7q48 0 92 7l-253 -1303h115q-4 -12 -10 -34q-7 -24 -11 -48q-4 -17 -8.5 -51t-6.5 -51h-18q-19 40 -66.5 59t-117.5 23t-209 4h-295q-425 0 -606 -6z" />
<glyph unicode="&#xd7;" horiz-adv-x="1478" d="M213 842q0 31 4 47l99 505q8 0 26 -2t36 -3t28 -1t27 1.5t35 3t28 1.5l-98 -505l-5 -35q0 -94 96 -136q95 -42 223 -42q102 0 235 39.5t221 91.5l112 587q8 0 26 -2t36 -3t28 -1q9 0 26.5 1.5l35 3t28.5 1.5l-272 -1400q-17 1 -45.5 3.5t-42.5 2.5q-16 0 -46 -2.5 t-46 -3.5l137 704q-271 -128 -535 -128q-94 0 -186 30t-151.5 92t-59.5 150z" />
<glyph unicode="&#xd8;" horiz-adv-x="1820" d="M80 -6l274 1407q38 -7 88 -7q48 0 92 7l-252 -1301h456l251 1301q42 -7 88 -7q61 0 93 7l-252 -1301h454l252 1301q41 -7 88 -7q48 0 92 7l-274 -1407q-144 6 -723 6q-540 0 -727 -6z" />
<glyph unicode="&#xd9;" horiz-adv-x="1820" d="M80 -6l274 1407q38 -7 88 -7t92 7l-252 -1301h453l252 1301q42 -7 88 -7q51 0 93 7l-252 -1301h452l252 1301q32 -7 88 -7q48 0 92 7l-254 -1303h115q-4 -12 -11 -34q-6 -24 -10 -48q-4 -17 -8 -51l-6 -51h-18q-28 58 -111 72t-283 14h-405q-666 -4 -729 -6z" />
<glyph unicode="&#xda;" horiz-adv-x="1175" d="M102 0l252 1294q-116 0 -223 -22q13 30 19 61q4 41 4 61h399l-123 -632h186q174 0 277 -24t150 -76t47 -140q0 -38 -10 -96q-17 -90 -58.5 -160t-105.5 -119t-152.5 -83t-202.5 -56q-55 -10 -239 -10q-64 0 -144 1t-76 1zM299 84h203q156 16 258 105t129 227q8 50 8 72 q0 82 -46.5 133t-140.5 59q-34 4 -124 4q-36 0 -96 -1t-74 -1z" />
<glyph unicode="&#xdb;" horiz-adv-x="1630" d="M82 0l270 1394q9 0 27 -2t35.5 -3t27.5 -1t27 1.5l34 3t29 1.5l-122 -632h186q174 0 276.5 -24t149.5 -76t47 -140q0 -38 -10 -96q-34 -183 -158.5 -281.5t-360.5 -136.5q-61 -10 -276 -10q-55 0 -120.5 1t-61.5 1zM278 84h204q156 16 258 105t128 227q8 50 8 72 q0 82 -46 133t-140 59q-34 4 -125 4q-36 0 -95.5 -1t-73.5 -1zM1161 -6l273 1400q44 -6 90 -6q60 0 90 6l-272 -1400q-17 1 -45.5 3.5t-42.5 2.5q-16 0 -46 -2.5t-47 -3.5z" />
<glyph unicode="&#xdc;" horiz-adv-x="1175" d="M82 0l270 1394q42 -6 90 -6q9 0 27 1.5t35.5 3t27.5 1.5l-122 -632h186q174 0 276.5 -24t149.5 -76t47 -140q0 -38 -10 -96q-17 -90 -58.5 -160t-105 -119t-152.5 -83t-203 -56q-56 -10 -239 -10q-64 0 -143.5 1t-75.5 1zM278 84h204q156 16 258 105t128 227q8 50 8 72 q0 82 -46 133t-140 59q-34 4 -125 4q-36 0 -95.5 -1t-73.5 -1z" />
<glyph unicode="&#xdd;" horiz-adv-x="1366" d="M28 86l15 129q54 -54 158.5 -110t244.5 -56q160 0 301 79.5t239 227.5q98 146 134 338h-571q-36 0 -95 -5q-60 -5 -90 -5q2 12 9 30t8 28q2 10 2.5 27t1.5 25q31 0 90.5 -5t89.5 -5h567q6 46 6 90q0 102 -27 188t-84 150t-143.5 100t-199.5 36q-136 0 -255 -62t-171 -114 l-14 2q0 96 -12 157q238 95 458 95q190 0 337.5 -66.5t230 -194.5t82.5 -303q0 -68 -17 -160q-33 -167 -108 -302.5t-188 -232t-257.5 -147t-310.5 -50.5q-279 0 -431 116z" />
<glyph unicode="&#xde;" horiz-adv-x="2162" d="M80 -6l272 1400q36 -6 90 -6q44 0 90 6l-112 -587h192q47 143 133 257t202.5 195t253.5 124t282 43q134 0 251.5 -33t209 -99.5t144 -171t52.5 -244.5q0 -64 -16 -153q-34 -169 -118 -309t-209 -240t-279 -153t-322 -53q-146 0 -262.5 38t-198 111.5t-124.5 177.5 q-43 103 -43 231q0 90 16 166v4h-186l-138 -704q-80 6 -88 6q-15 0 -46.5 -2.5t-45.5 -3.5zM762 500q0 -149 58 -253.5t161 -157t233 -52.5q199 0 354 113.5t244 271.5q90 158 107 286q23 112 23 202q0 142 -64 249q-58 96 -160 147.5t-227 51.5q-134 0 -250.5 -48.5 t-209.5 -139.5t-157 -218.5t-94 -281.5q-18 -90 -18 -170z" />
<glyph unicode="&#xdf;" horiz-adv-x="1251" d="M-66 -6l50 51l120 115l527 534q-152 28 -252.5 107.5t-100.5 212.5q0 20 8 70q30 156 155 233t360 77h434l-273 -1400q-11 1 -41.5 3.5t-46.5 2.5q-13 0 -43 -2q-31 -3 -49 -4l134 684h-78l-201 -192l-303 -314q-105 -113 -164 -178q-16 1 -56 4q-38 2 -58 2 q-19 0 -58.5 -2.5t-63.5 -3.5zM456 1000q0 -91 58 -152t156 -82q64 -12 166 -12q26 0 59.5 1t36.5 1l108 563q-22 0 -80 2q-60 2 -92 2q-94 0 -128 -6q-232 -36 -277 -258q-7 -33 -7 -59z" />
<glyph unicode="&#xe0;" horiz-adv-x="1024" d="M28 178q0 26 7 50q21 108 83.5 167t145 83t209.5 44q95 16 139.5 28t69 36t35.5 74q6 34 6 63q0 85 -51.5 130.5t-149.5 45.5q-99 0 -172.5 -47.5t-97.5 -93.5h-22l22 114q184 112 350 113q276 1 276 -241q0 -56 -10 -103l-92 -475l-10 -66q0 -36 45 -36q25 0 61 8 l-8 -46q-48 -17 -66 -20q-36 -6 -67 -6q-59 2 -90 30t-31 95l-22 -19q-154 -128 -328 -128q-100 0 -166 55t-66 145zM203 205q-1 -139 169 -139q38 0 90 23t91 55q2 2 23 18t31.5 27t10.5 16l60 299l-76 -16q-38 -7 -113 -21.5t-130 -37t-96 -65t-54 -108.5q-6 -28 -6 -51z " />
<glyph unicode="&#xe1;" d="M47 352q1 66 19 140q57 292 133.5 466.5t196.5 269t303 130.5t477 36q-2 -10 -7.5 -26t-11.5 -37q-4 -22 -4 -59q-140 20 -309 20q-148 0 -263.5 -54t-189 -150t-96.5 -218q161 114 385 115q118 0 207 -45.5t136.5 -130.5t47.5 -201q0 -58 -12 -122q-26 -133 -107.5 -250 t-211.5 -187.5t-292 -70.5q-116 0 -207 45t-143 131q-51 84 -51 198zM226 332q0 -128 61 -209.5t190 -81.5q110 0 196.5 75.5t138.5 181.5q50 106 68 198q14 74 15 135q0 126 -54 209q-53 82 -175 82t-211 -67t-141 -171.5t-74 -222.5q-14 -75 -14 -129z" />
<glyph unicode="&#xe2;" horiz-adv-x="1024" d="M56 0l188 966h393q299 0 299 -184q0 -26 -6 -53q-16 -84 -85 -139t-171 -68q108 -20 170 -60q61 -40 61 -132q0 -28 -6 -62q-16 -86 -77 -147t-147.5 -92t-180.5 -31zM236 80h212q100 0 174 50t90 138q6 32 7 64q-1 143 -195 143h-212zM326 551h192q196 0 232 174 q4 29 4 41q0 121 -162 121h-201z" />
<glyph unicode="&#xe3;" horiz-adv-x="833" d="M53 -6l191 972h651q-4 -15 -9 -28q-6 -14 -8 -26q-2 -14 -3 -28t-3 -28q-114 22 -483 22l-172 -884q-74 6 -80 6q-14 0 -41 -2.5t-43 -3.5z" />
<glyph unicode="&#xe4;" horiz-adv-x="1024" d="M-108 -60q10 18 22 76q1 8 4.5 37t3.5 39h84q62 94 136.5 209t146 230t143.5 237t115 203q14 0 33.5 -3.5t27.5 -3.5q12 0 32 3.5t32 3.5q23 -128 78 -391.5t108 -487.5h76q-16 -50 -18 -76q-12 -58 -13 -76h-14q-42 40 -112.5 50t-213.5 10h-307q-142 0 -215.5 -10 t-132.5 -50h-16zM127 92h563q-32 244 -141 688h-15q-60 -97 -183.5 -301.5t-223.5 -386.5z" />
<glyph unicode="&#xe5;" horiz-adv-x="1024" d="M51 354q1 56 13 128q28 143 104 257.5t194 180t266 65.5q74 0 135 -20.5t108 -62.5t73.5 -106t26.5 -149q0 -69 -23 -163q-208 6 -416 6h-288q-18 -70 -18 -138q0 -130 74 -209t216 -79q157 0 330 141l-22 -107q-190 -120 -376 -120q-184 0 -290.5 99t-106.5 277z M260 565h545q12 65 12 127q-1 230 -201 230q-134 0 -226 -105t-130 -252z" />
<glyph unicode="&#xe6;" horiz-adv-x="1478" d="M-74 -6l2 10q76 70 163 153t166 158t128 122t133 126q-46 54 -104 116.5t-102.5 108.5t-100 103t-65.5 67l2 15q16 -1 40 -4t40 -3q43 0 81 7l127 -177l100 -128q11 -13 37.5 -45.5t47.5 -54t31 -21.5q12 7 22 67l70 359q38 -7 82 -7q40 0 82 7l-70 -359q0 -8 -3 -26 t-3 -25q0 -14 4 -16q12 0 66 43q56 44 94 78l153 128l193 177q36 -7 82 -7q38 0 79 7l-2 -15q-30 -23 -139.5 -102.5t-205.5 -150.5t-183 -142q29 -42 74.5 -110.5t100.5 -152t103 -154.5q49 -72 95 -142l-2 -10q-20 0 -51.5 3t-47.5 3q-18 0 -53.5 -3t-51.5 -3 q-62 112 -300 460q-22 34 -25 34q-4 0 -9 -30q-4 -30 -8 -46l-81 -418q-15 1 -41 3.5t-39 2.5q-11 0 -39 -2.5t-45 -3.5l82 418q14 68 14 72t-2 4l-37 -34q-373 -348 -481 -460q-16 0 -48.5 3t-52.5 3q-15 0 -48.5 -3t-53.5 -3z" />
<glyph unicode="&#xe7;" horiz-adv-x="909" d="M-8 43q52 97 72 149h16q52 -152 234 -151q100 0 175 61t93 154q6 30 6 51q0 80 -52 123t-143 43q-39 0 -141 -4l16 88q56 -4 140 -4q78 0 137 52.5t73 129.5q4 29 4 39q0 66 -42 107t-111 41q-157 0 -235 -136h-19q-7 87 -23 146q102 53 308 53q130 0 216.5 -52.5 t86.5 -152.5q-1 -16 -5 -45q-16 -85 -85.5 -143t-163.5 -72q99 -12 162 -60t63 -140q0 -24 -6 -56q-28 -138 -165.5 -212t-301.5 -74q-212 0 -309 65z" />
<glyph unicode="&#xe8;" d="M53 -6l191 979q26 -7 82 -7q54 0 82 7q-8 -39 -28 -142t-45 -234t-41 -217q-18 -86 -24 -120q364 327 715 713h82l-191 -979q-13 1 -39.5 3.5t-40.5 2.5t-41 -2.5t-43 -3.5l140 712q-113 -104 -197.5 -184t-180.5 -174.5t-179 -181t-160 -172.5h-82z" />
<glyph unicode="&#xe9;" d="M53 -6l191 979q40 -7 82 -7t82 7q-6 -33 -21 -110.5l-36 -186t-43 -222t-38 -194.5q364 327 715 713h82l-191 -979q-13 1 -39.5 3.5t-40.5 2.5q-40 0 -84 -6l140 712q-113 -104 -197.5 -184t-180.5 -174.5t-179 -181t-160 -172.5h-82zM346 1159l56 70q112 -82 286 -82 t322 82l26 -68q-180 -96 -364 -96q-177 0 -326 94z" />
<glyph unicode="&#xea;" horiz-adv-x="1024" d="M58 -6l190 979q12 -1 37 -4t45 -3q18 0 42 3t40 4l-70 -359q0 -8 -4.5 -26t-5.5 -25q0 -10 8 -16q60 1 200 121l154 128l193 177q12 -1 37.5 -4t43.5 -3q16 0 40 3q22 3 40 4l-2 -15q-30 -23 -144.5 -106.5t-212 -156.5t-171.5 -132q29 -42 87 -129t100.5 -152 t90.5 -136.5t95 -141.5l-2 -10q-20 1 -51 4q-32 2 -48 2q-19 0 -52.5 -2.5t-51.5 -3.5q-62 112 -301 460q-24 34 -41 34q-26 0 -41 -76l-82 -418q-16 1 -41.5 3.5t-37.5 2.5q-15 0 -43.5 -2.5t-40.5 -3.5z" />
<glyph unicode="&#xeb;" horiz-adv-x="985" d="M-82 -8q95 142 202 307t221.5 352.5t184.5 319.5q58 -7 62 -7q10 0 64 7q19 -106 56.5 -290.5t79.5 -373.5t74 -315l-42 3.5t-48 2.5q-14 0 -43 -2.5t-49 -3.5q-15 142 -57.5 362t-94.5 426q-32 -28 -118 -168l-111 -178l-250 -442q-10 1 -31 4q-20 2 -32 2 q-10 0 -33 -2.5t-35 -3.5z" />
<glyph unicode="&#xec;" horiz-adv-x="1366" d="M-35 -6q88 205 330 977h55q148 -476 281 -762q46 58 118.5 155.5t146.5 200t151.5 210.5t138.5 196h55q-14 -180 -26.5 -355.5t-24.5 -338.5t-22 -283q-14 1 -44 4q-28 2 -44 2q-14 0 -43.5 -2.5t-49.5 -3.5q58 396 76 668q-242 -298 -500 -668h-47q-52 170 -114 342 t-128 326q-30 -90 -62 -187t-59 -185t-45 -154t-34 -142q-4 0 -20 3t-30 3q-10 0 -26.5 -2.5t-32.5 -3.5z" />
<glyph unicode="&#xed;" d="M53 -6l191 979q36 -7 82 -7q44 0 82 7l-80 -412q38 -2 112 -6q76 -4 134 -4t134.5 4t115.5 6l79 412q8 0 35.5 -3.5t46.5 -3.5q41 0 82 7l-191 -979q-13 1 -39.5 3.5t-40.5 2.5q-40 0 -84 -6l95 475q-38 2 -113.5 4t-134.5 2t-134 -2.5t-113 -3.5l-95 -475 q-13 1 -39.5 3.5t-40.5 2.5t-41 -2.5t-43 -3.5z" />
<glyph unicode="&#xee;" d="M47 352q1 66 19 140q28 145 117 257t220 174t277 62q118 0 207 -45.5t136.5 -130.5t47.5 -201q0 -58 -12 -122q-26 -133 -107.5 -250t-211.5 -187.5t-292 -70.5q-116 0 -207 45t-143 131q-51 84 -51 198zM226 332q0 -128 61 -209.5t190 -81.5q110 0 196.5 75.5 t138.5 181.5q50 106 68 198q14 74 15 135q0 126 -54 209q-53 82 -175 82t-211 -67t-141 -171.5t-74 -222.5q-14 -75 -14 -129z" />
<glyph unicode="&#xef;" d="M53 -6l191 977q64 -1 189 -3t225 -2q98 0 222 2t187 3l-191 -977q-13 1 -39.5 3.5t-40.5 2.5t-41 -2.5t-43 -3.5l172 882h-495l-172 -882q-40 6 -80 6q-14 0 -42.5 -2.5t-41.5 -3.5z" />
<glyph unicode="&#xf0;" d="M-70 -530l291 1503q14 -1 38.5 -4t43.5 -3q17 0 41 3t41 4l-37 -195h4q58 88 143 149.5t245 61.5t244.5 -101.5t84.5 -259.5q0 -64 -10 -112q-24 -124 -75.5 -224t-124.5 -171t-161 -107t-186 -36q-212 0 -276 196h-4l-138 -704q-18 1 -44 4q-26 2 -38 2q-15 0 -42.5 -3 t-39.5 -3zM272 334q0 -124 58.5 -197t179.5 -73q98 0 173 59t122 159t71 226q14 68 15 141q1 254 -219 254q-158 0 -256 -135.5t-132 -311.5q-12 -64 -12 -122z" />
<glyph unicode="&#xf1;" horiz-adv-x="985" d="M51 368q1 54 13 118q46 233 219 366t407 133q186 0 310 -84l-74 -135h-16q-30 54 -44 68q-27 39 -78.5 60.5t-107.5 21.5q-113 0 -204.5 -58t-149.5 -154q-59 -96 -80 -208q-12 -63 -12 -121q0 -150 78 -239t218 -89q82 0 152 33t158 100l12 -6l-28 -94 q-162 -102 -334 -102q-143 0 -241.5 49.5t-148.5 137.5q-49 87 -49 203z" />
<glyph unicode="&#xf2;" horiz-adv-x="909" d="M84 856q16 48 16 56q0 6 6 54h869q-15 -46 -17 -54q-2 -14 -3 -28t-3 -28q-112 18 -348 18l-172 -880q-74 6 -80 6q-15 0 -42.5 -2.5t-41.5 -3.5l172 880q-229 0 -356 -18z" />
<glyph unicode="&#xf3;" horiz-adv-x="1024" d="M-12 -530q166 236 376 532l-224 971q12 -1 43 -4t55 -3q20 0 47.5 3t48.5 4q25 -182 64.5 -372.5t93.5 -387.5q186 270 454 760q32 -7 68 -7q34 0 66 7q-156 -241 -274.5 -423t-236 -366t-225.5 -358t-217 -356q-16 1 -37.5 3.5t-31.5 2.5q-12 0 -36 -3t-34 -3z" />
<glyph unicode="&#xf4;" horiz-adv-x="1593" d="M56 346q0 78 18 170q24 125 91 232.5t168 172t218 64.5q94 0 151 -29q58 -30 82 -76l98 508q44 -6 80 -6q40 0 84 6l-98 -508q92 104 270 105q148 0 229 -99.5t81 -254.5q0 -54 -12 -115q-24 -124 -72 -224.5t-116 -171t-152 -106.5t-182 -36q-146 0 -202 108l-118 -616 q-46 6 -82 6t-82 -6l118 616q-100 -108 -241 -108q-160 0 -245.5 96t-85.5 272zM232 314q0 -250 190 -250q61 0 122 30t103 82q24 98 45.5 205.5t40.5 208.5t31 188q-18 56 -65 88.5t-113 32.5q-129 0 -215.5 -115.5t-118.5 -281.5q-20 -112 -20 -188zM811 176 q20 -52 69.5 -82t110.5 -30q137 0 220 120t122 318q13 69 13 137q0 118 -47 189t-148 71q-66 0 -123.5 -32.5t-99.5 -88.5q-78 -330 -117 -602z" />
<glyph unicode="&#xf5;" horiz-adv-x="1024" d="M-41 -6l4 20q109 108 229 229t230 234l-276 496q14 -1 47 -4t57 -3q22 0 53 3t51 4q30 -80 89.5 -197.5t101.5 -183.5l143 148l217 233q10 -1 32 -4t38 -3t36.5 3t34.5 4q-123 -110 -238.5 -219.5t-225.5 -221.5l280 -518l-4 -20q-18 1 -49 3.5t-45 2.5q-16 0 -48 -2.5 t-50 -3.5q-84 208 -207 422q-253 -268 -377 -422q-12 1 -31 3.5t-29 2.5q-12 0 -32.5 -2.5t-30.5 -3.5z" />
<glyph unicode="&#xf6;" d="M56 0l188 973q6 0 34 -3.5t48 -3.5q42 0 82 7l-170 -881q37 -1 109.5 -2.5t131.5 -1.5q62 0 138.5 1.5t115.5 2.5l170 881q32 -7 82 -7q18 0 45.5 3t36.5 4l-170 -881h105q-16 -56 -19 -76q-8 -36 -12 -76h-15q-42 40 -112 50t-213 10h-575z" />
<glyph unicode="&#xf7;" horiz-adv-x="1063" d="M112 555q0 12 4 41l72 377q8 0 35 -3.5t47 -3.5q18 0 43 3t39 4l-72 -371q0 -137 179 -137q130 0 276 96l80 412q8 0 35.5 -3.5t46.5 -3.5q41 0 82 7l-191 -979q-10 1 -38 3.5t-42 2.5q-40 0 -84 -6l95 475q-80 -46 -172.5 -72.5t-167.5 -26.5q-91 0 -179 43.5t-88 141.5 z" />
<glyph unicode="&#xf8;" horiz-adv-x="1478" d="M56 0l188 973q26 -7 82 -7q54 0 82 7l-170 -881q24 -1 70 -2.5t85 -1.5q44 0 98.5 1.5t82.5 2.5l170 881q22 -7 82 -7q52 0 82 7l-170 -881q26 -1 76 -2.5t91 -1.5t92 1.5t76 2.5l170 881q22 -7 82 -7q58 0 82 7l-189 -973h-1162z" />
<glyph unicode="&#xf9;" horiz-adv-x="1478" d="M56 0l188 973q6 0 34 -3.5t48 -3.5q44 0 82 7l-170 -881q25 0 75 -1q51 -1 91 -1q42 0 93 1t77 1l170 881q26 -7 82 -7q40 0 82 7l-170 -881q26 0 77 -1t93 -1q40 0 90 1t75 1l170 881q32 -7 82 -7q18 0 45.5 3t36.5 4l-170 -881h105q-16 -56 -19 -76q-7 -28 -13 -76h-14 q-42 40 -112 50t-213 10h-915z" />
<glyph unicode="&#xfa;" horiz-adv-x="948" d="M49 860q13 36 17 54q4 37 4 57q62 -3 168.5 -4t171.5 -1l-78 -401h242q130 0 208 -55.5t78 -163.5q0 -30 -6 -64q-16 -78 -82 -143t-155 -102t-173 -37h-386l170 876q-80 0 -104 -2t-75 -14zM238 86q51 -2 91.5 -3t57.5 -1q62 0 125.5 24t108.5 70t57 106q4 18 4 50 q0 78 -53 115t-137 37h-176z" />
<glyph unicode="&#xfb;" horiz-adv-x="1327" d="M56 0l188 973q32 -7 84 -7q48 0 80 7l-78 -408h242q127 0 206.5 -56.5t79.5 -164.5q0 -30 -6 -62q-16 -77 -81.5 -142.5t-155.5 -102.5q-91 -37 -173 -37h-386zM236 86q28 -2 75.5 -3t73.5 -1q62 0 125.5 24t108.5 70t57 106q4 18 4 50q0 78 -53 115t-137 37h-176z M901 -6l191 979q36 -7 82 -7q44 0 82 7l-191 -979q-13 1 -40 3.5t-40 2.5q-14 0 -41 -2.5t-43 -3.5z" />
<glyph unicode="&#xfc;" horiz-adv-x="948" d="M56 0l188 973q30 -7 84 -7t80 7l-78 -408h242q130 0 208 -55.5t78 -163.5q0 -30 -6 -64q-16 -77 -81.5 -142.5t-155.5 -102.5q-91 -37 -173 -37h-386zM236 86q48 -2 89.5 -3t59.5 -1q62 0 125.5 24t108.5 70t57 106q4 18 4 50q0 78 -53 115t-137 37h-176z" />
<glyph unicode="&#xfd;" horiz-adv-x="985" d="M-4 80l8 94l12 6q64 -68 120 -100q54 -33 136 -33q106 0 201 54t161.5 151.5t94.5 222.5h-197q-59 0 -131.5 -2.5t-109.5 -3.5l16 92q36 -2 108.5 -6t131.5 -4h195q2 18 2 53q0 90 -30.5 160t-93.5 111t-157 41q-56 0 -116.5 -22t-102.5 -60q-16 -12 -68 -68h-16l-20 135 q151 84 337 84q134 0 232.5 -44.5t152.5 -131t54 -207.5q0 -56 -13 -116q-28 -146 -108.5 -261t-210.5 -181t-295 -66q-176 0 -293 102z" />
<glyph unicode="&#xfe;" horiz-adv-x="1517" d="M53 -6l191 979q17 0 42 -3q26 -4 40 -4t38 3.5t44 3.5l-80 -412h133q42 126 131 222.5t211.5 149t255.5 52.5q118 0 207 -45.5t136.5 -130.5t47.5 -201q0 -60 -12 -122q-19 -98 -69.5 -189.5t-130.5 -164t-184 -113.5t-226 -41q-116 0 -207.5 46t-142 133t-50.5 201 q0 62 10 109l-126 2l-95 -475q-16 0 -41.5 3t-38.5 3q-14 0 -42.5 -3t-41.5 -3zM604 332q0 -128 61 -209.5t191 -81.5q110 0 196 75t138 181q52 107 70 199q14 78 14 135q0 126 -54 208.5t-176 82.5t-210.5 -67t-141 -171.5t-74.5 -222.5q-14 -78 -14 -129z" />
<glyph unicode="&#xff;" horiz-adv-x="1024" d="M-28 -6l388 416q-90 16 -163.5 67t-73.5 166q0 19 8 69q14 73 62.5 131.5t117.5 90.5t141 32h500l-190 -972q-12 2 -35 4t-43 2t-46 -2t-40 -4l80 408h-150l-368 -408q-14 2 -42 4t-50 2q-23 0 -52.5 -2t-43.5 -4zM289 643q0 -98 89.5 -128.5t223.5 -30.5h92l78 400 q-74 2 -240 3q-85 0 -152.5 -54.5t-86.5 -148.5q-4 -29 -4 -41z" />
<glyph unicode="&#x2000;" horiz-adv-x="869" />
<glyph unicode="&#x2001;" horiz-adv-x="1739" />
<glyph unicode="&#x2002;" horiz-adv-x="869" />
<glyph unicode="&#x2003;" horiz-adv-x="1739" />
<glyph unicode="&#x2004;" horiz-adv-x="579" />
<glyph unicode="&#x2005;" horiz-adv-x="434" />
<glyph unicode="&#x2006;" horiz-adv-x="289" />
<glyph unicode="&#x2007;" horiz-adv-x="289" />
<glyph unicode="&#x2008;" horiz-adv-x="217" />
<glyph unicode="&#x2009;" horiz-adv-x="347" />
<glyph unicode="&#x200a;" horiz-adv-x="96" />
<glyph unicode="&#x2010;" horiz-adv-x="682" d="M58 389l24 127h512l-24 -127h-512z" />
<glyph unicode="&#x2011;" horiz-adv-x="682" d="M58 389l24 127h512l-24 -127h-512z" />
<glyph unicode="&#x2012;" horiz-adv-x="682" d="M58 389l24 127h512l-24 -127h-512z" />
<glyph unicode="&#x2013;" horiz-adv-x="1024" d="M-24 404l20 98h1034l-20 -98h-1034z" />
<glyph unicode="&#x2014;" horiz-adv-x="2048" d="M-24 404l20 98h2048l-20 -98h-2048z" />
<glyph unicode="&#x2018;" horiz-adv-x="569" d="M217 916q4 21 14.5 39.5t24.5 35.5q12 17 26 33l320 402l33 -15l-231 -455q-30 -55 -54 -85.5t-64 -30.5q-70 0 -69 76z" />
<glyph unicode="&#x2019;" horiz-adv-x="569" d="M170 854l232 454q28 56 53 87t63 31q70 0 70 -76q-8 -36 -66 -109l-319 -401z" />
<glyph unicode="&#x201a;" horiz-adv-x="569" d="M-64 -330l232 455q28 54 53 85.5t63 31.5q70 0 70 -76q-8 -42 -68 -108l-319 -402z" />
<glyph unicode="&#x201c;" horiz-adv-x="909" d="M209 916q5 35 65 108l320 402l32 -15l-230 -455q-33 -59 -55.5 -87.5t-62.5 -28.5q-70 0 -69 76zM557 916q5 35 65 108l320 402l33 -15l-231 -455q-30 -55 -54 -85.5t-64 -30.5q-70 0 -69 76z" />
<glyph unicode="&#x201d;" horiz-adv-x="909" d="M170 854l232 454q28 56 53 87t63 31q70 0 70 -76q-8 -36 -66 -109l-319 -401zM518 854l232 454q28 56 53 87t63 31q70 0 70 -76q-5 -28 -20.5 -50t-45.5 -59l-319 -401z" />
<glyph unicode="&#x201e;" horiz-adv-x="909" d="M-64 -330l232 455q28 54 53 85.5t63 31.5q70 0 70 -76q-8 -42 -68 -108l-319 -402zM284 -330l232 455q28 54 53 85.5t64 31.5q69 0 69 -76q-8 -40 -67 -108l-319 -402z" />
<glyph unicode="&#x2022;" horiz-adv-x="1241" d="M301 641q0 37 4 57q22 96 85.5 176t152 126t182.5 46q83 0 148 -36t101 -100t36 -142q0 -21 -8 -70q-18 -96 -80 -175.5t-150 -126t-182 -46.5q-84 0 -150 38t-102.5 105t-36.5 148z" />
<glyph unicode="&#x2026;" horiz-adv-x="2048" d="M137 100q10 50 53.5 86.5t93.5 36.5q44 0 71.5 -32.5t27.5 -90.5q-10 -50 -53.5 -86t-91.5 -36q-46 0 -73.5 32t-27.5 90zM819 100q10 50 53.5 86.5t93.5 36.5q44 0 71.5 -32.5t27.5 -90.5q-10 -50 -53.5 -86t-91.5 -36q-46 0 -73.5 32t-27.5 90zM1501 100 q10 50 53.5 86.5t93.5 36.5q44 0 71.5 -32.5t27.5 -90.5q-10 -50 -53.5 -86t-91.5 -36q-46 0 -73.5 32t-27.5 90z" />
<glyph unicode="&#x202f;" horiz-adv-x="347" />
<glyph unicode="&#x2039;" horiz-adv-x="682" d="M162 459l330 379q26 -40 65 -54l-291 -323l154 -338q-54 -15 -88 -53z" />
<glyph unicode="&#x203a;" horiz-adv-x="682" d="M96 123l291 323l-153 338q54 16 88 54l172 -390l-332 -378q-26 40 -66 53z" />
<glyph unicode="&#x205f;" horiz-adv-x="434" />
<glyph unicode="&#x2122;" horiz-adv-x="1945" d="M258 1323l12 71h627l-13 -71q-148 15 -251 15l-151 -775q-10 1 -25.5 4t-26.5 3q-12 0 -30 -3t-25 -4l151 775q-100 0 -268 -15zM882 563q58 162 158 460.5t121 370.5h31q53 -166 80.5 -250t63.5 -185t77 -201q69 92 132 177t102 138t98.5 133t140.5 188h25 q-10 -122 -15.5 -184t-16.5 -210t-19 -271t-10 -166q-11 1 -27.5 4t-28.5 3q-14 0 -32 -3t-28 -4q54 451 60 627q-300 -398 -436 -612h-12l-42 137q-19 65 -42.5 138t-58.5 179t-52 158q-30 -99 -42.5 -140.5t-51.5 -170.5t-56 -190t-33 -126q-10 2 -19 3.5l-21 3.5 q-9 0 -23 -3q-15 -3 -23 -4z" />
<glyph unicode="&#xe000;" horiz-adv-x="972" d="M0 0v972h972v-972h-972z" />
</font>
</defs>
</svg>
