<?xml version="1.0" standalone="no"?>
<!DOCTYPE svg PUBLIC "-//W3C//DTD SVG 1.1//EN" "http://www.w3.org/Graphics/SVG/1.1/DTD/svg11.dtd" >
<svg xmlns="http://www.w3.org/2000/svg">
<metadata></metadata>
<defs>
<font id="agoptimacyr-boldbold" horiz-adv-x="1024" >
<font-face units-per-em="2048" ascent="1638" descent="-410" />
<missing-glyph horiz-adv-x="500" />
<glyph horiz-adv-x="2048" />
<glyph horiz-adv-x="2048" />
<glyph unicode="&#xd;" horiz-adv-x="0" />
<glyph unicode=" " />
<glyph unicode="!" horiz-adv-x="682" d="M172 1270q0 70 50 116t120 46q78 0 122 -48t44 -126q0 -60 -52 -316l-42 -234q-36 -192 -46 -256h-56q-21 102 -34 170.5t-26.5 142t-25.5 143.5t-23 122q-31 150 -31 240zM176 140q0 44 23 82t62 61.5t83 23.5q68 0 118 -49.5t50 -117.5q0 -70 -49.5 -119t-118.5 -49 q-68 0 -118 50t-50 118z" />
<glyph unicode="&#x22;" horiz-adv-x="682" d="M94 1317q0 59 19 87t63 28q42 0 60 -36t18 -128v-346q0 -124 -78 -124q-42 0 -61 28t-19 96v346q-2 18 -2 49zM430 922v346q0 90 19 127t61 37t60 -36t18 -128v-346q0 -124 -78 -124q-46 0 -63 26t-17 98z" />
<glyph unicode="#" horiz-adv-x="1138" d="M66 436v152h235l33 215h-211v151h233l62 406h154l-62 -406h219l59 406h154l-60 -406h191v-151h-213l-32 -215h192v-152h-215l-65 -436h-154l66 436h-222l-66 -436h-153l65 436h-210zM454 588h220l32 215h-218z" />
<glyph unicode="$" horiz-adv-x="1138" d="M76 966q0 144 77 240t217 142q58 18 126 24v164q41 -4 59 -4q21 0 59 4v-164q237 -14 361 -110q-51 -108 -76 -205h-29q-28 86 -98 143q-70 58 -158 70v-442q134 -29 231 -75.5t156.5 -130.5t59.5 -212q0 -120 -61.5 -218t-164.5 -155t-221 -65v-222q-34 6 -65 6 q-15 0 -53 -4v220q-258 18 -408 134q8 40 27 120t25 122h38q28 -106 117 -180t201 -94v485q-134 26 -225 68.5t-143 124.5q-52 80 -52 214zM318 1065q0 -82 46 -129.5t132 -73.5v408q-80 -9 -129 -65t-49 -140zM614 74q35 0 84.5 28t85 80t35.5 119q0 66 -36.5 116.5 t-84.5 78.5q-48 26 -84 30v-452z" />
<glyph unicode="%" horiz-adv-x="2048" d="M205 1032q0 98 47.5 175.5t128.5 121t178 43.5q88 0 166.5 -37t126 -109t47.5 -167q0 -108 -46.5 -190t-129.5 -126.5t-187 -44.5q-74 0 -135.5 24t-105 68t-67 105t-23.5 137zM410 1028q0 -113 25 -188.5t112 -75.5q92 0 119.5 87.5t27.5 207.5q0 247 -137 247 q-147 0 -147 -278zM598 -62l710 1484q16 -2 50 -2q42 0 62 2l-714 -1484q-16 2 -48 2q-39 0 -60 -2zM1149 305q0 98 47.5 175.5t128.5 121t178 43.5q89 0 167 -37.5t125.5 -108t47.5 -167.5q0 -108 -46.5 -190t-129.5 -126t-187 -44q-74 0 -135.5 23t-105 67t-67 105.5 t-23.5 137.5zM1354 301q0 -70 7.5 -125.5t38 -97t91.5 -41.5q92 0 119.5 88t27.5 207q0 248 -137 248q-147 0 -147 -279z" />
<glyph unicode="&#x26;" horiz-adv-x="1478" d="M84 312q0 258 364 421l-53 79.5t-52.5 89.5t-31.5 85t-12 95q0 93 53.5 164.5t140.5 109.5t179 38q82 0 159 -25t128 -81t51 -141q0 -110 -71 -191.5t-189 -157.5l22 -28l297 -360q70 82 128 177t116 211l113 -116q-144 -206 -286 -354q11 -12 50.5 -56t82 -92t72 -80 t77.5 -84v-26q-164 10 -195 10t-195 -10l-104 145q-84 -74 -206 -123q-120 -49 -228 -49q-174 1 -296 99q-114 94 -114 250zM352 408q0 -92 66 -176q48 -62 133 -95q35 -14 111 -14q53 0 113.5 24.5t94.5 59.5q-182 213 -362 447q-156 -104 -156 -246zM563 1147 q0 -60 33 -120q32 -61 94 -155q62 48 111 124t49 142q0 63 -39 110.5t-101 47.5q-69 0 -108 -40t-39 -109z" />
<glyph unicode="'" horiz-adv-x="569" d="M207 922v346q0 90 18.5 127t60.5 37t60 -36t18 -128v-346q0 -124 -78 -124q-42 0 -60.5 28t-18.5 96z" />
<glyph unicode="(" horiz-adv-x="682" d="M133 643q0 148 26.5 274t79.5 234.5t133 205.5t189 189l53 -55q-76 -86 -128 -189t-82 -214.5t-42 -228.5t-12 -243q0 -522 262 -829l-55 -53q-110 94 -189 191.5t-131.5 207t-78 235t-25.5 275.5z" />
<glyph unicode=")" horiz-adv-x="682" d="M68 -211q76 86 128 188.5t81.5 212.5t42 229t12.5 245q0 522 -262 829l55 53q109 -92 189 -191t132 -207t77.5 -235t25.5 -276q0 -147 -26.5 -273t-79.5 -234t-133 -205t-189 -191z" />
<glyph unicode="*" horiz-adv-x="909" d="M98 887l270 123l-270 108q50 66 82 142l226 -172l-29 284q61 -4 79 -4t80 4l-32 -284l223 176q38 -80 84 -142l-262 -112l262 -109q-34 -51 -82 -145l-225 164l32 -279q-16 0 -45 1t-43 1q-45 0 -71 -2l29 279l-218 -172q-20 36 -35 62t-24 40z" />
<glyph unicode="+" horiz-adv-x="1241" d="M104 434v176h428v424h176v-424h428v-176h-428v-434h-176v434h-428z" />
<glyph unicode="," horiz-adv-x="569" d="M45 -364l92 378q35 141 59 199q22 50 51 72t81 22q58 0 97.5 -37.5t39.5 -89.5q-1 -34 -21 -66q-56 -84 -112 -165.5t-107.5 -153.5t-130.5 -182z" />
<glyph unicode="-" horiz-adv-x="682" d="M86 346v219h512v-219h-512z" />
<glyph unicode="." horiz-adv-x="569" d="M116 140q0 68 50 118q48 49 116 49q44 0 84 -22.5t63 -61.5t23 -83q0 -70 -49 -119t-121 -49q-68 0 -117 50t-49 118z" />
<glyph unicode="/" horiz-adv-x="796" d="M4 -264l616 1810q42 -6 86 -6q42 0 86 6l-616 -1810q-42 6 -86 6q-42 0 -86 -6z" />
<glyph unicode="0" horiz-adv-x="1138" d="M80 672q0 122 25 257t73 218q136 225 398 225q178 0 286 -92.5t151.5 -238.5t43.5 -324q0 -124 -10 -224.5t-43.5 -197t-98.5 -172.5q-129 -151 -335 -151q-88 0 -158 22t-126 70q-58 48 -100 124q-61 107 -84 222q-22 116 -22 262zM383 647q0 -210 12.5 -331t54 -186.5 t122.5 -65.5q72 0 112 69t55 201t15 342q0 226 -16.5 356t-55 189t-106.5 59q-78 0 -120 -70t-57.5 -206t-15.5 -357z" />
<glyph unicode="1" horiz-adv-x="1138" d="M129 1126v17q144 46 282.5 106.5t307.5 144.5l16 -10v-1394q-118 10 -141 10q-24 0 -142 -10v1157q-114 -66 -239 -123q-30 52 -84 102z" />
<glyph unicode="2" horiz-adv-x="1138" d="M94 1112q32 88 98 147t152 86t180 27q129 0 236 -38t172.5 -123t65.5 -215q0 -142 -76 -250q-66 -97 -184 -197q-220 -186 -322 -289l2 -10h262q104 0 318 16q-10 -118 -11 -133q0 -28 4.5 -69.5t6.5 -63.5h-902v88q138 130 225.5 217t174 199t142.5 236t56 247 q0 74 -23.5 140.5t-75 109.5t-128.5 43q-96 0 -144.5 -96t-48.5 -203l-20 -4q-74 91 -160 135z" />
<glyph unicode="3" horiz-adv-x="1138" d="M86 129q92 116 127 176l27 -2q16 -106 70 -172.5t155 -66.5q71 0 126 44t84 112t29 136q0 176 -70 236t-194 60q-50 0 -74 -3v103q37 -4 52 -4q231 0 231 288q0 58 -15.5 114t-53.5 93q-36 37 -96 37q-96 0 -138 -64t-62 -180l-28 -2q-97 102 -137 138q67 112 168 156 t239 44q200 0 314 -85t114 -228q0 -124 -66 -197q-66 -74 -190 -118l-26 -11q-4 -8 -4 -10q0 -7 10 -11t24.5 -6t26.5 -4q82 -22 113.5 -33t71.5 -41t67 -89t27 -154q0 -122 -72 -216.5t-193 -145.5t-261 -51q-278 0 -396 157z" />
<glyph unicode="4" horiz-adv-x="1138" d="M70 332q10 86 10 98t-10 98q80 113 328 486q60 89 125 184.5t110 173.5q108 -10 127 -10q20 0 127 10v-821h170q-11 -87 -11 -109q0 -26 11 -110h-170v-342q-119 10 -141 10t-142 -10v342h-534zM215 563l11 -12h378v596z" />
<glyph unicode="5" horiz-adv-x="1138" d="M66 86q58 82 102 209h28q24 -96 80 -163.5t144 -67.5q133 0 194 100q62 100 62 238q0 120 -70 208q-72 86 -172 86t-178 -82l-49 29l33 717h682q-10 -102 -10 -121q0 -20 10 -123h-588l-16 -354l12 -6q88 48 206 47q198 -1 314 -99q129 -112 129 -282 q0 -102 -48.5 -191.5t-134.5 -150.5q-48 -36 -110 -60t-130 -36t-130 -12q-212 0 -360 114z" />
<glyph unicode="6" horiz-adv-x="1138" d="M76 540q0 134 29 271t94 257t163 196q74 56 167 82t192 26q61 0 103 -10q4 -18 19 -46t17 -34l-12 -20q-50 18 -123 18q-131 0 -231 -129q-29 -37 -45.5 -72t-26.5 -74t-22 -89q-16 -62 -25 -195l14 -9q44 48 105.5 76.5t125.5 28.5q118 0 214 -47.5t151 -136.5t55 -209 q0 -133 -64.5 -236.5t-175 -159.5t-243.5 -56q-48 0 -114.5 14t-104.5 32q-96 48 -156 136q-106 158 -106 386zM379 406q0 -342 174 -342q66 0 107.5 51t59.5 122t18 135q0 125 -40 225.5t-147 100.5q-95 0 -133.5 -90t-38.5 -202z" />
<glyph unicode="7" horiz-adv-x="1138" d="M129 -10q119 179 253 389t247 396q113 187 188 323l-682 -18q11 110 11 140t-11 140h934l15 -39q-98 -166 -191 -331.5t-182 -336t-165 -331t-150 -332.5q-114 10 -134 10t-133 -10z" />
<glyph unicode="8" horiz-adv-x="1138" d="M82 372q0 86 36 166t101 135t149 69v14q-101 20 -169 100t-68 182q0 114 62.5 189.5t162.5 110.5q100 34 212 34q98 0 169 -16t135 -60q136 -94 136 -239q0 -75 -29 -136.5t-82 -104t-125 -60.5v-14q86 -14 149.5 -63t98 -122t34.5 -157q0 -98 -36.5 -177.5 t-102.5 -135.5t-155 -85q-88 -30 -190 -30q-212 0 -344 96q-69 52 -106 134q-38 80 -38 170zM385 381q0 -115 42 -216q43 -101 143 -101q65 0 105.5 52t58.5 125t18 136q0 61 -13 133q-13 70 -39 110q-52 82 -135 82q-32 0 -61 -14q-66 -30 -92.5 -120.5t-26.5 -186.5z M412 1018q0 -104 34 -162q46 -80 122 -80q88 0 123.5 82t35.5 182q1 240 -159 240q-156 0 -156 -262z" />
<glyph unicode="9" horiz-adv-x="1138" d="M88 903q0 79 12 138t42 111t84 106q116 114 316 114q262 0 392 -168q114 -154 114 -399q0 -349 -155 -579q-50 -77 -129.5 -135.5t-172.5 -88.5t-187 -30q-66 0 -118 16q-12 6 -21.5 8t-13 6t-7.5 18q-20 60 -46 109l15 15q110 -80 180 -80q120 0 198.5 86t115.5 209.5 t43 244.5v20l-15 7q-44 -50 -109.5 -77.5t-133.5 -27.5q-84 0 -157 26t-129 76t-87 121t-31 154zM391 973q0 -117 39.5 -222.5t143.5 -105.5q95 0 133.5 91.5t38.5 201.5q0 342 -174 342q-90 0 -135.5 -94t-45.5 -213z" />
<glyph unicode=":" horiz-adv-x="569" d="M116 140q0 44 23 82t62 61.5t83 23.5q68 0 118 -49.5t50 -117.5q0 -70 -49 -119t-119 -49q-68 0 -118 50t-50 118zM116 807q0 68 50 117t118 49q44 0 83 -22.5t62 -60.5t23 -83q0 -70 -48 -120q-50 -50 -120 -50q-68 0 -118 51t-50 119z" />
<glyph unicode=";" horiz-adv-x="569" d="M45 -364l92 378q35 141 59 199q22 50 51 72t81 22q58 0 97.5 -37.5t39.5 -89.5q-1 -34 -21 -66q-56 -84 -112 -165.5t-107.5 -153.5t-130.5 -182zM148 807q0 68 50 117t118 49t118 -48.5t50 -117.5q0 -70 -49 -120t-119 -50q-68 0 -118 51t-50 119z" />
<glyph unicode="&#x3c;" horiz-adv-x="1241" d="M100 446v152l1043 471v-172l-815 -375l815 -374v-172z" />
<glyph unicode="=" horiz-adv-x="1241" d="M104 234v176h1032v-176h-1032zM104 635v176h1032v-176h-1032z" />
<glyph unicode="&#x3e;" horiz-adv-x="1241" d="M98 -24v172l816 374l-816 375v172l1042 -471v-152z" />
<glyph unicode="?" horiz-adv-x="909" d="M129 1356q43 34 117 55t133 21q97 0 153 -17q114 -32 166 -94q68 -80 68 -176q0 -88 -43 -159.5t-131.5 -159t-119 -124t-30.5 -86.5q0 -39 31 -65.5t72 -26.5q18 0 44.5 9t41.5 20l18 -11q-27 -60 -33 -86q-10 -1 -54 -7.5t-68 -6.5q-54 0 -111 18t-97 52q-38 32 -62 80 t-24 94q0 79 29 131t95 119q34 36 100 110q38 44 55 73t17 71q0 64 -44.5 100.5t-109.5 36.5q-126 -1 -180 -109h-27zM266 140q0 44 23 82t62 61.5t83 23.5q68 0 118 -49.5t50 -117.5q0 -70 -49 -119t-119 -49q-68 0 -118 50t-50 118z" />
<glyph unicode="@" horiz-adv-x="1536" d="M82 682q0 155 54 292.5t153 240.5t231 160t285 57q141 0 260 -47.5t206.5 -130t135 -189.5t47.5 -221q0 -238 -141 -392q-66 -68 -153.5 -121t-163.5 -53q-68 0 -106 52q-37 50 -42 122q-40 -56 -71 -89t-72 -52.5t-97 -19.5q-124 0 -193 81.5t-69 215.5q0 112 59 220 t157.5 175t209.5 67q62 0 109 -29t73 -69l21 80h195l-134 -502q-10 -36 -10 -67q0 -65 43 -65q38 0 83 31t86 89t67 141t26 181q0 118 -59 226t-176 175t-279 67q-130 0 -238.5 -44t-186.5 -125t-120 -195t-42 -248q0 -140 44 -252.5t127 -193t196 -122.5t245 -42 q142 0 265 73t203 195h134q-59 -116 -156.5 -205t-219 -137.5t-249.5 -48.5q-150 0 -283.5 52t-236.5 149.5t-160 229.5t-57 288zM559 518q0 -58 18.5 -89t69.5 -31q48 0 107 53t100 151t41 222q0 118 -90 118q-72 0 -128.5 -75t-87 -175.5t-30.5 -173.5z" />
<glyph unicode="A" horiz-adv-x="1366" d="M26 -6l586 1419q40 -6 78 -6t78 6l572 -1423q-148 10 -176 10t-177 -10q-89 292 -145 428h-478q-18 -54 -50 -144t-55 -158t-38 -122q-16 1 -48 3.5t-48 2.5t-48.5 -2.5t-50.5 -3.5zM420 542h374l-182 478z" />
<glyph unicode="B" horiz-adv-x="1251" d="M162 0v1394h528q177 0 292.5 -71t115.5 -237q0 -92 -46 -162t-124 -112t-166 -54v-18q148 -14 258 -91t110 -247q0 -134 -70.5 -225t-184 -134t-240.5 -43h-473zM469 119h103q58 0 114 32.5t91.5 93.5t35.5 142q0 289 -291 289q-34 0 -53 -2v-555zM469 792h55 q120 0 180 52q88 74 88 213q0 110 -58 168.5t-160 58.5q-50 0 -105 -8v-484z" />
<glyph unicode="C" horiz-adv-x="1366" d="M53 654q0 195 63 343t174.5 244t259.5 143q146 48 318 48q106 0 220 -27t198 -74q-12 -45 -25 -110t-22 -101h-29q-37 54 -91.5 97.5t-118.5 67t-130 23.5q-122 0 -213.5 -53t-150 -144t-86 -201t-27.5 -228q0 -176 56.5 -311t166.5 -210t264 -75q92 0 194.5 43 t172.5 111l27 -12l-45 -177q-169 -88 -405 -88q-162 0 -304 48.5t-247 140t-162.5 220t-57.5 282.5z" />
<glyph unicode="D" horiz-adv-x="1593" d="M174 0v1394h700q160 -6 278.5 -60t194 -145t111 -206t35.5 -245q0 -169 -56 -307t-158 -234.5t-237.5 -146.5t-293.5 -50h-574zM482 119h174q232 0 364.5 141.5t132.5 479.5q0 188 -56.5 307t-161.5 174t-253 55h-200v-1157z" />
<glyph unicode="E" d="M160 0v1394h780q-10 -72 -10 -88t10 -88q-216 28 -473 29v-440h213q118 1 252 19q-10 -68 -10 -88q0 -21 10 -89q-134 19 -252 19h-213v-520q277 2 473 28q-10 -72 -10 -88t10 -88h-780z" />
<glyph unicode="F" d="M160 -10v1404h780q-10 -72 -10 -88t10 -88q-113 14 -220 21.5t-253 7.5v-440h217q96 1 248 19q-10 -68 -10 -88q0 -21 10 -89q-187 19 -250 19h-215v-678q-129 10 -153 10t-154 -10z" />
<glyph unicode="G" horiz-adv-x="1593" d="M86 662q0 246 110.5 420t303 262t432.5 88q90 0 174 -13t163 -41t157 -72q-44 -100 -58 -206h-28q-70 101 -176 154.5t-228 53.5q-125 0 -221.5 -52t-160 -142t-96.5 -208q-32 -118 -32 -250t33 -239t96.5 -180.5t155 -112t207.5 -38.5q128 0 225 58v478q127 -10 153 -10 t154 10v-566q-163 -45 -293.5 -69t-253.5 -24q-166 0 -313 42.5t-260.5 129.5t-178.5 219q-65 134 -65 308z" />
<glyph unicode="H" horiz-adv-x="1593" d="M176 -10v1404q130 -10 154 -10q26 0 154 10v-554q262 -10 312 -10q52 0 314 10v554q128 -10 154 -10t153 10v-1404q-127 10 -153 10t-154 -10v686q-262 10 -314 10t-312 -10v-686q-128 10 -154 10q-24 0 -154 -10z" />
<glyph unicode="I" horiz-adv-x="682" d="M186 -10v1404q128 -10 154 -10t154 10v-1404q-128 10 -154 10t-154 -10z" />
<glyph unicode="J" horiz-adv-x="682" d="M28 -230q113 30 146 127t33 283v123v1091q127 -10 153 -10t154 10v-1054v-66q0 -124 -12 -213t-52 -153q-120 -200 -390 -234z" />
<glyph unicode="K" horiz-adv-x="1251" d="M150 -10v1404q128 -10 153 -10t153 10v-640q292 338 533 640q92 -10 111 -10q16 0 108 10v-16l-336 -352q-37 -39 -106.5 -117.5t-87.5 -97.5l551 -793v-28q-129 10 -154 10q-23 0 -153 -10l-466 651v-651q-128 10 -153 10t-153 -10z" />
<glyph unicode="L" d="M164 0v1394q128 -10 154 -10t153 10v-1246q122 0 229.5 7t239.5 21q-10 -72 -10 -88t10 -88h-776z" />
<glyph unicode="M" horiz-adv-x="1820" d="M70 -10q80 450 208 1404q72 -10 84 -10q14 0 86 10q132 -287 472 -962q36 70 114.5 223t134 262t115.5 235t112 242q72 -10 87 -10q16 0 88 10q26 -222 48.5 -417.5t42.5 -359t42.5 -323.5t46.5 -304q-144 10 -170 10q-22 0 -166 -10q-6 114 -15.5 238t-20.5 226.5 t-23 213t-29 276.5q-39 -78 -111 -225t-121 -248t-117 -246q-70 -145 -106 -225h-78q-33 72 -104 219.5t-109.5 226t-117.5 238.5t-117 238q-79 -608 -86 -932q-82 10 -96 10q-12 0 -94 -10z" />
<glyph unicode="N" horiz-adv-x="1593" d="M172 -6v1400h203q110 -118 203 -217.5t226.5 -242t240.5 -258.5t215 -240v958q40 -6 82 -6t82 6v-1404l-174 2q-132 148 -252.5 282t-225.5 248q-104 116 -213 230l-223 233v-991q-15 1 -42 3.5t-40 2.5t-41.5 -2.5t-40.5 -3.5z" />
<glyph unicode="O" horiz-adv-x="1706" d="M72 694q0 206 96 374t280 266t430 98q210 0 358 -66t235 -173t126 -234t39 -257q0 -150 -55 -284t-161 -237t-257 -160.5t-333 -57.5q-170 0 -309 48.5t-240.5 143.5t-155 231t-53.5 308zM412 635q0 -140 45 -266t141 -204.5t242 -78.5q150 0 253 90t153 240t50 326 q0 141 -45 270.5t-143 212.5t-242 83q-107 0 -191.5 -41t-143 -124t-89 -210.5t-30.5 -297.5z" />
<glyph unicode="P" horiz-adv-x="1138" d="M148 -10v1404h504q216 0 327 -86q111 -88 111 -260q0 -132 -46 -220t-129 -136t-197 -67q-116 -19 -264 -19v-616q-128 10 -153 10t-153 -10zM454 719q93 4 136 14q94 26 138 101.5t44 177.5q0 121 -54 196.5t-136 75.5h-128v-565z" />
<glyph unicode="Q" horiz-adv-x="1706" d="M66 694q0 224 107 391.5t291 256.5q184 90 408 90q170 0 309.5 -52t240 -149t154.5 -232t54 -297q0 -125 -37 -236t-104 -201t-163.5 -158t-215.5 -107q240 -152 530 -312q-150 -30 -286 -112q-200 158 -312 234l-221 153q-226 0 -397.5 86t-264.5 251.5t-93 393.5z M406 635q0 -140 45 -266t141 -204.5t242 -78.5q105 0 190.5 48t144.5 135t90 207t31 266q0 141 -45 270.5t-143 212.5t-242 83q-164 0 -265 -86t-145 -235.5t-44 -351.5z" />
<glyph unicode="R" horiz-adv-x="1251" d="M154 -10v1404h436q246 0 332 -40q178 -93 178 -293q0 -148 -86 -242.5t-234 -126.5q49 -85 103.5 -172.5t136.5 -213.5t123 -190l79 -126q-154 10 -186 10q-30 0 -184 -10l-244 430q-23 41 -67.5 116t-65.5 111h-14v-657q-129 10 -154 10q-23 0 -153 -10zM461 735 q18 -2 51 -2q270 0 270 295q0 50 -10 102q-18 96 -81 125t-169 29h-61v-549z" />
<glyph unicode="S" d="M86 51q46 159 60 261h38q23 -105 99.5 -165.5t183.5 -60.5q101 0 170 56t69 157q0 108 -66.5 157.5t-224 125t-238.5 164.5q-81 90 -81 256q0 90 30.5 167.5t91 136.5t149.5 92.5t203 33.5q104 0 194.5 -31t128.5 -68q-27 -73 -65 -203h-32q-68 178 -235 178 q-225 0 -225 -200q0 -90 60 -132.5t228 -130t251 -180.5t83 -251q0 -128 -69 -232t-194 -161.5t-279 -57.5q-190 0 -330 88z" />
<glyph unicode="T" horiz-adv-x="1138" d="M41 1220q10 72 10 88q0 14 -10 86h1055q-10 -72 -10 -86q0 -16 10 -88q-241 30 -367 30v-1260q-127 10 -153 10t-154 -10v1260q-168 0 -381 -30z" />
<glyph unicode="U" horiz-adv-x="1593" d="M182 559v835q128 -10 154 -10t154 10v-581q0 -280 14 -387q16 -86 37 -136t71 -100q94 -88 234 -88q96 0 164 25t116 79t84 144t37 424v620q40 -6 82 -6t82 6v-728q-4 -163 -15 -254t-57 -181.5t-145 -158.5q-151 -108 -387 -109q-136 0 -255.5 32.5t-210.5 109.5 t-126 202q-33 116 -33 252z" />
<glyph unicode="V" horiz-adv-x="1366" d="M37 1394q149 -10 180 -10q33 0 181 10q34 -116 71 -223t75 -212t112 -299t104 -279q247 597 383 1013q46 -6 94 -6t94 6q-246 -576 -351.5 -831.5t-219.5 -572.5q-72 10 -86 10q-16 0 -88 -10q-225 624 -549 1404z" />
<glyph unicode="W" horiz-adv-x="2048" d="M30 1394q144 -10 170 -10q30 0 168 10q34 -142 80 -319t95 -356t96 -349q42 122 89 253t96 267t91.5 262t78.5 242q52 -6 102 -6t102 6q31 -116 65.5 -225t91.5 -276.5t96 -287t73 -235.5q82 254 125 392t90 304t88 328q48 -6 96 -6q49 0 95 6q-284 -772 -478 -1404 q-86 10 -102 10q-17 0 -105 -10q-33 123 -75 260.5t-74 232.5t-83 239t-95 267q-22 -60 -123.5 -343t-139 -389.5t-91.5 -266.5q-88 10 -103 10q-19 0 -105 -10q-41 158 -87.5 322t-96.5 332t-96 318t-115 374z" />
<glyph unicode="X" horiz-adv-x="1251" d="M49 -6q128 180 233.5 333t209.5 314l-420 753q154 -10 182 -10q30 0 182 10q26 -56 48.5 -100t66 -127t77.5 -147.5t62 -120.5q24 36 133 213.5t177 281.5q48 -6 100 -6q50 0 102 6l-198 -278q-40 -56 -114 -162t-124 -176l26 -47q90 -160 151.5 -269.5t123 -224 t127.5 -247.5q-149 10 -178 10q-28 0 -176 -10q-54 108 -270 522l-189 -295q-60 -94 -127 -223q-18 1 -51 3.5t-51 2.5t-51 -2.5t-52 -3.5z" />
<glyph unicode="Y" horiz-adv-x="1251" d="M37 1394q154 -10 184 -10q31 0 185 10q22 -44 174 -364q104 -214 128 -246q76 94 308 610q48 -6 100 -6q48 0 98 6q-20 -35 -99 -171.5t-131 -228t-102 -182.5q-50 -92 -98 -190v-632q-129 10 -153 10q-25 0 -154 -10v592q-66 116 -111.5 199t-99.5 186t-112 212 t-117 215z" />
<glyph unicode="Z" horiz-adv-x="1251" d="M49 0v35q408 633 725 1185v27q-272 -1 -641 -23q11 76 11 86q0 8 -11 84h1069v-34q-93 -142 -181.5 -286t-171.5 -285.5t-189 -327t-168 -293.5v-20q248 0 708 22q-10 -72 -10 -84q0 -14 10 -86h-1151z" />
<glyph unicode="[" horiz-adv-x="682" d="M170 -266v1812h430v-112l-225 10v-1608l225 10v-112h-430z" />
<glyph unicode="\" horiz-adv-x="1065" d="M49 1546q75 -4 107 -4t98 4l762 -1546q-36 4 -104 4t-101 -4z" />
<glyph unicode="]" horiz-adv-x="682" d="M82 -154l225 -10v1608l-225 -10v112h430v-1812h-430v112z" />
<glyph unicode="^" horiz-adv-x="1241" d="M106 570l422 824h184l422 -824h-194l-320 602l-319 -602h-195z" />
<glyph unicode="_" d="M0 -250h1024v-78h-1024v78z" />
<glyph unicode="`" horiz-adv-x="682" d="M16 1405q0 38 26 64t64 26q46 0 72 -16q28 -15 64 -57l264 -306h-115l-268 166q-64 42 -85.5 62t-21.5 61z" />
<glyph unicode="a" d="M49 242q0 95 39.5 152.5t117.5 92.5t218 68q108 25 150 53q30 28 30 80q0 72 -60 126t-134 54q-60 0 -115 -22t-92 -53t-43 -51h-14l-27 122q70 66 173.5 102t205.5 36q95 0 183.5 -28t147 -90t58.5 -157v-557q0 -57 21.5 -76.5t82.5 -19.5v-48q-120 -54 -184 -54 q-70 0 -123.5 40t-79.5 109q-40 -70 -111 -109.5t-151 -39.5q-86 0 -152 30.5t-103.5 92t-37.5 147.5zM336 268q0 -68 26 -116t86 -48q147 0 156 224v198q-56 -20 -110 -39t-92 -49q-66 -52 -66 -170z" />
<glyph unicode="b" horiz-adv-x="1138" d="M110 0v1546q118 -10 142 -10t141 10v-706q40 76 114.5 119t160.5 43q128 0 219 -68t137.5 -179t46.5 -235q-1 -254 -117 -389q-134 -159 -346 -159q-55 0 -108.5 16t-97.5 48t-74 78q-40 -22 -106 -66.5t-70 -47.5h-42zM393 479q0 -166 32 -290.5t149 -124.5 q94 0 144 114t50 308q0 158 -32 270t-150 112q-192 0 -193 -389z" />
<glyph unicode="c" d="M92 469q0 121 38.5 219.5t110.5 169t171.5 107.5t218.5 37q94 0 189 -24q94 -22 163 -68l-78 -214h-49q-11 90 -66.5 152t-142.5 62q-88 0 -145 -65t-81.5 -157.5t-24.5 -179.5q0 -404 310 -404q58 0 118 26t96 70l34 -28l-49 -123q-40 -36 -125.5 -56.5t-151.5 -20.5 q-243 0 -389.5 130.5t-146.5 366.5z" />
<glyph unicode="d" horiz-adv-x="1138" d="M64 486q0 100 24 192.5t73.5 165.5t125 115.5t172.5 42.5q197 0 279 -148v692q118 -10 140 -10q24 0 142 10v-1556q-112 10 -136 10t-136 -10v180q-32 -92 -106.5 -145t-174.5 -53q-212 0 -307 146q-96 146 -96 368zM366 479q0 -375 181 -375q116 0 157.5 125t41.5 273 q0 138 -38 252t-145 114q-115 0 -156 -121t-41 -268z" />
<glyph unicode="e" d="M72 510q0 143 55.5 255t161.5 175q105 62 251 62q144 0 239 -57t139 -158.5t44 -233.5q0 -45 -2 -67h-585q0 -178 67.5 -280t217.5 -102q60 0 125 26t114 66l25 -18l-46 -114q-62 -43 -139 -67.5t-153 -24.5q-168 0 -283 64t-173 185t-58 289zM375 584h303q0 125 -28 226 q-28 100 -108 100q-97 0 -129.5 -98t-37.5 -228z" />
<glyph unicode="f" horiz-adv-x="645" d="M18 852q4 22 4 64q0 43 -4 67h152q32 212 106 340q64 114 140.5 167.5t185.5 53.5q52 0 98 -8q-12 -75 -12 -162q0 -37 4 -98l-26 -10q-106 57 -178 57h-2q-86 -1 -114 -27q-24 -26 -24 -42q0 -36 30 -121t60 -150h207q-4 -49 -4 -65t4 -66h-193v-862q-118 10 -140 10 q-24 0 -142 -10v862h-152z" />
<glyph unicode="g" d="M56 -268q0 80 45 140t122 89l31 19l-14 16q-48 17 -74 57.5t-26 94.5q0 66 52 128t107 76l31 8q-260 60 -260 328q0 110 56.5 180t160 102t241.5 32q104 0 210 -6h247l-2 -95l-185 7q110 -93 110 -230q0 -166 -119 -251t-314 -85q-76 0 -90 -14q-25 -28 -25 -54 q0 -102 166 -108l176 -6q162 -6 231 -74t69 -190q0 -143 -76 -241.5t-199 -146.5t-264 -48q-97 0 -189 25t-155 86t-63 161zM242 -228q0 -112 80 -170t194 -58q72 0 130 32t90 84t32 110q0 90 -41 134t-102 55t-160 11q-89 0 -142 -23t-71 -99q-10 -24 -10 -76zM356 654 q0 -88 29.5 -161t102.5 -73q132 0 132 272q0 89 -26 162q-26 72 -98 72q-140 0 -140 -272z" />
<glyph unicode="h" horiz-adv-x="1138" d="M112 -10v1556q118 -10 142 -10q22 0 142 10v-704q60 66 142 113t160 47q142 0 240 -94q52 -51 69 -112t17 -149v-657q-118 10 -142 10t-140 -10v510q0 164 -34 247t-134 83q-114 0 -146 -97.5t-32 -271.5v-471q-119 10 -142 10q-24 0 -142 -10z" />
<glyph unicode="i" horiz-adv-x="569" d="M123 1358q0 42 21.5 79t58.5 60t79 23q66 0 115 -48t49 -114t-49 -114t-115 -48t-112.5 48.5t-46.5 113.5zM144 -10v993q118 -10 140 -10q24 0 142 10v-993q-118 10 -142 10t-140 -10z" />
<glyph unicode="j" horiz-adv-x="569" d="M-16 -350q71 22 105.5 61.5t45.5 96t11 147.5v1028q118 -10 140 -10q24 0 142 10v-999q0 -102 -35 -171t-119 -135q-108 -84 -268 -98zM125 1354q0 70 44.5 118t110.5 48q48 0 87 -21t60 -59t21 -86q0 -68 -49 -113t-119 -45q-64 0 -109.5 47.5t-45.5 110.5z" />
<glyph unicode="k" d="M121 -10v1556q118 -10 141 -10q24 0 142 10v-1001q6 -3 18 -3q92 93 393 441q72 -10 88 -10q14 0 86 10v-15q-58 -74 -177.5 -190t-164.5 -170l164 -262q127 -204 201 -340v-16q-128 10 -156 10t-156 -10q-128 244 -239 410q-35 56 -57 67v-477q-118 10 -142 10t-141 -10 z" />
<glyph unicode="l" horiz-adv-x="569" d="M144 -10v1556q118 -10 140 -10q24 0 142 10v-1556q-118 10 -142 10t-140 -10z" />
<glyph unicode="m" horiz-adv-x="1706" d="M108 -10v993q118 -10 142 -10t141 10v-153q46 74 129.5 123t171.5 49q98 0 170 -48q70 -48 102 -139q124 187 312 187q114 0 186 -43t103 -122.5t31 -193.5v-653q-118 10 -142 10t-141 -10v555q0 132 -28.5 208.5t-120.5 76.5q-100 0 -135 -55t-35 -165v-620 q-119 10 -142 10q-22 0 -142 -10v555q0 132 -28.5 208.5t-120.5 76.5q-170 0 -170 -242v-598q-118 10 -141 10q-24 0 -142 -10z" />
<glyph unicode="n" horiz-adv-x="1138" d="M112 -10v993q112 -10 138 -10q22 0 135 10v-151q145 170 315 170q182 0 253 -105.5t71 -306.5v-600q-118 10 -142 10t-140 -10v510q0 164 -34 247t-134 83q-116 0 -147 -106t-31 -263v-471q-119 10 -142 10q-24 0 -142 -10z" />
<glyph unicode="o" horiz-adv-x="1138" d="M68 465q0 160 60 281.5t173 188.5t267 67q116 0 208.5 -34t159 -98t101 -155.5t34.5 -204.5q0 -155 -60 -278t-174.5 -191.5t-271.5 -68.5q-149 0 -262.5 60t-174 171.5t-60.5 261.5zM370 471q0 -154 39.5 -280.5t155.5 -126.5q108 2 155.5 141t47.5 337q0 104 -19 187 t-61 132t-108 49q-79 0 -125.5 -57t-65.5 -153.5t-19 -228.5z" />
<glyph unicode="p" horiz-adv-x="1138" d="M114 -530v1513q112 -10 138 -10q22 0 135 10v-180q36 93 108 146q73 53 173 53q140 0 230.5 -68t131.5 -181t41 -249q0 -175 -56.5 -295.5t-149.5 -178.5t-203 -58q-172 0 -264 147v-649q-124 10 -142 10t-142 -10zM391 471q1 -367 187 -367q96 11 143 111t47 267 q0 187 -41 286.5t-137 99.5q-117 0 -158 -124t-41 -273z" />
<glyph unicode="q" horiz-adv-x="1138" d="M74 475q0 244 96.5 385.5t292.5 141.5q212 0 295 -199v180q112 -10 137 -10q22 0 135 10v-1513q-124 10 -141 10t-141 -10v649q-39 -64 -105.5 -105.5t-158.5 -41.5q-123 0 -216.5 62t-143.5 176t-50 265zM377 498q0 -50 8 -144q4 -55 25.5 -112.5t61.5 -97.5t96 -40 q186 0 186 363q0 152 -40 276.5t-159 124.5q-178 0 -178 -370z" />
<glyph unicode="r" horiz-adv-x="796" d="M137 -10v993q119 -10 141 -10t142 10v-254q78 273 334 273q-12 -104 -12 -206q0 -49 2 -73l-19 -17q-39 26 -105 27q-70 0 -120 -35t-68 -100q-12 -42 -12 -144v-94v-370q-120 10 -142 10t-141 -10z" />
<glyph unicode="s" horiz-adv-x="796" d="M64 56q18 98 30 194h52q28 -78 90 -126t143 -48q56 0 107 36q50 36 50 88q0 63 -45 89.5t-172.5 80t-191 120t-63.5 186.5q0 100 48 174t128 113q82 39 176 39q172 0 296 -97q-30 -100 -48 -180h-58q-12 68 -69 120t-125 52q-62 0 -107 -30t-45 -89q0 -64 90 -105.5 t176 -75t151 -101.5t65 -197q0 -94 -47.5 -168.5t-137 -116.5t-211.5 -42q-160 0 -282 84z" />
<glyph unicode="t" horiz-adv-x="682" d="M33 852q4 24 4 66q0 43 -4 65h139v231q110 44 282 128v-359h174q-4 -45 -4 -65q0 -16 4 -66h-174v-584q0 -68 6 -104.5t28 -58t67 -21.5q40 0 90 14v-80q-124 -46 -213 -46q-148 0 -204 86t-56 245v549h-139z" />
<glyph unicode="u" horiz-adv-x="1138" d="M104 338v78v567q118 -10 142 -10t141 10v-565q1 -123 23 -170q44 -106 145 -106q82 0 121.5 46t48 108t8.5 152v535q119 -10 141 -10t142 10v-993q-112 10 -136 10t-136 -10v150q-84 -90 -149 -129t-163 -39q-84 0 -157 32q-73 30 -117 94q-54 76 -54 240z" />
<glyph unicode="v" d="M33 983q131 -10 157 -10q25 0 158 10l230 -711q160 424 250 711q40 -6 82 -6q40 0 79 6q0 -16 -14 -49q-51 -102 -105 -240q-23 -57 -63.5 -155.5t-76.5 -189.5t-70 -186t-58 -173q-86 10 -104 10q-17 0 -105 -10q-216 630 -360 993z" />
<glyph unicode="w" horiz-adv-x="1593" d="M35 983q121 -10 149 -10t152 10l204 -703q128 390 210 703q98 -10 114 -10q17 0 115 10l209 -703q118 350 208 703q40 -6 82 -6q40 0 80 6q-71 -184 -127 -337.5t-111 -318.5q-56 -165 -106 -337q-92 10 -108 10q-18 0 -110 -10l-208 678q-160 -497 -210 -678 q-92 10 -111 10q-21 0 -113 -10q-174 593 -319 993z" />
<glyph unicode="x" d="M51 -6q225 310 326 452q-53 94 -164 280.5t-153 256.5q138 -10 166 -10q30 0 167 10q133 -243 177 -321q126 180 212 321q46 -6 92 -6t92 6q-150 -182 -333 -422l113 -193q28 -47 82.5 -137t89 -147.5t55.5 -93.5q-139 10 -168 10q-27 0 -166 -10l-197 356 q-160 -242 -227 -352q-13 1 -41 3.5t-41 2.5t-39.5 -2.5t-42.5 -3.5z" />
<glyph unicode="y" d="M39 983q127 -10 155 -10t156 10q56 -157 115 -309t131 -328l78 209q40 106 82 217q42 110 74 211q42 -6 84 -6q40 0 84 6l-208 -469q-254 -578 -426 -1044q-42 6 -86 6t-86 -6l260 528z" />
<glyph unicode="z" d="M62 0v84q134 186 263 374t273 406q-219 0 -471 -20q10 56 10 70q0 13 -10 69h835v-80l-180 -254q-30 -44 -98 -140.5t-101 -143.5t-73 -107.5t-90 -138.5q262 1 526 21q-10 -58 -10 -70q0 -13 10 -70h-884z" />
<glyph unicode="{" horiz-adv-x="682" d="M51 635q89 19 139 77q32 38 40 71t8 91v386q0 80 17 136.5t71 90.5q66 40 132 49.5t173 9.5q-110 -28 -149.5 -85.5t-39.5 -172.5v-378q0 -80 -17 -133t-62 -88t-127 -54q85 -19 130 -56t60.5 -92t15.5 -139v-358q0 -74 17.5 -124.5t58.5 -83t113 -48.5h-43 q-130 0 -205 26t-110 94t-35 197v342q0 77 -14 121.5t-54.5 73t-118.5 47.5z" />
<glyph unicode="|" horiz-adv-x="1241" d="M532 0v1546h176v-1546h-176z" />
<glyph unicode="}" horiz-adv-x="682" d="M51 -266q110 26 149.5 84t39.5 172v380q0 118 43 183t163 92q-123 26 -164.5 93.5t-41.5 193.5v358q0 109 -42.5 171t-146.5 85h43q130 0 205.5 -26t110 -95t34.5 -201v-340q0 -112 37 -163t150 -76q-89 -19 -139 -77q-32 -36 -40 -70t-8 -92v-386q0 -80 -17 -136 t-71 -93q-63 -38 -130 -47.5t-175 -9.5z" />
<glyph unicode="~" horiz-adv-x="1241" d="M104 444q61 112 129.5 179t168.5 67q50 0 108 -19t138 -54.5t122.5 -51.5t75.5 -16q102 0 192 166l98 -113q-59 -105 -128 -168q-68 -64 -166 -64q-42 0 -88 15t-108 43q-60 27 -76 33q-6 2 -47.5 19t-69.5 24q-27 8 -53 8q-66 0 -107 -46t-90 -134z" />
<glyph unicode="&#xa0;" />
<glyph unicode="&#xa3;" horiz-adv-x="682" d="M28 -230q113 30 146 127t33 283v123v1091q127 -10 153 -10t154 10v-1054v-66q0 -124 -12 -213t-52 -153q-120 -200 -390 -234z" />
<glyph unicode="&#xa4;" horiz-adv-x="1138" d="M102 318l98 98q-86 134 -86 276q0 166 86 285l-98 96l136 139l100 -98q124 88 290 88q152 0 275 -88l99 98l134 -139l-98 -96q90 -117 90 -283q0 -164 -88 -278l98 -98l-134 -138l-99 98q-125 -90 -281 -90q-166 0 -288 90l-98 -98zM330 692q0 -80 40 -146t109 -104 t147 -38q58 0 111.5 23t93 64t61.5 94t22 111q0 76 -39 143t-105 107q-66 41 -142 41q-82 0 -150.5 -38.5t-108 -106.5t-39.5 -150z" />
<glyph unicode="&#xa6;" horiz-adv-x="1241" d="M532 0v580h176v-580h-176zM532 966v580h176v-580h-176z" />
<glyph unicode="&#xa7;" horiz-adv-x="1138" d="M146 610q0 80 50 161t122 128q-94 77 -95 193q0 106 50.5 183t137.5 117t191 40q120 0 192 -21t166 -88q-66 -118 -88 -170h-26q-10 62 -72 116t-174 54q-65 0 -112 -41q-48 -40 -48 -106q0 -40 25 -73t59.5 -55.5t95.5 -51t68 -32.5q44 -22 81 -40t73 -37.5t59 -36 t41 -35.5q82 -85 82 -201q0 -144 -154 -278q54 -37 86 -96q33 -60 33 -126q0 -74 -31.5 -139t-87.5 -115q-54 -49 -122 -75q-37 -13 -99.5 -25t-99.5 -12q-216 0 -371 104q28 108 37 216h37q106 -212 305 -212q76 0 140.5 47t64.5 121q0 54 -30 88t-85 64q-43 24 -131 62 t-147 66t-125 71q-50 32 -74 98q-24 65 -24 137zM303 715q0 -41 30.5 -77t75.5 -63t92.5 -47t90.5 -38q146 -64 217 -109q55 59 55 123q0 38 -25 70t-62 56t-83 45t-80 37q-184 94 -244 136q-68 -54 -67 -133z" />
<glyph unicode="&#xa8;" d="M160 0v1394h780q-10 -72 -10 -88t10 -88q-216 28 -475 29v-442h215q86 1 252 19q-10 -62 -10 -86q0 -21 10 -89q-120 17 -252 17h-215v-518q259 0 475 28q-10 -72 -10 -88t10 -88h-780zM180 1678q0 53 42 93.5t94 40.5q54 0 93 -40q39 -38 39 -94q0 -54 -39 -93t-93 -39 q-50 0 -93 41.5t-43 90.5zM612 1678q0 54 41 94t95 40q50 0 89 -40.5t39 -93.5q0 -52 -38 -92t-90 -40q-54 0 -95 39t-41 93z" />
<glyph unicode="&#xa9;" horiz-adv-x="1536" d="M56 694q0 200 95 370t259 269t356 99q194 0 358.5 -99t260 -268t95.5 -371q0 -198 -96 -366t-260 -266.5t-358 -98.5q-193 0 -356.5 98.5t-258.5 266.5t-95 366zM178 694q0 -167 78 -309.5t213 -225.5t297 -83q122 0 231 48t190 133.5t126 198t45 238.5q0 170 -78 314 t-214 227.5t-300 83.5q-122 0 -230 -48.5t-188.5 -135t-125 -200.5t-44.5 -241zM366 674q0 144 60 242t162 145t229 47q131 0 233 -56q-14 -52 -26 -118h-16q-32 48 -83 77t-106 29q-89 0 -148 -50t-87.5 -131t-28.5 -169q0 -151 70.5 -242.5t200.5 -91.5q52 0 107 24t95 62 l14 -6l-24 -98q-94 -52 -226 -52q-120 0 -217.5 48t-153 136.5t-55.5 203.5z" />
<glyph unicode="&#xab;" d="M172 545q76 114 137.5 209.5t122.5 193.5q40 -38 133 -90q-130 -164 -229 -311q146 -201 232 -309q-62 -26 -136 -92q-32 50 -69 108.5t-69 109t-61 93.5t-61 88zM475 545q164 249 260 403q41 -38 133 -90q-129 -161 -229 -311q157 -215 231 -309q-62 -26 -135 -92 q-18 27 -83 129.5t-102.5 159.5t-74.5 110z" />
<glyph unicode="&#xac;" horiz-adv-x="1241" d="M104 635v176h1032v-577h-176v401h-856z" />
<glyph unicode="&#xad;" horiz-adv-x="682" d="M41 1192v148h602v-148h-602z" />
<glyph unicode="&#xae;" horiz-adv-x="1536" d="M56 700q0 198 95 366.5t259 267t358 98.5q192 0 356 -98.5t259 -267t95 -366.5q0 -200 -95 -370t-258.5 -268.5t-356.5 -98.5q-194 0 -358 98.5t-259 268.5t-95 370zM178 700q0 -170 78 -313.5t213 -227t299 -83.5q163 0 297.5 83.5t212.5 227t78 313.5q0 168 -78 310.5 t-213 225.5t-297 83q-163 0 -298.5 -83t-213.5 -226t-78 -310zM510 286v822h305q107 0 166 -51t59 -143q0 -86 -49 -142t-135 -76q58 -106 203 -334l45 -76q-80 6 -92 7q-12 -1 -92 -7l-214 386h-36v-386q-69 6 -80 7q-11 -1 -80 -7zM670 710q104 0 149 42t45 130 q0 96 -34 123t-97 27h-63v-322z" />
<glyph unicode="&#xaf;" horiz-adv-x="682" d="M-8 1680q0 34 19 64.5t49.5 49t64.5 18.5q54 0 93.5 -39t39.5 -93q0 -56 -39 -95t-94 -39q-50 0 -91.5 42t-41.5 92zM186 -10v1404q128 -10 154 -10t154 10v-1404q-128 10 -154 10t-154 -10zM422 1680q0 53 41 92.5t94 39.5q52 0 91.5 -40t39.5 -92q0 -54 -39 -94 t-92 -40q-54 0 -94.5 40t-40.5 94z" />
<glyph unicode="&#xb0;" horiz-adv-x="819" d="M102 1065q0 83 41.5 153.5t112 112t154.5 41.5q82 0 153 -41.5t112.5 -112.5t41.5 -153q0 -83 -41.5 -154t-112.5 -112t-153 -41q-84 0 -155 41t-112 111.5t-41 154.5zM215 1065q0 -82 56.5 -138.5t138.5 -56.5q80 0 137 57t57 138q0 80 -57 137.5t-139 57.5 q-80 0 -136.5 -57t-56.5 -138z" />
<glyph unicode="&#xb1;" horiz-adv-x="1241" d="M104 0v176h1032v-176h-1032zM104 572v176h428v286h176v-286h428v-176h-428v-298h-176v298h-428z" />
<glyph unicode="&#xb2;" horiz-adv-x="682" d="M186 -10v1404q128 -10 154 -10t154 10v-1404q-128 10 -154 10t-154 -10z" />
<glyph unicode="&#xb3;" horiz-adv-x="569" d="M123 1358q0 42 21.5 79t58.5 60t79 23q66 0 115 -48t49 -114t-49 -114t-115 -48t-112.5 48.5t-46.5 113.5zM144 -10v993q118 -10 140 -10q24 0 142 10v-993q-118 10 -142 10t-140 -10z" />
<glyph unicode="&#xb5;" horiz-adv-x="1138" d="M104 -530v1513q118 -10 142 -10t141 10v-565q0 -276 168 -276q82 0 121.5 46t48 108t8.5 152v535q119 -10 141 -10t142 10v-993q-112 10 -136 10t-136 -10v150q-84 -90 -149 -129t-163 -39q-25 0 -45 12v-514q-124 10 -141 10q-18 0 -142 -10z" />
<glyph unicode="&#xb6;" horiz-adv-x="1433" d="M158 1036q0 358 454 358h612v-94h-100v-1488q-16 1 -46 3.5t-46 2.5t-48 -3t-46 -3v1488h-119v-1488q-15 1 -45.5 3.5t-46.5 2.5t-48 -3t-46 -3v860l-70 -4q-188 0 -296.5 94t-108.5 274zM469 958q0 -100 33.5 -162.5t130.5 -62.5v567q-100 0 -132 -48t-32 -154v-140z " />
<glyph unicode="&#xb7;" horiz-adv-x="569" d="M116 522q0 68 50 118q48 50 116 50q44 0 84 -23t63 -62t23 -83q0 -70 -49 -119t-121 -49q-68 0 -117 50t-49 118z" />
<glyph unicode="&#xb8;" d="M72 510q0 220 125 356t343 136q144 0 239 -57.5t139 -159t44 -236.5q0 -43 -2 -63h-585q1 -382 285 -382q60 0 125 26t114 66l23 -18l-44 -114q-62 -42 -140 -67t-152 -25q-168 0 -283 64t-173 185t-58 289zM164 1268q0 52 40.5 91.5t92.5 39.5t93 -39q40 -38 40 -92 q0 -55 -39 -94.5t-94 -39.5q-52 0 -92.5 42t-40.5 92zM375 584h303q0 124 -28 226t-108 102q-156 0 -167 -328zM594 1268q0 54 40.5 92.5t94.5 38.5q52 0 91.5 -39.5t39.5 -91.5q0 -54 -38.5 -94t-92.5 -40t-94.5 40t-40.5 94z" />
<glyph unicode="&#xb9;" horiz-adv-x="702" d="M24 1108q0 146 90 234q42 42 106 66t130 24q162 0 242 -80q86 -86 86 -218q0 -93 -39 -166t-114 -114t-177 -41q-97 0 -170.5 35.5t-113.5 102.5t-40 157zM45 568v102h613v-102h-613zM215 1112q0 -91 28.5 -169.5t104.5 -78.5q92 0 123 125q17 64 17 166q0 19 -4 61 q-6 60 -37 112t-89 52q-100 0 -137 -174q-6 -33 -6 -94z" />
<glyph unicode="&#xbb;" d="M154 856q60 25 135 92q18 -27 83 -130t100 -156.5t77 -112.5q-169 -256 -260 -403q-39 38 -133 90q130 164 229 311q-153 210 -231 309zM456 856q60 25 136 92q50 -78 98 -154t84 -131t78 -114q-44 -66 -86.5 -131.5t-84.5 -130.5t-89 -141q-39 38 -133 90 q132 166 229 311q-142 197 -232 309z" />
<glyph unicode="&#xbc;" horiz-adv-x="569" d="M-16 -350q71 22 105.5 61.5t45.5 96t11 147.5v1028q118 -10 140 -10q24 0 142 10v-999q0 -102 -35 -171t-119 -135q-108 -84 -268 -98zM125 1354q0 70 44.5 118t110.5 48q48 0 87 -21t60 -59t21 -86q0 -68 -49 -113t-119 -45q-64 0 -109.5 47.5t-45.5 110.5z" />
<glyph unicode="&#xbd;" d="M86 51q46 159 60 261h38q23 -105 99.5 -165.5t183.5 -60.5q101 0 170 56t69 157q0 108 -66.5 157.5t-224 125t-238.5 164.5q-81 90 -81 256q0 90 30.5 167.5t91 136.5t149.5 92.5t203 33.5q104 0 194.5 -31t128.5 -68q-27 -73 -65 -203h-32q-68 178 -235 178 q-225 0 -225 -200q0 -90 60 -132.5t228 -130t251 -180.5t83 -251q0 -128 -69 -232t-194 -161.5t-279 -57.5q-190 0 -330 88z" />
<glyph unicode="&#xbe;" horiz-adv-x="796" d="M64 56q18 98 30 194h52q28 -78 90 -126t143 -48q56 0 107 36q50 36 50 88q0 63 -45 89.5t-172.5 80t-191 120t-63.5 186.5q0 100 48 174t128 113q82 39 176 39q172 0 296 -97q-30 -100 -48 -180h-58q-12 68 -69 120t-125 52q-62 0 -107 -30t-45 -89q0 -64 90 -105.5 t176 -75t151 -101.5t65 -197q0 -94 -47.5 -168.5t-137 -116.5t-211.5 -42q-160 0 -282 84z" />
<glyph unicode="&#xbf;" horiz-adv-x="569" d="M-64 1268q0 52 41 92.5t93 40.5q54 0 94 -39q39 -38 39 -94q0 -55 -39 -94q-38 -40 -94 -40q-50 0 -92 42t-42 92zM144 -10v993q118 -10 140 -10q24 0 142 10v-993q-118 10 -142 10t-140 -10zM366 1268q0 54 41 93.5t95 39.5q52 0 91.5 -40.5t39.5 -92.5q0 -54 -39 -94 t-92 -40q-55 0 -95.5 40t-40.5 94z" />
<glyph unicode="&#xc0;" horiz-adv-x="1366" d="M26 -6l586 1419q40 -6 78 -6t78 6l572 -1421q-30 1 -90 4.5t-89 3.5q-30 0 -88 -3.5t-86 -4.5q-93 296 -145 426h-478q-18 -54 -50 -144t-55 -158t-38 -122q-13 1 -46 3.5t-50 2.5q-16 0 -48.5 -2.5t-50.5 -3.5zM420 542h374l-182 478z" />
<glyph unicode="&#xc1;" horiz-adv-x="1251" d="M176 0v1394h906q-10 -46 -11 -88q1 -42 11 -88q-212 28 -598 29v-457h216q143 0 243.5 -38t152.5 -116q53 -78 53 -192q-1 -444 -541 -444h-432zM484 114q106 0 155 15q95 26 144 102q49 77 49 177q0 120 -60 195t-141 75h-147v-564z" />
<glyph unicode="&#xc2;" horiz-adv-x="1251" d="M176 0v1394h528q176 0 292 -72t116 -238q0 -90 -46 -160t-123.5 -112t-166.5 -54v-18q149 -16 259 -92t110 -246q0 -134 -70.5 -225t-184 -134t-241.5 -43h-473zM482 119h104q58 0 114 32.5t92 93.5t36 142q0 289 -294 289q-34 0 -52 -2v-555zM482 792h65q114 0 172 52 q88 74 88 213q0 108 -58 166.5t-161 58.5q-42 0 -106 -6v-484z" />
<glyph unicode="&#xc3;" d="M176 -8v1402h782q-10 -76 -10 -88q0 -14 10 -88q-114 14 -220 22q-106 7 -254 7v-1255q-26 1 -76 4.5t-76 3.5t-78 -3.5t-78 -4.5z" />
<glyph unicode="&#xc4;" horiz-adv-x="1366" d="M10 -72q10 46 10 111q0 43 -10 109h88q89 207 142 331.5t123 295.5t132.5 332t108.5 292q18 0 45 -4.5t41 -4.5q16 0 43.5 4.5t44.5 4.5q202 -555 486 -1251h98q-12 -97 -12 -109q0 -51 12 -111h-31q-37 46 -125 59t-210 13h-605q-138 0 -225 -12t-125 -60h-31zM272 148 q47 -2 140.5 -5t169.5 -3q82 0 183.5 3t152.5 5q-59 180 -133 377t-181 485q-232 -568 -332 -862z" />
<glyph unicode="&#xc5;" d="M156 0v1394h782q-10 -76 -10 -88q0 -14 10 -88q-216 28 -475 29v-442h215q86 1 252 19q-10 -62 -10 -86q0 -21 10 -89q-120 17 -252 17h-215v-518q259 0 475 28q-10 -75 -10 -88t10 -88h-782z" />
<glyph unicode="&#xc6;" horiz-adv-x="1820" d="M-24 -8v26l571 793q-78 92 -235 263q-156 170 -296 304v16q69 -12 109 -12q59 0 111 12q202 -254 298 -374t224 -266v640q70 -12 152 -12q77 0 151 12v-640q155 178 522 640q51 -12 111 -12q44 0 108 12v-16q-140 -134 -293.5 -301t-236.5 -266l571 -793v-26 q-26 0 -87.5 4t-86.5 4q-26 0 -87.5 -4t-86.5 -4l-434 649v-649q-103 8 -151 8q-86 0 -152 -8v649l-434 -649q-25 0 -86.5 4t-87.5 4q-24 0 -86 -4t-88 -4z" />
<glyph unicode="&#xc7;" horiz-adv-x="1251" d="M68 137q100 109 153 183l33 -2q17 -109 85.5 -179.5t184.5 -70.5q87 0 153.5 46t102 117t35.5 144q-1 299 -281 299q-42 0 -126 -12v147q26 -4 76 -4q264 1 264 283q0 102 -47 179t-152 77q-116 0 -167 -68q-52 -68 -75 -188l-35 -2q-128 118 -164 145q56 80 126.5 126 t153.5 65q84 18 190 18q156 0 269.5 -44t170.5 -122t57 -178q0 -270 -301 -346q116 -24 191 -55t125 -101t50 -190q0 -98 -44.5 -179t-125 -137.5t-189.5 -87t-234 -30.5q-91 0 -179.5 18.5t-165.5 55.5q-76 38 -134 93z" />
<glyph unicode="&#xc8;" horiz-adv-x="1593" d="M176 -8v1402q34 -3 60 -5.5t51 -4.5t43 -2q17 0 43.5 2t51.5 5t59 5v-960q94 100 200.5 225t204 247t197.5 254t176 239q20 -3 65 -3q62 0 90 3v-1407q-24 1 -76 4q-51 4 -79 4q-24 0 -75 -3.5t-77 -4.5v968q-90 -102 -181.5 -211t-209 -255t-215.5 -271 q-96 -125 -174 -231q-22 2 -64 2q-59 0 -90 -2z" />
<glyph unicode="&#xc9;" horiz-adv-x="1593" d="M176 -8v1402q34 -3 60 -5.5t51 -4.5t43 -2q17 0 43.5 2t51.5 5t59 5v-960q94 100 200.5 225t204 247t197.5 254t176 239q20 -3 65 -3q62 0 90 3v-1407q-24 1 -76 4q-51 4 -79 4q-24 0 -75 -3.5t-77 -4.5v968q-90 -102 -181.5 -211t-209 -255t-215.5 -271 q-96 -125 -174 -231q-22 2 -64 2q-59 0 -90 -2zM286 1634l84 113q192 -193 428 -193q242 0 439 197l80 -105q-72 -72 -158.5 -123t-179.5 -76t-189 -25q-138 0 -267 53t-237 159z" />
<glyph unicode="&#xca;" horiz-adv-x="1251" d="M176 -8v1402q10 0 67 -6t87 -6q17 0 43.5 2t51.5 5t59 5v-640q272 312 532 640q23 -3 40.5 -5.5t37.5 -4.5t32 -2q20 0 62 6t47 6v-16q-140 -134 -293 -300q-154 -166 -238 -267l572 -793v-26q-27 1 -88.5 4.5t-85.5 3.5q-27 0 -88.5 -3.5t-85.5 -4.5l-444 649v-649 q-26 1 -77 4.5t-77 3.5q-25 0 -75.5 -3.5t-78.5 -4.5z" />
<glyph unicode="&#xcb;" horiz-adv-x="1366" d="M33 -6q87 203 159 372.5t140 332.5t137 339q69 174 135 358q3 0 35.5 -4t50.5 -4q8 0 20 1t24 2.5t21 3t23 1.5q68 -186 122 -328t136 -351t129.5 -326t161.5 -397q-38 3 -68.5 5.5t-61.5 4.5t-50 2t-51 -2t-62 -4.5t-68 -5.5q-34 116 -77.5 243t-79 221.5t-98.5 261.5 q-63 168 -107 288q-249 -602 -381 -1014q-48 6 -96 6t-94 -6z" />
<glyph unicode="&#xcc;" horiz-adv-x="1818" d="M68 -8q52 278 96 587t114 815q19 -3 32.5 -5.5t27.5 -4.5t24 -2t26 2t28 5t30 5q68 -146 111 -233t112 -227.5t133 -267t118 -234.5q16 30 91.5 178t142 278t129.5 261.5t113 244.5q4 0 36 -6t48 -6q11 0 27.5 2t30.5 5t33 5q26 -222 53.5 -463t40.5 -351t36 -271.5 t50 -316.5q-30 1 -86.5 4.5t-85.5 3.5t-82 -3.5t-82 -4.5q-6 114 -16 238t-20.5 225.5t-22.5 211t-29 275.5q-38 -78 -109.5 -221t-121.5 -247t-118 -249q-70 -145 -106 -225h-78q-33 72 -104 219.5t-109.5 226t-117.5 238.5t-117 238q-79 -608 -86 -930q-16 1 -48 4.5 t-48 3.5t-47 -3.5t-49 -4.5z" />
<glyph unicode="&#xcd;" horiz-adv-x="1593" d="M176 -8v1402q34 -3 60 -5.5t51 -4.5t43 -2q17 0 43.5 2t51.5 5t59 5v-554q254 -10 312 -10q47 0 314 10v554q34 -3 59 -5.5t51 -4.5t42 -2q18 0 45 2t51.5 5t58.5 5v-1402q-24 1 -76 4q-51 4 -79 4q-24 0 -75 -3.5t-77 -4.5v684q-214 8 -314 8q-108 0 -312 -8v-684 q-26 1 -77 4.5t-77 3.5t-77 -3.5t-77 -4.5z" />
<glyph unicode="&#xce;" horiz-adv-x="1706" d="M72 694q0 153 54 287.5t159 236t255 158t338 56.5q208 0 356 -66t236 -173t127 -233t39 -258q0 -150 -55 -284t-161 -237t-257 -160.5t-333 -57.5q-226 0 -398 86t-266 251.5t-94 393.5zM412 635q0 -142 45 -267.5t141 -203.5t242 -78q150 0 253 90t153 240t50 326 q0 104 -24.5 203t-77 182t-135.5 132t-195 49q-143 0 -244 -73t-154.5 -223.5t-53.5 -376.5z" />
<glyph unicode="&#xcf;" horiz-adv-x="1593" d="M176 -8v1402q198 -2 339 -2h281q356 0 621 2v-1402q-24 1 -76 4q-51 4 -79 4q-24 0 -75 -3.5t-77 -4.5v1249q-160 6 -314 6q-160 0 -312 -6v-1249q-26 1 -77 4.5t-77 3.5t-77 -3.5t-77 -4.5z" />
<glyph unicode="&#xd0;" horiz-adv-x="1138" d="M176 -8v1402h504q216 0 327 -86q111 -88 111 -260q0 -174 -78.5 -272t-217 -135t-338.5 -37v-612q-26 1 -77 4.5t-77 3.5t-77 -3.5t-77 -4.5zM484 719q90 4 134 14q94 26 138.5 100.5t44.5 178.5q0 120 -54.5 195t-136.5 75h-126v-563z" />
<glyph unicode="&#xd1;" horiz-adv-x="1366" d="M53 654q0 195 63 343t174.5 244t259.5 143q146 48 318 48q105 0 219.5 -27t198.5 -74q-12 -46 -25 -108.5t-22 -102.5h-29q-58 85 -150 136q-94 52 -190 52q-122 0 -213 -53t-150 -144t-86.5 -201t-27.5 -228q0 -176 56.5 -311t166.5 -210t264 -75q92 0 194.5 43 t172.5 111l27 -12l-45 -177q-173 -88 -405 -88q-162 0 -304 48.5t-247 140t-162.5 220t-57.5 282.5z" />
<glyph unicode="&#xd2;" horiz-adv-x="1138" d="M41 1220q10 72 10 88q0 14 -10 86h1055q-3 -19 -6 -32.5t-4.5 -28.5t-1.5 -25t1.5 -25.5t4 -29t6.5 -33.5q-241 30 -367 30v-1258q-26 1 -77.5 4.5t-75.5 3.5q-25 0 -76.5 -3.5t-77.5 -4.5v1258q-168 0 -381 -30z" />
<glyph unicode="&#xd3;" horiz-adv-x="1366" d="M37 1394q41 -3 70 -5.5t61 -4.5t53 -2q20 0 51 2t61.5 5t72.5 5q24 -49 105.5 -190.5t168 -289.5t118.5 -212q28 43 70.5 125.5t95 195.5t98.5 218t68 153q50 -6 101 -6q46 0 98 6q-83 -148 -231 -436t-281 -563.5t-182 -402.5q-10 1 -40 4.5t-46 3.5t-46.5 -3t-41.5 -3 q38 68 96 186t90 184q-41 88 -123 229t-173 287t-180.5 291t-133.5 223z" />
<glyph unicode="&#xd4;" horiz-adv-x="1820" d="M74 694q0 165 80 291.5t235 196.5t369 70v142q26 0 77 -6t77 -6t77 6t76 6v-136q244 0 397.5 -78.5t219.5 -204.5q67 -127 67 -275q0 -162 -81.5 -289t-237.5 -198t-367 -71l2 -150q-25 0 -77 4q-50 4 -76 4t-77 -4t-77 -4v143q-320 0 -502 141q-182 140 -182 418z M430 658q0 -102 39 -198.5t113.5 -157t175.5 -60.5v905q-100 0 -174.5 -64.5t-114 -176.5t-39.5 -248zM1063 250q101 0 176 68t114 179t39 234q0 102 -38 198.5t-112.5 157t-176.5 60.5z" />
<glyph unicode="&#xd5;" horiz-adv-x="1251" d="M51 -6q135 191 236 338.5t205 308.5l-420 753q39 -3 67.5 -5.5t61.5 -4.5t53 -2t53 2t61.5 5t67.5 5q40 -86 77 -158t93 -177t84 -160q39 60 142 229q104 168 168 266q48 -6 100 -6q51 0 100 6l-198 -278q-135 -193 -238 -338l28 -47q296 -528 402 -739q-30 1 -89.5 4.5 t-88.5 3.5q-28 0 -87 -3.5t-89 -4.5q-44 90 -270 520l-189 -295q-71 -111 -127 -223q-18 1 -51 3.5t-51 2.5t-51 -2.5t-50 -3.5z" />
<glyph unicode="&#xd6;" horiz-adv-x="1593" d="M176 -8v1404q26 0 77 -4t77 -4t77 4t77 4v-1246q-11 0 105.5 -3t208.5 -3t208 3t104 3v1246q26 0 77 -4t75 -4q28 0 79 4t76 4v-1248h162q-13 -64 -13 -111q0 -49 13 -109h-31q-36 46 -118 58t-218 14h-2h-412q-245 0 -383.5 -1t-238.5 -7z" />
<glyph unicode="&#xd7;" horiz-adv-x="1478" d="M119 860v534q34 -3 58.5 -5.5t51.5 -4.5t43 -2q17 0 44.5 2t51.5 5t58 5v-534q0 -86 71 -120t167 -34q138 0 332 134v554q34 -3 57.5 -5.5t50 -4.5t43.5 -2q18 0 44.5 2t51.5 5t59 5v-1402q-24 1 -76 4.5t-79 3.5q-25 0 -75 -4q-50 -3 -76 -4v684q-89 -53 -154.5 -83 t-141.5 -47.5t-164 -17.5q-102 0 -199 41.5t-157.5 117t-60.5 173.5z" />
<glyph unicode="&#xd8;" horiz-adv-x="1933" d="M176 -10v1404q26 0 77 -4t77 -4t77 4t77 4v-1246q8 0 67.5 -3t97.5 -3q43 0 100.5 3t65.5 3v1246q26 0 76.5 -6t76.5 -6t77 6t77 6v-1246q8 0 68 -3t100 -3t98 3t66 3v1246q26 0 77 -4t75 -4q28 0 79 4t77 4v-1404q-182 10 -794 10q-260 0 -473 -2t-319 -8z" />
<glyph unicode="&#xd9;" horiz-adv-x="1933" d="M176 -8v1404q26 0 77 -4t77 -4t77 4t77 4v-1246q8 0 67.5 -3t97.5 -3q43 0 100.5 3t65.5 3v1246q26 0 76.5 -6t76.5 -6t77 6t77 6v-1246q8 0 68 -3t100 -3t98 3t66 3v1246q26 0 77 -4t75 -4q28 0 79 4t77 4v-1248h161q-12 -62 -12 -111q0 -53 12 -109h-31 q-37 46 -123.5 59t-212.5 13h-588q-584 0 -792 -8z" />
<glyph unicode="&#xda;" horiz-adv-x="1214" d="M-41 1220q11 32 11 88q0 54 -11 86h598v-604h197q144 0 241 -38t147 -116t50 -192q0 -250 -148 -347t-382 -97h-412v1250q-104 0 -152.5 -6t-138.5 -24zM557 114q85 0 135 15q94 26 138 100.5t44 178.5q0 120 -54.5 195t-135.5 75h-127v-564z" />
<glyph unicode="&#xdb;" horiz-adv-x="1779" d="M174 0v1403q26 -1 73 -5t81 -4q32 0 80 4t74 5v-613h196q216 0 327 -86q111 -88 111 -260q0 -250 -148 -347t-382 -97h-412zM482 114q84 0 134 15q94 26 138 100.5t44 178.5q0 120 -54 195q-56 75 -136 75h-126v-564zM1300 -8v1402q34 -3 58 -5.5t51.5 -4.5t44.5 -2 t43.5 2t51.5 5t59 5v-1402q-26 1 -77 4.5t-77 3.5q-25 0 -76.5 -3.5t-77.5 -4.5z" />
<glyph unicode="&#xdc;" horiz-adv-x="1138" d="M156 0v1403q26 -1 73 -5t80 -4q32 0 79.5 4t74.5 5v-613h197q216 0 327 -86q111 -88 111 -260q0 -250 -148 -347t-382 -97h-412zM463 114q85 0 135 15q94 26 138 100.5t44 178.5q0 120 -54.5 195t-135.5 75h-127v-564z" />
<glyph unicode="&#xdd;" horiz-adv-x="1366" d="M80 1331q86 48 200 75q114 26 218 26q172 0 319 -47.5t259 -143.5t174.5 -244.5t62.5 -342.5q0 -155 -57.5 -282.5t-162.5 -219.5t-246 -140.5t-305 -48.5q-232 0 -405 88l-45 177l27 12q70 -67 172 -110q103 -44 195 -44q151 0 261.5 73t168 205t57.5 302h-471 q-134 0 -252 -17q0 15 5 45t5 44q0 13 -5 42.5t-5 43.5q164 -18 252 -19h462q-12 101 -46 191t-92 160.5t-141 111t-189 40.5q-96 0 -190 -52q-92 -52 -150 -136h-29q-11 50 -23.5 110t-23.5 101z" />
<glyph unicode="&#xde;" horiz-adv-x="2199" d="M176 -8v1402q26 0 77 -6t77 -6t77 6t77 6v-564q78 -4 84 -4q12 0 73 4q28 174 126.5 311t258.5 214t368 77q202 0 342 -66t222 -173t118 -233t36 -258q0 -152 -52 -285t-152 -236t-244 -160.5t-318 -57.5q-214 0 -375 82.5t-250.5 242.5t-92.5 378q-30 4 -71 4t-73 -4 v-674q-26 0 -77 4t-77 4t-77 -4t-77 -4zM968 635q0 -229 94 -389t294 -160q140 0 234 89.5t138 239t44 327.5q0 140 -40 270t-128 213t-224 83q-98 0 -175 -41t-130 -125t-80 -210.5t-27 -296.5z" />
<glyph unicode="&#xdf;" horiz-adv-x="1251" d="M30 -8l80 124q40 64 126 196t136 213.5t99 166.5q-96 20 -168.5 69.5t-111.5 125t-39 174.5q0 201 178 293q86 40 332 40h436v-1402q-26 1 -77 4.5t-77 3.5q-25 0 -76.5 -3.5t-77.5 -4.5v653h-14q-107 -180 -131 -225l-245 -428q-32 1 -93 4.5t-92 3.5q-32 0 -94.5 -3.5 t-90.5 -4.5zM469 1028q1 -295 271 -295q32 0 50 2v547h-69q-100 0 -162 -29t-80 -123q-10 -54 -10 -102z" />
<glyph unicode="&#xe0;" d="M51 242q0 94 38.5 152t117.5 93.5t217 69.5q104 25 150 53q30 28 30 80q0 72 -60 126t-134 54q-60 0 -115 -22t-92 -53t-43 -51h-14l-27 120q70 66 172.5 102t206.5 36q94 0 183 -27t146 -88.5t57 -157.5v-561q0 -53 22.5 -73.5t84.5 -20.5v-48q-120 -54 -186 -54 q-70 0 -123 39.5t-78 109.5q-39 -70 -111 -109.5t-151 -39.5q-85 0 -151 30.5t-103 91.5q-37 62 -37 148zM336 266q0 -66 26 -114t84 -48q148 0 158 222v198q-11 -4 -59.5 -20t-82.5 -30q-32 -14 -60 -36q-66 -50 -66 -172z" />
<glyph unicode="&#xe1;" horiz-adv-x="1138" d="M68 465q0 301 40.5 478t144.5 275.5t291.5 137t509.5 38.5q-3 -12 -7.5 -37t-4.5 -49q0 -21 5 -48.5t7 -41.5q-122 26 -298 27q-184 0 -301 -49.5t-168 -131.5t-51 -184q64 56 155 89t193 33q154 0 273 -59.5t185 -171t66 -261.5q0 -155 -65 -277.5t-184 -191.5t-275 -69 q-150 0 -268 60t-183 172t-65 261zM370 471q0 -82 18.5 -176t66 -162.5t129.5 -68.5q110 0 165.5 144t55.5 337q0 158 -54 262.5t-153 104.5q-118 0 -173 -121.5t-55 -319.5z" />
<glyph unicode="&#xe2;" d="M114 0v981h428q101 0 182.5 -23.5t130 -77.5t48.5 -138q0 -82 -61 -142q-61 -62 -160 -72q130 -24 201 -77t71 -181q0 -86 -54 -148t-143.5 -93t-193.5 -31zM398 108h63q90 0 147.5 46t57.5 124q0 188 -205 189h-63v-359zM398 574h50q174 0 174 159q0 145 -166 145h-58 v-304z" />
<glyph unicode="&#xe3;" horiz-adv-x="833" d="M114 -8v989h705q-10 -31 -10 -67q0 -40 10 -70q-213 18 -421 18v-870q-24 0 -71 4t-71 4t-71 -4t-71 -4z" />
<glyph unicode="&#xe4;" d="M-33 -60q11 26 11 90q0 56 -11 89h119q17 40 37.5 87.5t30.5 71.5q47 115 81.5 201.5t66 166t61 161t59.5 174.5q19 0 53 -4q33 -4 51 -4q17 0 52.5 4t52.5 4q180 -523 311 -862h104q-10 -31 -10 -89q0 -44 10 -90h-20q-26 28 -76 41t-124 16t-230 3h-178q-156 0 -229 -3 t-123 -15q-50 -14 -80 -42h-19zM240 119h397l-191 581q-146 -396 -206 -581z" />
<glyph unicode="&#xe5;" d="M68 510q0 107 33 198t96 156.5t151.5 101.5t198.5 36q430 0 430 -516h-607q0 -175 77 -278.5t229 -103.5q60 0 126 26t114 66l22 -18l-43 -114q-62 -42 -140 -67t-153 -25q-125 0 -225 36.5t-169.5 107t-104.5 169.5t-35 225zM370 584h324q0 118 -33 223t-112 105 q-98 0 -135.5 -101t-43.5 -227z" />
<glyph unicode="&#xe6;" horiz-adv-x="1517" d="M10 6q98 175 201 340l166 260q-33 39 -78 84.5t-96 95.5t-92 94q-41 42 -78 88v13q14 0 42.5 -4t43.5 -4q16 0 44.5 4t43.5 4q84 -97 150.5 -174t123.5 -139q57 -64 119 -126q6 0 11 1t7 2v436q72 -10 142 -10q92 0 139 10v-436q1 -3 19 -3q62 62 118.5 125t123 140 t150.5 174q14 0 43.5 -4t45.5 -4q14 0 42.5 4t43.5 4v-13q-37 -46 -80 -91t-97 -97.5t-94 -93.5q-40 -40 -74 -80l166 -260q102 -165 202 -340v-14q-26 0 -79 4t-77 4q-26 0 -78.5 -4t-77.5 -4q-134 250 -240 408q-36 55 -57 65v-473q-55 8 -139 8q-44 0 -142 -8v473 q-22 -9 -57 -65q-105 -158 -239 -408q-25 0 -77.5 4t-78.5 4q-24 0 -77 -4t-79 -4v14z" />
<glyph unicode="&#xe7;" horiz-adv-x="985" d="M45 43q43 127 47 153h16q37 -56 114.5 -84t164.5 -28q70 0 124.5 23t85.5 66t31 103q0 96 -57 142.5t-155 46.5q-62 0 -104 -4v121q36 -4 104 -4q78 0 122 46t44 124q0 76 -51.5 119t-147.5 43q-74 0 -146.5 -29.5t-90.5 -77.5h-19q-19 73 -49 149q140 52 364 52 q124 0 221 -29t150 -87q53 -56 53 -140q0 -196 -238 -220q290 -38 290 -252q0 -94 -64.5 -161t-173.5 -102q-110 -35 -242 -35q-278 0 -393 65z" />
<glyph unicode="&#xe8;" horiz-adv-x="1138" d="M114 -8v989q95 -8 142 -8q52 0 142 8v-623q184 232 417 623q10 0 47 -3q38 -3 60 -3q35 0 102 6v-989q-22 1 -70 4q-48 4 -72 4q-46 0 -140 -8v630q-230 -294 -418 -630q-10 0 -45 4t-58 4q-21 0 -64 -4z" />
<glyph unicode="&#xe9;" horiz-adv-x="1138" d="M114 -8v989q95 -8 142 -8q52 0 142 8v-623q184 232 417 623q10 0 47 -3q38 -3 60 -3q35 0 102 6v-989q-22 1 -70 4q-48 4 -72 4q-46 0 -140 -8v630q-230 -294 -418 -630q-10 0 -45 4t-58 4q-21 0 -64 -4zM156 1247l67 91q161 -152 342 -152q183 0 353 152l65 -88 q-87 -85 -196 -130t-224 -45q-110 0 -215 43q-104 44 -192 129z" />
<glyph unicode="&#xea;" d="M114 -8v989q79 -10 142 -10q62 0 142 10v-436q6 -3 18 -3q62 62 121 128t123.5 140t148.5 171q14 -1 23.5 -2t22 -3t24 -2.5t18.5 -0.5q8 0 18.5 0.5t22.5 2.5t21.5 3t23.5 2v-13q-37 -46 -80 -91t-97 -97.5t-91.5 -91t-75.5 -82.5l166 -260q105 -168 201 -340v-14 q-26 1 -79 4.5t-77 3.5q-28 0 -80 -4q-52 -3 -76 -4q-138 254 -240 408q-26 44 -56 65v-473q-26 1 -73 4.5t-69 3.5q-24 0 -71 -3.5t-71 -4.5z" />
<glyph unicode="&#xeb;" horiz-adv-x="985" d="M16 -8q0 13 14 47q51 105 105 239q47 115 82 201.5t66 166t61 161t60 174.5q2 0 31 -2.5t42 -4t31 -1.5q8 0 21.5 0.5t29 2.5t26.5 3t27 2q118 -339 194 -550t167 -439q-28 1 -79.5 4.5t-78.5 3.5q-26 0 -78.5 -3.5t-76.5 -4.5l-232 708q-32 -87 -67 -181.5t-65 -178.5 t-61 -177t-55 -171q-58 4 -84 4q-28 0 -80 -4z" />
<glyph unicode="&#xec;" horiz-adv-x="1517" d="M30 -8q60 211 100 355.5t78.5 292.5t84.5 341q18 -1 29.5 -2t28.5 -3t30 -2.5t23 -0.5q8 0 21.5 0.5t29.5 2.5t27 3t30 2l248 -674q26 78 48 135.5t70.5 179t78.5 200.5q31 80 55 159q18 -1 30 -2t28.5 -3t30 -2.5t23.5 -0.5t24 0.5t30 2.5t27 3t30 2 q20 -108 47.5 -242.5t55 -252.5t63 -248.5t71.5 -245.5q-24 1 -74 4.5t-75 3.5q-26 0 -77 -4q-50 -3 -74 -4l-124 700q-67 -166 -103.5 -260t-76.5 -211t-70 -229q-19 1 -55.5 4.5t-56.5 3.5q-21 0 -59 -4q-37 -3 -57 -4l-250 700q-80 -386 -128 -700q-50 4 -82 4 q-26 0 -80 -4z" />
<glyph unicode="&#xed;" horiz-adv-x="1138" d="M114 -8v989q95 -8 142 -8q52 0 142 8v-407h344v407q90 -8 140 -8q52 0 142 8v-989q-22 1 -70 4q-48 4 -72 4q-46 0 -140 -8v456h-344v-456q-24 1 -71 4.5t-71 3.5q-46 0 -142 -8z" />
<glyph unicode="&#xee;" horiz-adv-x="1175" d="M68 465q0 120 36 219.5t105 170.5t164 109t211 38q154 0 273 -59.5t185 -171t66 -261.5q0 -155 -65 -277.5t-184 -191.5t-275 -69q-150 0 -268 60t-183 172.5t-65 260.5zM370 471q0 -82 18.5 -176t66 -162.5t129.5 -68.5q110 3 165.5 146t55.5 335q0 158 -54 262.5 t-153 104.5q-118 0 -173 -121.5t-55 -319.5z" />
<glyph unicode="&#xef;" horiz-adv-x="1138" d="M114 -8v989q26 -2 464 -2q424 0 446 2v-989q-22 1 -70 4q-48 4 -72 4q-46 0 -140 -8v870h-344v-870q-24 1 -71 4.5t-71 3.5q-46 0 -142 -8z" />
<glyph unicode="&#xf0;" horiz-adv-x="1138" d="M114 -530v1511q22 -1 37 -2t35 -3t37 -2.5t29 -0.5q11 0 28.5 0.5t36.5 2.5t33 3t37 2v-178q36 92 107.5 145.5t171.5 53.5q108 0 185.5 -40t126 -108t71 -157.5t22.5 -192.5q0 -175 -56.5 -295.5t-149.5 -178.5t-203 -58q-172 0 -264 147v-649q-83 10 -142 10 q-58 0 -142 -10zM391 471q1 -367 187 -367q96 11 143 111t47 267q0 388 -178 388q-117 0 -158 -124t-41 -275z" />
<glyph unicode="&#xf1;" horiz-adv-x="985" d="M66 467q0 122 38 221.5t108.5 169t170 107t221.5 37.5q94 0 188 -22t162 -68l-78 -214h-46q-11 90 -67.5 152t-144.5 62t-144 -65t-81 -158.5t-25 -182.5q0 -126 32 -215t101 -138t177 -49q59 0 119 26t96 70l35 -28l-52 -121q-38 -36 -122.5 -57.5t-151.5 -21.5 q-158 0 -280 57t-189 169t-67 269z" />
<glyph unicode="&#xf2;" horiz-adv-x="909" d="M0 844q0 9 5 33.5t5 36.5t-5 34.5t-5 32.5h454h458q0 -12 -6 -34q-5 -21 -5 -33t5.5 -35t5.5 -35q-9 1 -72 7.5t-110.5 8.5t-133.5 2v-870q-24 0 -71 4t-71 4t-70 -4t-70 -4v870q-85 0 -132.5 -2t-110 -8.5t-71.5 -7.5z" />
<glyph unicode="&#xf3;" d="M39 981q33 -2 58 -3.5t48 -3t49 -1.5q13 0 32.5 0.5t42.5 2.5t39 3t42 2q100 -280 246 -635l78 209q15 41 69.5 186t86.5 240q58 -4 84 -4t84 4l-208 -467q-262 -598 -426 -1044q-28 6 -86 6t-86 -6l260 528z" />
<glyph unicode="&#xf4;" horiz-adv-x="1706" d="M74 504q0 138 41 250t132 180t232 68q153 0 238 -122v664q57 -8 137 -8q75 0 135 8v-664q85 122 238 122q107 0 185 -40t126.5 -108t71 -157.5t22.5 -192.5q0 -175 -56.5 -295.5t-149.5 -178.5q-94 -58 -204 -58q-144 0 -233 104v-606q-113 10 -131 10q-58 0 -141 -10 v606q-89 -104 -233 -104q-110 0 -203.5 58t-150 178.5t-56.5 295.5zM377 482q0 -167 47.5 -266.5t143.5 -111.5q102 0 149 113q8 98 8 246q0 150 -8 270q-51 137 -162 137q-178 0 -178 -388zM981 463q0 -94 8 -246q47 -113 149 -113q96 11 144 110q47 100 47 268 q0 388 -178 388q-111 0 -162 -137q-8 -180 -8 -270z" />
<glyph unicode="&#xf5;" d="M51 -6q64 90 110.5 153.5t111.5 153.5q65 89 104 145q-123 217 -317 535q27 -1 44 -2t41.5 -3t44.5 -2q22 -1 36 -1t35 0.5t45 2.5t41.5 3t45.5 2q38 -70 62.5 -115.5t51.5 -95.5t63 -108q108 150 212 319q60 -4 92 -4t90 4q-85 -103 -160.5 -199t-170.5 -221l111 -195 q46 -74 77.5 -125t76.5 -125t75 -124q-28 1 -84.5 4.5t-85.5 3.5q-26 0 -80.5 -3.5t-83.5 -4.5l-197 354q-160 -242 -227 -352q-74 6 -82 6q-13 0 -39.5 -2.5t-42.5 -3.5z" />
<glyph unicode="&#xf6;" horiz-adv-x="1138" d="M114 -8v989q48 -8 142 -8q104 0 142 8v-862h344v862q54 -8 140 -8q84 0 142 8v-862h104q-10 -37 -10 -89q0 -54 10 -90h-20q-37 40 -114.5 50t-255.5 10q-318 0 -440 -1t-184 -7z" />
<glyph unicode="&#xf7;" horiz-adv-x="1063" d="M80 612v369q94 -8 141 -8q51 0 141 8v-367q0 -54 39 -81t97 -27q94 0 168 68v407q90 -8 141 -8t141 8v-989q-22 1 -70 4.5t-71 3.5q-47 0 -141 -8v456q-138 -76 -318 -76q-66 0 -128.5 32t-101 87t-38.5 121z" />
<glyph unicode="&#xf8;" horiz-adv-x="1478" d="M114 -8v989q48 -8 142 -8q104 0 142 8v-862h200v862q46 -8 142 -8q104 0 140 8v-862h202v862q58 -8 140 -8q84 0 142 8v-989q-180 8 -624 8q-440 0 -626 -8z" />
<glyph unicode="&#xf9;" horiz-adv-x="1478" d="M114 -8v989q48 -8 142 -8q104 0 142 8v-862h200v862q46 -8 142 -8q104 0 140 8v-862h202v862q54 -8 140 -8q84 0 142 8v-862h104q-10 -37 -10 -89q0 -54 10 -90h-20q-26 28 -76 41t-124 16t-230 3h-278q-278 0 -422 -1t-204 -7z" />
<glyph unicode="&#xfa;" d="M-8 844q8 24 8 70q0 40 -8 67h479v-416h178q150 0 245 -72q95 -73 95 -211q0 -83 -51 -147.5t-133 -99.5t-174 -35h-443v862q-98 0 -196 -18zM471 86h33q75 0 133.5 51t58.5 145q0 105 -51.5 153.5t-134.5 48.5h-39v-398z" />
<glyph unicode="&#xfb;" horiz-adv-x="1442" d="M114 0v981q28 -2 76 -4t68 -2t66 2.5t74 3.5v-416h178q150 0 245 -72q95 -73 95 -211q0 -83 -51 -147.5t-133.5 -99.5t-174.5 -35h-443zM398 86h32q75 0 133.5 51t58.5 145q0 105 -51.5 153.5t-134.5 48.5h-38v-398zM1044 -8v989q23 -1 38.5 -2t36.5 -3t38 -2.5t29 -0.5 t30 0.5t38 2.5t34.5 3t38.5 2v-989q-24 1 -70.5 4.5t-70.5 3.5t-71 -3.5t-71 -4.5z" />
<glyph unicode="&#xfc;" horiz-adv-x="948" d="M114 0v981q28 -2 76 -4t68 -2t66 2.5t74 3.5v-416h178q150 0 245 -72q95 -73 95 -211q0 -83 -51 -147.5t-133.5 -99.5t-174.5 -35h-443zM398 86h32q75 0 133.5 51t58.5 145q0 105 -51.5 153.5t-134.5 48.5h-38v-398z" />
<glyph unicode="&#xfd;" horiz-adv-x="985" d="M30 912q69 46 163.5 68t187.5 22q122 0 221.5 -37t170.5 -107t109 -170t38 -221q0 -156 -67.5 -268.5t-189 -169.5t-280.5 -57q-74 0 -167 26q-92 26 -156 86l-2 88l34 28q38 -44 97.5 -70t117.5 -26q150 0 225 94q74 94 84 265q-188 -1 -315 -15v126q77 -10 170 -12.5 t143 -2.5q-6 86 -33.5 166.5t-81 133.5t-133.5 53q-88 0 -143 -62t-67 -152h-48z" />
<glyph unicode="&#xfe;" horiz-adv-x="1593" d="M114 -8v989q24 0 71 -4t71 -4t72 4t70 4v-407h142q14 98 54 177t104 135t147.5 86t180.5 30q149 0 262.5 -60t175.5 -171t62 -261q0 -156 -59 -278.5t-172 -191t-269 -68.5q-146 0 -256 57.5t-171 166t-65 252.5h-136v-456q-24 0 -71 4t-71 4t-71 -4t-71 -4zM838 471 q0 -407 188 -407q74 0 117 63t60 167t19 251q0 161 -46 264t-136 103q-202 0 -202 -441z" />
<glyph unicode="&#xff;" d="M14 -8q52 64 322 424q-58 10 -119.5 46t-104 99t-42.5 149q0 93 49.5 154.5t138 89t203.5 27.5h449v-989q-20 2 -61 5t-73 3q-36 0 -81 -3t-69 -5v416h-10q-31 -42 -77.5 -115t-87.5 -138t-103 -163q-24 2 -73 5t-89 3q-42 0 -94 -3t-78 -5zM358 702q0 -91 61 -139.5 t144 -48.5h63v356h-63q-90 0 -147.5 -44t-57.5 -124z" />
<glyph unicode="&#x2000;" horiz-adv-x="906" />
<glyph unicode="&#x2001;" horiz-adv-x="1812" />
<glyph unicode="&#x2002;" horiz-adv-x="906" />
<glyph unicode="&#x2003;" horiz-adv-x="1812" />
<glyph unicode="&#x2004;" horiz-adv-x="604" />
<glyph unicode="&#x2005;" horiz-adv-x="453" />
<glyph unicode="&#x2006;" horiz-adv-x="302" />
<glyph unicode="&#x2007;" horiz-adv-x="302" />
<glyph unicode="&#x2008;" horiz-adv-x="226" />
<glyph unicode="&#x2009;" horiz-adv-x="362" />
<glyph unicode="&#x200a;" horiz-adv-x="100" />
<glyph unicode="&#x2010;" horiz-adv-x="682" d="M86 346v219h512v-219h-512z" />
<glyph unicode="&#x2011;" horiz-adv-x="682" d="M86 346v219h512v-219h-512z" />
<glyph unicode="&#x2012;" horiz-adv-x="682" d="M86 346v219h512v-219h-512z" />
<glyph unicode="&#x2013;" d="M0 370v170h1024v-170h-1024z" />
<glyph unicode="&#x2014;" horiz-adv-x="2048" d="M0 370v170h2048v-170h-2048z" />
<glyph unicode="&#x2018;" horiz-adv-x="569" d="M76 876q0 34 20 66q82 122 157 229t193 273l50 -22l-92 -380q-36 -141 -60 -198q-20 -50 -50 -72t-81 -22q-56 0 -96.5 38t-40.5 88z" />
<glyph unicode="&#x2019;" horiz-adv-x="569" d="M74 782l92 379q36 144 60 199q22 50 50 72t80 22q56 0 97 -38t41 -89q0 -33 -21 -65q-111 -168 -350 -502z" />
<glyph unicode="&#x201a;" horiz-adv-x="569" d="M58 -364l92 378q36 141 59 199q22 50 50.5 72t80.5 22q56 0 96.5 -37.5t40.5 -89.5q-1 -34 -21 -66q-114 -172 -350 -501z" />
<glyph unicode="&#x201c;" d="M90 876q0 32 20 66q56 84 119 175t108 154t124 173l49 -22l-92 -380q-36 -141 -60 -198q-20 -50 -50 -72q-28 -22 -80 -22q-56 0 -97 38t-41 88zM514 876q0 34 20 66q106 160 350 502l50 -22l-92 -380q-34 -138 -60 -198q-22 -50 -50 -72t-80 -22q-56 0 -97 38t-41 88z " />
<glyph unicode="&#x201d;" d="M90 782l92 379q34 138 60 199q21 50 50 72q28 22 80 22q38 0 69.5 -18t50 -47t18.5 -62t-20 -65q-110 -168 -350 -502zM514 782l92 379q36 140 60 199q22 50 50 72t80 22q38 0 69.5 -18t50 -47t18.5 -62q0 -31 -20 -65q-116 -176 -351 -502z" />
<glyph unicode="&#x201e;" d="M58 -364l92 378q36 141 59 199q22 50 50.5 72t80.5 22q56 0 96.5 -37.5t40.5 -89.5q-1 -34 -21 -66q-114 -172 -350 -501zM482 -364l92 378q36 144 59 199q22 50 50.5 72t80.5 22q56 0 96.5 -37.5t40.5 -89.5q-1 -34 -21 -66q-102 -154 -350 -501z" />
<glyph unicode="&#x2022;" horiz-adv-x="1241" d="M270 696q3 96 50.5 175.5t127.5 126t174 46.5t175.5 -46.5t128.5 -127t47 -174.5t-47 -174t-128 -127q-82 -47 -176 -47t-174 47t-127 127q-47 78 -51 174z" />
<glyph unicode="&#x2026;" horiz-adv-x="2048" d="M174 140q0 68 49 117.5t117 49.5q44 0 83.5 -22.5t63 -61.5t23.5 -83q0 -70 -50 -119t-120 -49q-68 0 -117 50t-49 118zM856 140q0 68 49 117.5t117 49.5q44 0 83.5 -22.5t63 -61.5t23.5 -83q0 -70 -50 -119t-120 -49q-68 0 -117 50t-49 118zM1538 140q0 68 49 117.5 t117 49.5q44 0 83.5 -22.5t63 -61.5t23.5 -83q0 -70 -50 -119t-120 -49q-68 0 -117 50t-49 118z" />
<glyph unicode="&#x202f;" horiz-adv-x="362" />
<glyph unicode="&#x2039;" horiz-adv-x="682" d="M150 545q76 114 137.5 209.5t122.5 193.5q40 -38 132 -90q-130 -164 -228 -311q146 -201 231 -309q-61 -26 -135 -92q-32 50 -69 108.5t-69.5 109t-61 93.5t-60.5 88z" />
<glyph unicode="&#x203a;" horiz-adv-x="682" d="M137 856q59 25 135 92q50 -78 98 -154t84 -131t78 -114q-44 -66 -86 -131.5t-84.5 -130.5t-89.5 -141q-38 38 -132 90q132 166 228 311q-142 197 -231 309z" />
<glyph unicode="&#x205f;" horiz-adv-x="453" />
<glyph unicode="&#x2122;" horiz-adv-x="1997" d="M102 1292q1 6 3.5 24t2.5 28t-2 27t-4 23h625q0 -4 -2 -14t-3 -20t-1 -16t1 -16l2 -20q2 -12 3 -16q-143 16 -217 16v-747q-17 1 -44 4t-46 3q-20 0 -48 -3t-44 -4v747q-98 0 -226 -16zM897 561q18 100 39.5 241.5t42.5 290.5t41 301q7 0 16.5 -1.5t18.5 -3t16 -1.5 q6 0 15.5 1.5t19.5 3t16 1.5q88 -194 279 -570q26 50 70.5 136t71 138.5t67 135t74.5 160.5q6 0 16 -1.5l20 -3t14 -1.5q11 0 26 2l28 4q40 -348 60 -510t46 -323q-19 1 -48.5 4t-51.5 3q-24 0 -53 -3t-45 -4q-6 101 -13 174t-17 170t-24 221q-179 -358 -270 -558h-45 q-30 65 -57.5 121t-96.5 196t-112 229q-45 -340 -51 -553q-11 1 -27.5 4t-30.5 3q-12 0 -29.5 -3t-25.5 -4z" />
<glyph unicode="&#xe000;" horiz-adv-x="982" d="M0 0v982h982v-982h-982z" />
</font>
</defs>
</svg>
